<?xml version="1.0" encoding="UTF-8"?>
<!--Generator: Apple Native CoreSVG 149-->
<!DOCTYPE svg
PUBLIC "-//W3C//DTD SVG 1.1//EN"
       "http://www.w3.org/Graphics/SVG/1.1/DTD/svg11.dtd">
<svg version="1.1" xmlns="http://www.w3.org/2000/svg" xmlns:xlink="http://www.w3.org/1999/xlink" width="3300" height="2200">
 <!--glyph: "uni10025C.medium", point size: 100.000000, font version: "Version 16.0d12e3", template writer version: "8"-->
 <g id="Notes">
  <rect height="2200" id="artboard" style="fill:white;opacity:1" width="3300" x="0" y="0"/>
  <line id="" style="fill:none;stroke:black;opacity:1;stroke-width:0.5;" x1="263" x2="3036" y1="292" y2="292"/>
  <text style="stroke:none;fill:black;font-family:-apple-system,&quot;SF Pro Display&quot;,&quot;SF Pro Text&quot;,Helvetica,sans-serif;font-weight:bold;" transform="matrix(1 0 0 1 263 322)">Weight/Scale Variations</text>
  <text style="stroke:none;fill:black;font-family:-apple-system,&quot;SF Pro Display&quot;,&quot;SF Pro Text&quot;,Helvetica,sans-serif;text-anchor:middle;" transform="matrix(1 0 0 1 559.711 322)">Ultralight</text>
  <text style="stroke:none;fill:black;font-family:-apple-system,&quot;SF Pro Display&quot;,&quot;SF Pro Text&quot;,Helvetica,sans-serif;text-anchor:middle;" transform="matrix(1 0 0 1 856.422 322)">Thin</text>
  <text style="stroke:none;fill:black;font-family:-apple-system,&quot;SF Pro Display&quot;,&quot;SF Pro Text&quot;,Helvetica,sans-serif;text-anchor:middle;" transform="matrix(1 0 0 1 1153.13 322)">Light</text>
  <text style="stroke:none;fill:black;font-family:-apple-system,&quot;SF Pro Display&quot;,&quot;SF Pro Text&quot;,Helvetica,sans-serif;text-anchor:middle;" transform="matrix(1 0 0 1 1449.84 322)">Regular</text>
  <text style="stroke:none;fill:black;font-family:-apple-system,&quot;SF Pro Display&quot;,&quot;SF Pro Text&quot;,Helvetica,sans-serif;text-anchor:middle;" transform="matrix(1 0 0 1 1746.56 322)">Medium</text>
  <text style="stroke:none;fill:black;font-family:-apple-system,&quot;SF Pro Display&quot;,&quot;SF Pro Text&quot;,Helvetica,sans-serif;text-anchor:middle;" transform="matrix(1 0 0 1 2043.27 322)">Semibold</text>
  <text style="stroke:none;fill:black;font-family:-apple-system,&quot;SF Pro Display&quot;,&quot;SF Pro Text&quot;,Helvetica,sans-serif;text-anchor:middle;" transform="matrix(1 0 0 1 2339.98 322)">Bold</text>
  <text style="stroke:none;fill:black;font-family:-apple-system,&quot;SF Pro Display&quot;,&quot;SF Pro Text&quot;,Helvetica,sans-serif;text-anchor:middle;" transform="matrix(1 0 0 1 2636.69 322)">Heavy</text>
  <text style="stroke:none;fill:black;font-family:-apple-system,&quot;SF Pro Display&quot;,&quot;SF Pro Text&quot;,Helvetica,sans-serif;text-anchor:middle;" transform="matrix(1 0 0 1 2933.4 322)">Black</text>
  <line id="" style="fill:none;stroke:black;opacity:1;stroke-width:0.5;" x1="263" x2="3036" y1="1903" y2="1903"/>
  <g id="" transform="matrix(1 0 0 1 263 1933)">
   <path d="M9.24805 0.830078C13.5547 0.830078 17.1387-2.74414 17.1387-7.05078C17.1387-11.3574 13.5449-14.9316 9.23828-14.9316C4.94141-14.9316 1.36719-11.3574 1.36719-7.05078C1.36719-2.74414 4.95117 0.830078 9.24805 0.830078ZM9.24805-0.654297C5.70312-0.654297 2.87109-3.49609 2.87109-7.05078C2.87109-10.6055 5.69336-13.4473 9.23828-13.4473C12.793-13.4473 15.6348-10.6055 15.6445-7.05078C15.6543-3.49609 12.8027-0.654297 9.24805-0.654297ZM9.22852-3.62305C9.69727-3.62305 9.9707-3.93555 9.9707-4.45312L9.9707-6.31836L12.002-6.31836C12.5-6.31836 12.832-6.57227 12.832-7.04102C12.832-7.51953 12.5195-7.7832 12.002-7.7832L9.9707-7.7832L9.9707-9.81445C9.9707-10.332 9.69727-10.6543 9.22852-10.6543C8.75977-10.6543 8.50586-10.3125 8.50586-9.81445L8.50586-7.7832L6.49414-7.7832C5.97656-7.7832 5.64453-7.51953 5.64453-7.04102C5.64453-6.57227 5.99609-6.31836 6.49414-6.31836L8.50586-6.31836L8.50586-4.45312C8.50586-3.95508 8.75977-3.62305 9.22852-3.62305Z"/>
  </g>
  <g id="" transform="matrix(1 0 0 1 281.506 1933)">
   <path d="M11.709 2.91016C17.1582 2.91016 21.6699-1.61133 21.6699-7.05078C21.6699-12.5 17.1484-17.0117 11.6992-17.0117C6.25977-17.0117 1.74805-12.5 1.74805-7.05078C1.74805-1.61133 6.26953 2.91016 11.709 2.91016ZM11.709 1.25C7.09961 1.25 3.41797-2.44141 3.41797-7.05078C3.41797-11.6602 7.08984-15.3516 11.6992-15.3516C16.3086-15.3516 20-11.6602 20.0098-7.05078C20.0195-2.44141 16.3184 1.25 11.709 1.25ZM11.6797-2.66602C12.207-2.66602 12.5098-3.01758 12.5098-3.59375L12.5098-6.23047L15.3223-6.23047C15.8691-6.23047 16.25-6.51367 16.25-7.03125C16.25-7.55859 15.8887-7.86133 15.3223-7.86133L12.5098-7.86133L12.5098-10.6836C12.5098-11.25 12.207-11.6113 11.6797-11.6113C11.1621-11.6113 10.8789-11.2305 10.8789-10.6836L10.8789-7.86133L8.07617-7.86133C7.50977-7.86133 7.13867-7.55859 7.13867-7.03125C7.13867-6.51367 7.5293-6.23047 8.07617-6.23047L10.8789-6.23047L10.8789-3.59375C10.8789-3.03711 11.1621-2.66602 11.6797-2.66602Z"/>
  </g>
  <g id="" transform="matrix(1 0 0 1 304.924 1933)">
   <path d="M14.9707 5.66406C21.9336 5.66406 27.6953-0.0976562 27.6953-7.05078C27.6953-14.0137 21.9238-19.7754 14.9609-19.7754C8.00781-19.7754 2.25586-14.0137 2.25586-7.05078C2.25586-0.0976562 8.01758 5.66406 14.9707 5.66406ZM14.9707 3.84766C8.93555 3.84766 4.08203-1.01562 4.08203-7.05078C4.08203-13.0957 8.92578-17.9492 14.9609-17.9492C21.0059-17.9492 25.8594-13.0957 25.8691-7.05078C25.8789-1.01562 21.0156 3.84766 14.9707 3.84766ZM14.9414-1.38672C15.5176-1.38672 15.8594-1.77734 15.8594-2.38281L15.8594-6.13281L19.7754-6.13281C20.3711-6.13281 20.7812-6.46484 20.7812-7.02148C20.7812-7.59766 20.3906-7.93945 19.7754-7.93945L15.8594-7.93945L15.8594-11.8652C15.8594-12.4805 15.5176-12.8711 14.9414-12.8711C14.375-12.8711 14.0527-12.4609 14.0527-11.8652L14.0527-7.93945L10.1465-7.93945C9.53125-7.93945 9.13086-7.59766 9.13086-7.02148C9.13086-6.46484 9.55078-6.13281 10.1465-6.13281L14.0527-6.13281L14.0527-2.38281C14.0527-1.79688 14.375-1.38672 14.9414-1.38672Z"/>
  </g>
  <text style="stroke:none;fill:black;font-family:-apple-system,&quot;SF Pro Display&quot;,&quot;SF Pro Text&quot;,Helvetica,sans-serif;font-weight:bold;" transform="matrix(1 0 0 1 263 1953)">Design Variations</text>
  <text style="stroke:none;fill:black;font-family:-apple-system,&quot;SF Pro Display&quot;,&quot;SF Pro Text&quot;,Helvetica,sans-serif;" transform="matrix(1 0 0 1 263 1971)">Symbols are supported in up to nine weights and three scales.</text>
  <text style="stroke:none;fill:black;font-family:-apple-system,&quot;SF Pro Display&quot;,&quot;SF Pro Text&quot;,Helvetica,sans-serif;" transform="matrix(1 0 0 1 263 1989)">For optimal layout with text and other symbols, vertically align</text>
  <text style="stroke:none;fill:black;font-family:-apple-system,&quot;SF Pro Display&quot;,&quot;SF Pro Text&quot;,Helvetica,sans-serif;" transform="matrix(1 0 0 1 263 2007)">symbols with the adjacent text.</text>
  <line id="" style="fill:none;stroke:#00AEEF;stroke-width:0.5;opacity:1.0;" x1="776" x2="776" y1="1919" y2="1933"/>
  <g id="" transform="matrix(1 0 0 1 776 1933)">
   <path d="M3.31055 0.126953C3.82812 0.126953 4.08203-0.0683594 4.26758-0.605469L5.52734-4.0625L11.2891-4.0625L12.5488-0.605469C12.7344-0.0683594 12.9883 0.126953 13.4961 0.126953C14.0137 0.126953 14.3457-0.185547 14.3457-0.673828C14.3457-0.839844 14.3164-0.986328 14.2383-1.20117L9.6582-13.3887C9.43359-13.9941 9.0332-14.2871 8.4082-14.2871C7.80273-14.2871 7.39258-13.9941 7.17773-13.3984L2.59766-1.19141C2.51953-0.976562 2.49023-0.830078 2.49023-0.664062C2.49023-0.175781 2.80273 0.126953 3.31055 0.126953ZM6.00586-5.53711L8.37891-12.1094L8.42773-12.1094L10.8008-5.53711Z"/>
  </g>
  <line id="" style="fill:none;stroke:#00AEEF;stroke-width:0.5;opacity:1.0;" x1="792.836" x2="792.836" y1="1919" y2="1933"/>
  <text style="stroke:none;fill:black;font-family:-apple-system,&quot;SF Pro Display&quot;,&quot;SF Pro Text&quot;,Helvetica,sans-serif;font-weight:bold;" transform="matrix(1 0 0 1 776 1953)">Margins</text>
  <text style="stroke:none;fill:black;font-family:-apple-system,&quot;SF Pro Display&quot;,&quot;SF Pro Text&quot;,Helvetica,sans-serif;" transform="matrix(1 0 0 1 776 1971)">Leading and trailing margins on the left and right side of each symbol</text>
  <text style="stroke:none;fill:black;font-family:-apple-system,&quot;SF Pro Display&quot;,&quot;SF Pro Text&quot;,Helvetica,sans-serif;" transform="matrix(1 0 0 1 776 1989)">can be adjusted by modifying the x-location of the margin guidelines.</text>
  <text style="stroke:none;fill:black;font-family:-apple-system,&quot;SF Pro Display&quot;,&quot;SF Pro Text&quot;,Helvetica,sans-serif;" transform="matrix(1 0 0 1 776 2007)">Modifications are automatically applied proportionally to all</text>
  <text style="stroke:none;fill:black;font-family:-apple-system,&quot;SF Pro Display&quot;,&quot;SF Pro Text&quot;,Helvetica,sans-serif;" transform="matrix(1 0 0 1 776 2025)">scales and weights.</text>
  <g id="" transform="matrix(1 0 0 1 1289 1933)">
   <path d="M2.8418 1.86523L4.54102 3.57422C5.40039 4.44336 6.38672 4.38477 7.31445 3.35938L17.4902-7.85156C17.7539-7.76367 18.0273-7.7832 18.3398-7.8418L19.4043-8.03711L20.0684-7.36328L20.0293-6.80664C19.9902-6.30859 20.1172-5.92773 20.6055-5.44922L21.3672-4.70703C21.8457-4.22852 22.4609-4.19922 22.9297-4.66797L25.8398-7.58789C26.3086-8.05664 26.2891-8.65234 25.8105-9.13086L25.0391-9.89258C24.5605-10.3711 24.1895-10.5273 23.7109-10.4883L23.1348-10.4395L22.4902-11.0742L22.7344-12.1973C22.8613-12.7637 22.7051-13.2031 22.1191-13.7891L19.9219-15.9766C16.582-19.2969 12.1484-19.2188 9.25781-16.3281C8.83789-15.918 8.80859-15.3418 9.04297-14.9512C9.27734-14.5898 9.73633-14.3555 10.3809-14.5215C11.8457-14.8633 13.3691-14.9219 14.7949-13.9844L14.209-12.5293C14.0137-12.0508 13.9844-11.6504 14.1113-11.2891L3.04688-0.898438C2.06055 0.0195312 1.98242 0.996094 2.8418 1.86523ZM10.752-15.957C13.1836-17.7344 16.4746-17.4316 18.7012-15.2051L21.1328-12.793C21.3672-12.5586 21.4062-12.373 21.3379-12.0312L21.0156-10.5469L22.5195-9.0625L23.5059-9.12109C23.7598-9.13086 23.8379-9.11133 24.0332-8.91602L24.6094-8.33984L22.168-5.89844L21.5918-6.47461C21.3965-6.66992 21.3672-6.74805 21.377-7.01172L21.4453-7.98828L19.9512-9.47266L18.4277-9.21875C18.1055-9.15039 17.959-9.17969 17.7148-9.41406L15.7129-11.416C15.459-11.6504 15.4297-11.8164 15.5859-12.1875L16.4648-14.2773C14.9023-15.7324 12.8711-16.3574 10.8398-15.7617C10.6836-15.7227 10.625-15.8496 10.752-15.957ZM5.27344 2.30469L4.10156 1.14258C3.63281 0.683594 3.74023 0.341797 4.14062-0.0195312L14.9512-10.1953L16.416-8.71094L6.42578 2.27539C6.07422 2.67578 5.74219 2.77344 5.27344 2.30469Z"/>
  </g>
  <text style="stroke:none;fill:black;font-family:-apple-system,&quot;SF Pro Display&quot;,&quot;SF Pro Text&quot;,Helvetica,sans-serif;font-weight:bold;" transform="matrix(1 0 0 1 1289 1953)">Exporting</text>
  <text style="stroke:none;fill:black;font-family:-apple-system,&quot;SF Pro Display&quot;,&quot;SF Pro Text&quot;,Helvetica,sans-serif;" transform="matrix(1 0 0 1 1289 1971)">Symbols should be outlined when exporting to ensure the</text>
  <text style="stroke:none;fill:black;font-family:-apple-system,&quot;SF Pro Display&quot;,&quot;SF Pro Text&quot;,Helvetica,sans-serif;" transform="matrix(1 0 0 1 1289 1989)">design is preserved when submitting to Xcode.</text>
  <text id="template-version" style="stroke:none;fill:black;font-family:-apple-system,&quot;SF Pro Display&quot;,&quot;SF Pro Text&quot;,Helvetica,sans-serif;text-anchor:end;" transform="matrix(1 0 0 1 3036 1933)">Template v.2.0</text>
  <text style="stroke:none;fill:black;font-family:-apple-system,&quot;SF Pro Display&quot;,&quot;SF Pro Text&quot;,Helvetica,sans-serif;text-anchor:end;" transform="matrix(1 0 0 1 3036 1951)">Requires Xcode 12 or greater</text>
  <text style="stroke:none;fill:black;font-family:-apple-system,&quot;SF Pro Display&quot;,&quot;SF Pro Text&quot;,Helvetica,sans-serif;text-anchor:end;" transform="matrix(1 0 0 1 3036 1969)">Generated from book.circle</text>
  <text style="stroke:none;fill:black;font-family:-apple-system,&quot;SF Pro Display&quot;,&quot;SF Pro Text&quot;,Helvetica,sans-serif;text-anchor:end;" transform="matrix(1 0 0 1 3036 1987)">Typeset at 100 points</text>
  <text style="stroke:none;fill:black;font-family:-apple-system,&quot;SF Pro Display&quot;,&quot;SF Pro Text&quot;,Helvetica,sans-serif;" transform="matrix(1 0 0 1 263 726)">Small</text>
  <text style="stroke:none;fill:black;font-family:-apple-system,&quot;SF Pro Display&quot;,&quot;SF Pro Text&quot;,Helvetica,sans-serif;" transform="matrix(1 0 0 1 263 1156)">Medium</text>
  <text style="stroke:none;fill:black;font-family:-apple-system,&quot;SF Pro Display&quot;,&quot;SF Pro Text&quot;,Helvetica,sans-serif;" transform="matrix(1 0 0 1 263 1586)">Large</text>
 </g>
 <g id="Guides">
  <g id="H-reference" style="fill:#27AAE1;stroke:none;" transform="matrix(1 0 0 1 339 696)">
   <path d="M0.976562 0L3.66211 0L12.9883-24.4629L45.752-24.4629L55.127 0L57.7637 0L30.6152-70.459L28.125-70.459ZM29.3457-67.1387L29.4434-67.1387L44.873-26.709L13.8672-26.709Z"/>
  </g>
  <line id="Baseline-S" style="fill:none;stroke:#27AAE1;opacity:1;stroke-width:0.5;" x1="263" x2="3036" y1="696" y2="696"/>
  <line id="Capline-S" style="fill:none;stroke:#27AAE1;opacity:1;stroke-width:0.5;" x1="263" x2="3036" y1="625.541" y2="625.541"/>
  <g id="H-reference" style="fill:#27AAE1;stroke:none;" transform="matrix(1 0 0 1 339 1126)">
   <path d="M0.976562 0L3.66211 0L12.9883-24.4629L45.752-24.4629L55.127 0L57.7637 0L30.6152-70.459L28.125-70.459ZM29.3457-67.1387L29.4434-67.1387L44.873-26.709L13.8672-26.709Z"/>
  </g>
  <line id="Baseline-M" style="fill:none;stroke:#27AAE1;opacity:1;stroke-width:0.5;" x1="263" x2="3036" y1="1126" y2="1126"/>
  <line id="Capline-M" style="fill:none;stroke:#27AAE1;opacity:1;stroke-width:0.5;" x1="263" x2="3036" y1="1055.54" y2="1055.54"/>
  <g id="H-reference" style="fill:#27AAE1;stroke:none;" transform="matrix(1 0 0 1 339 1556)">
   <path d="M0.976562 0L3.66211 0L12.9883-24.4629L45.752-24.4629L55.127 0L57.7637 0L30.6152-70.459L28.125-70.459ZM29.3457-67.1387L29.4434-67.1387L44.873-26.709L13.8672-26.709Z"/>
  </g>
  <line id="Baseline-L" style="fill:none;stroke:#27AAE1;opacity:1;stroke-width:0.5;" x1="263" x2="3036" y1="1556" y2="1556"/>
  <line id="Capline-L" style="fill:none;stroke:#27AAE1;opacity:1;stroke-width:0.5;" x1="263" x2="3036" y1="1485.54" y2="1485.54"/>
  <line id="left-margin" style="fill:none;stroke:#00AEEF;stroke-width:0.5;opacity:1.0;" x1="1391.3" x2="1391.3" y1="1030.79" y2="1150.12"/>
  <line id="right-margin" style="fill:none;stroke:#00AEEF;stroke-width:0.5;opacity:1.0;" x1="1508.39" x2="1508.39" y1="1030.79" y2="1150.12"/>
 </g>
 <g id="Symbols">
  <g id="Black-L" transform="matrix(1 0 0 1 2854.05 1556)">
   <path d="M79.3457 32.8613C116.748 32.8613 147.412 2.19727 147.412-35.2051C147.412-72.6074 116.748-103.271 79.2969-103.271C41.8945-103.271 11.2793-72.6074 11.2793-35.2051C11.2793 2.19727 41.9434 32.8613 79.3457 32.8613ZM79.3457 12.4023C52.9785 12.4023 31.7383-8.83789 31.7383-35.2051C31.7383-61.5723 52.9297-82.8125 79.2969-82.8125C105.664-82.8125 126.953-61.5723 126.953-35.2051C127.002-8.83789 105.713 12.4023 79.3457 12.4023ZM66.2109-12.4512C70.3125-12.4512 73.0957-11.2793 74.6582-10.3516C75.1953-10.0098 76.2695-9.375 76.6602-9.08203L76.6602-55.8594C74.2676-59.4727 69.4336-61.9629 64.1113-61.9629C56.2988-61.9629 50.4883-58.0078 47.998-53.4668L47.998-13.916C47.998-10.1074 50.0977-8.54492 52.6855-8.54492C54.3945-8.54492 55.3711-9.08203 56.5918-9.86328C58.252-11.0352 62.0117-12.4512 66.2109-12.4512ZM92.3828-12.4512C96.582-12.4512 100.391-11.0352 102.002-9.86328C103.174-9.08203 104.248-8.54492 105.908-8.54492C108.496-8.54492 110.596-10.0586 110.596-13.916L110.596-53.4668C108.105-58.0078 102.295-61.9629 94.4824-61.9629C89.1602-61.9629 84.4238-59.4727 81.9824-55.8594L81.9824-9.0332C82.4219-9.32617 83.4473-10.0098 83.9844-10.3516C85.5469-11.2793 88.3301-12.4512 92.3828-12.4512Z"/>
  </g>
  <g id="Heavy-L" transform="matrix(1 0 0 1 2558.39 1556)">
   <path d="M78.2715 31.7871C115.088 31.7871 145.312 1.5625 145.312-35.2051C145.312-72.0215 115.039-102.246 78.2715-102.246C41.4551-102.246 11.2793-72.0215 11.2793-35.2051C11.2793 1.5625 41.5039 31.7871 78.2715 31.7871ZM78.2715 14.0137C51.0254 14.0137 29.0527-7.95898 29.0527-35.2051C29.0527-62.5 50.9766-84.4727 78.2715-84.4727C105.518-84.4727 127.49-62.5 127.539-35.2051C127.539-7.95898 105.566 14.0137 78.2715 14.0137ZM64.502-12.207C69.0918-12.207 72.1191-10.6445 73.7305-9.66797C74.2188-9.375 75.3418-8.64258 75.7324-8.44727L75.7324-56.2988C73.3398-59.9121 68.3594-62.5488 62.5977-62.5488C54.7363-62.5488 48.584-58.5938 46.2891-54.1992L46.2891-12.6953C46.2891-9.32617 48.1445-7.95898 50.4395-7.95898C52.002-7.95898 52.8809-8.44727 53.9551-9.17969C55.6641-10.498 59.668-12.207 64.502-12.207ZM91.9922-12.207C96.8262-12.207 100.83-10.498 102.49-9.17969C103.564-8.44727 104.541-7.95898 106.055-7.95898C108.35-7.95898 110.205-9.27734 110.205-12.6953L110.205-54.1992C107.91-58.5938 101.758-62.5488 93.8965-62.5488C88.1836-62.5488 83.2031-59.9121 80.8594-56.2988L80.8594-8.39844C81.25-8.64258 82.3242-9.32617 82.8613-9.66797C84.4238-10.6934 87.4023-12.207 91.9922-12.207Z"/>
  </g>
  <g id="Bold-L" transform="matrix(1 0 0 1 2262.88 1556)">
   <path d="M77.0996 30.5664C113.232 30.5664 142.92 0.878906 142.92-35.2539C142.92-71.3379 113.184-101.074 77.0508-101.074C40.9668-101.074 11.2793-71.3379 11.2793-35.2539C11.2793 0.878906 41.0156 30.5664 77.0996 30.5664ZM77.0996 15.8203C48.8281 15.8203 26.0742-6.98242 26.0742-35.2539C26.0742-63.5254 48.7793-86.2793 77.0508-86.2793C105.371-86.2793 128.125-63.5254 128.174-35.2539C128.174-6.98242 105.371 15.8203 77.0996 15.8203ZM62.5488-11.9141C67.7734-11.9141 70.9961-9.96094 72.6562-8.88672C73.0957-8.64258 74.2676-7.86133 74.6582-7.71484L74.6582-56.7871C72.3633-60.4492 67.0898-63.1836 60.9375-63.1836C52.9785-63.1836 46.4355-59.2773 44.3359-55.0293L44.3359-11.2793C44.3359-8.39844 45.8984-7.27539 47.9004-7.27539C49.2676-7.27539 50.1465-7.71484 51.0742-8.39844C52.7832-9.86328 57.0801-11.9141 62.5488-11.9141ZM91.5527-11.9141C97.0215-11.9141 101.367-9.86328 103.076-8.39844C103.955-7.71484 104.883-7.27539 106.25-7.27539C108.203-7.27539 109.814-8.39844 109.814-11.2793L109.814-55.0293C107.715-59.2773 101.172-63.1836 93.2129-63.1836C87.0605-63.1836 81.8848-60.4492 79.541-56.7871L79.541-7.66602C79.9316-7.86133 81.0547-8.59375 81.543-8.88672C83.1543-10.0098 86.377-11.9141 91.5527-11.9141Z"/>
  </g>
  <g id="Semibold-L" transform="matrix(1 0 0 1 1966.97 1556)">
   <path d="M76.2695 29.7363C111.914 29.7363 141.309 0.390625 141.309-35.2539C141.309-70.8984 111.865-100.244 76.2695-100.244C40.625-100.244 11.2793-70.8984 11.2793-35.2539C11.2793 0.390625 40.6738 29.7363 76.2695 29.7363ZM76.2695 17.041C47.3145 17.041 24.0234-6.25 24.0234-35.2539C24.0234-64.209 47.2656-87.5488 76.2695-87.5488C105.225-87.5488 128.564-64.209 128.613-35.2539C128.662-6.25 105.273 17.041 76.2695 17.041ZM61.2305-11.7188C66.8457-11.7188 70.2637-9.52148 71.9238-8.39844C72.3633-8.10547 73.584-7.32422 73.9258-7.22656L73.9258-57.1289C71.6309-60.791 66.2109-63.623 59.7656-63.623C51.7578-63.623 44.9219-59.7656 43.0176-55.5664L43.0176-10.3027C43.0176-7.8125 44.3848-6.78711 46.1426-6.78711C47.4121-6.78711 48.2422-7.22656 49.0723-7.86133C50.7812-9.47266 55.3223-11.7188 61.2305-11.7188ZM91.2598-11.7188C97.2168-11.7188 101.709-9.47266 103.467-7.86133C104.248-7.22656 105.078-6.78711 106.348-6.78711C108.105-6.78711 109.521-7.76367 109.521-10.3027L109.521-55.5664C107.568-59.7656 100.732-63.623 92.7734-63.623C86.3281-63.623 80.957-60.791 78.6621-57.1289L78.6621-7.17773C79.0527-7.27539 80.1758-8.10547 80.6641-8.39844C82.2754-9.52148 85.6934-11.7188 91.2598-11.7188Z"/>
  </g>
  <g id="Medium-L" transform="matrix(1 0 0 1 1670.87 1556)">
   <path d="M75.6836 29.1504C110.938 29.1504 140.088 0 140.088-35.2539C140.088-70.5078 110.889-99.6582 75.6348-99.6582C40.3809-99.6582 11.2793-70.5078 11.2793-35.2539C11.2793 0 40.3809 29.1504 75.6836 29.1504ZM75.6836 18.0176C46.1426 18.0176 22.4609-5.76172 22.4609-35.2539C22.4609-64.7461 46.1426-88.5254 75.6348-88.5254C105.127-88.5254 128.906-64.7461 128.906-35.2539C128.955-5.76172 105.176 18.0176 75.6836 18.0176ZM60.2539-11.5234C66.1621-11.5234 69.6777-9.13086 71.3379-8.00781C71.7773-7.76367 72.998-6.93359 73.3398-6.83594L73.3398-57.373C71.0938-61.0352 65.5762-63.9648 58.8867-63.9648C50.8789-63.9648 43.7988-60.1074 41.9922-56.0059L41.9922-9.57031C41.9922-7.32422 43.2617-6.44531 44.8242-6.44531C46.0449-6.44531 46.8262-6.83594 47.5098-7.4707C49.3164-9.13086 53.9551-11.5234 60.2539-11.5234ZM91.0156-11.5234C97.3145-11.5234 102.002-9.13086 103.76-7.4707C104.443-6.83594 105.273-6.44531 106.445-6.44531C108.057-6.44531 109.277-7.32422 109.277-9.57031L109.277-56.0059C107.471-60.1074 100.391-63.9648 92.4316-63.9648C85.7422-63.9648 80.2734-61.0352 77.9785-57.373L77.9785-6.78711C78.3691-6.88477 79.4922-7.71484 79.9805-8.00781C81.6406-9.17969 85.1562-11.5234 91.0156-11.5234Z"/>
  </g>
  <g id="Regular-L" transform="matrix(1 0 0 1 1374.97 1556)">
   <path d="M74.8535 28.3203C109.668 28.3203 138.477-0.488281 138.477-35.2539C138.477-70.0684 109.619-98.877 74.8047-98.877C40.0391-98.877 11.2793-70.0684 11.2793-35.2539C11.2793-0.488281 40.0879 28.3203 74.8535 28.3203ZM74.8535 19.2383C44.6777 19.2383 20.4102-5.07812 20.4102-35.2539C20.4102-65.4785 44.6289-89.7461 74.8047-89.7461C105.029-89.7461 129.297-65.4785 129.346-35.2539C129.395-5.07812 105.078 19.2383 74.8535 19.2383ZM58.9355-11.3281C65.2344-11.3281 68.8965-8.69141 70.6055-7.4707C71.0449-7.22656 72.3145-6.39648 72.6074-6.34766L72.6074-57.7148C70.4102-61.377 64.7461-64.4043 57.7148-64.4043C49.6582-64.4043 42.334-60.5957 40.6738-56.5918L40.6738-8.59375C40.6738-6.68945 41.748-6.00586 43.0664-6.00586C44.1895-6.00586 44.9219-6.34766 45.5566-6.93359C47.3145-8.74023 52.1973-11.3281 58.9355-11.3281ZM90.7227-11.3281C97.5098-11.3281 102.344-8.74023 104.15-6.93359C104.736-6.34766 105.469-6.00586 106.592-6.00586C107.959-6.00586 109.033-6.68945 109.033-8.59375L109.033-56.5918C107.324-60.5957 100-64.4043 91.9434-64.4043C85.0098-64.4043 79.3457-61.377 77.0996-57.7148L77.0996-6.29883C77.4902-6.34766 78.6621-7.17773 79.1016-7.4707C80.7617-8.74023 84.4727-11.3281 90.7227-11.3281Z"/>
  </g>
  <g id="Light-L" transform="matrix(1 0 0 1 1079.18 1556)">
   <path d="M73.9258 27.3926C108.301 27.3926 136.621-0.927734 136.621-35.2539C136.621-69.6289 108.252-97.9492 73.9258-97.9492C39.5508-97.9492 11.2793-69.6289 11.2793-35.2539C11.2793-0.927734 39.5996 27.3926 73.9258 27.3926ZM73.9258 20.5078C43.1152 20.5078 18.2129-4.44336 18.2129-35.2539C18.2129-66.1133 43.0664-91.0156 73.9258-91.0156C104.736-91.0156 129.688-66.1133 129.736-35.2539C129.736-4.44336 104.785 20.5078 73.9258 20.5078ZM57.666-11.2793C64.8926-11.2793 68.9453-7.95898 70.5566-6.68945C70.8496-6.49414 71.6797-5.9082 71.9238-5.85938L71.9238-58.7402C69.6777-61.8164 64.1113-64.7461 56.8848-64.7461C48.4375-64.7461 40.6738-60.6445 39.5996-57.1289L39.5996-7.56836C39.5996-6.15234 40.4785-5.56641 41.5039-5.56641C42.4316-5.56641 43.0664-5.85938 43.5059-6.34766C44.9219-8.1543 50.1953-11.2793 57.666-11.2793ZM90.1367-11.2793C97.6074-11.2793 102.881-8.1543 104.346-6.34766C104.785-5.85938 105.42-5.56641 106.299-5.56641C107.373-5.56641 108.203-6.15234 108.203-7.56836L108.203-57.1289C107.178-60.6445 99.3652-64.7461 90.918-64.7461C83.7402-64.7461 78.1738-61.8164 75.9277-58.7402L75.9277-5.85938C76.2207-5.9082 77.002-6.49414 77.2949-6.68945C78.8574-8.00781 82.959-11.2793 90.1367-11.2793Z"/>
  </g>
  <g id="Thin-L" transform="matrix(1 0 0 1 783.693 1556)">
   <path d="M72.7051 26.1719C106.494 26.1719 134.18-1.51367 134.18-35.2539C134.18-69.043 106.494-96.7285 72.7051-96.7285C38.9648-96.7285 11.2793-69.043 11.2793-35.2539C11.2793-1.51367 38.9648 26.1719 72.7051 26.1719ZM72.7051 22.168C41.0156 22.168 15.2832-3.56445 15.2832-35.2539C15.2832-66.9922 41.0156-92.7246 72.7051-92.7246C104.395-92.7246 130.176-66.9922 130.176-35.2539C130.176-3.56445 104.443 22.168 72.7051 22.168ZM56.0059-11.1816C64.4531-11.1816 68.9941-7.03125 70.459-5.61523C70.5566-5.51758 70.8008-5.27344 70.9961-5.22461L70.9961-60.1562C68.75-62.4023 63.3301-65.2344 55.8594-65.2344C46.8262-65.2344 38.4277-60.6934 38.2324-57.9102L38.2324-6.25C38.2324-5.46875 38.7695-5.0293 39.4531-5.0293C40.0879-5.0293 40.5273-5.22461 40.7715-5.56641C41.748-7.42188 47.5586-11.1816 56.0059-11.1816ZM89.3555-11.1816C97.8027-11.1816 103.613-7.42188 104.639-5.56641C104.834-5.22461 105.273-5.0293 105.908-5.0293C106.592-5.0293 107.129-5.46875 107.129-6.25L107.129-57.9102C106.934-60.6934 98.5352-65.2344 89.5508-65.2344C82.0312-65.2344 76.6113-62.4023 74.3652-60.1562L74.3652-5.17578C74.5605-5.27344 74.8047-5.51758 74.9023-5.61523C76.416-7.03125 80.957-11.1816 89.3555-11.1816Z"/>
  </g>
  <g id="Ultralight-L" transform="matrix(1 0 0 1 487.616 1556)">
   <path d="M72.1191 25.5371C105.566 25.5371 132.91-1.80664 132.91-35.2539C132.91-68.75 105.566-96.0938 72.1191-96.0938C38.623-96.0938 11.2793-68.75 11.2793-35.2539C11.2793-1.80664 38.623 25.5371 72.1191 25.5371ZM72.1191 23.0469C39.9414 23.0469 13.7695-3.125 13.7695-35.2539C13.7695-67.4316 39.9414-93.6035 72.1191-93.6035C104.248-93.6035 130.42-67.4316 130.42-35.2539C130.42-3.125 104.248 23.0469 72.1191 23.0469ZM55.127-11.1328C64.209-11.1328 68.9941-6.5918 70.4102-5.07812C70.459-5.0293 70.3613-4.93164 70.5078-4.88281L70.5078-60.8887C68.2617-62.6953 62.8906-65.4785 55.2734-65.4785C45.9961-65.4785 37.3047-60.6934 37.5-58.3008L37.5-5.56641C37.5-5.07812 37.9395-4.73633 38.3789-4.73633C38.8672-4.73633 39.2578-4.88281 39.3555-5.17578C40.1367-7.03125 46.2402-11.1328 55.127-11.1328ZM88.9648-11.1328C97.9004-11.1328 104.004-7.03125 104.736-5.17578C104.883-4.88281 105.225-4.73633 105.713-4.73633C106.201-4.73633 106.592-5.07812 106.592-5.56641L106.592-58.3008C106.787-60.6934 98.1445-65.4785 88.8184-65.4785C81.2012-65.4785 75.8301-62.6953 73.584-60.8887L73.584-4.88281C73.7305-4.98047 73.6816-5.0293 73.6816-5.07812C75.1465-6.54297 79.8828-11.1328 88.9648-11.1328Z"/>
  </g>
  <g id="Black-M" transform="matrix(1 0 0 1 2870.97 1126)">
   <path d="M62.4023 18.457C91.9922 18.457 116.113-5.61523 116.113-35.2051C116.113-64.7949 91.9922-88.8672 62.4023-88.8672C32.8125-88.8672 8.74023-64.7949 8.74023-35.2051C8.74023-5.61523 32.8125 18.457 62.4023 18.457ZM62.4023 0.195312C42.8711 0.195312 27.002-15.625 27.002-35.2051C27.002-54.7363 42.8711-70.6055 62.4023-70.6055C81.9824-70.6055 97.8027-54.7363 97.8027-35.2051C97.8027-15.625 81.9824 0.195312 62.4023 0.195312ZM52.9297-17.9199C55.9082-17.9199 58.0078-17.0898 59.1309-16.4062C59.5215-16.1621 60.0586-15.8691 60.3516-15.5762L60.3516-51.2207C58.4473-53.6133 55.0293-55.3223 51.3184-55.3223C45.0684-55.3223 40.8691-52.0996 39.0137-48.6816L39.0137-19.9219C39.0137-16.5527 40.8203-15.1367 43.0664-15.1367C44.4336-15.1367 45.2148-15.5762 46.2891-16.1621C47.3633-16.8945 50.0977-17.9199 52.9297-17.9199ZM71.8262-17.9199C74.6582-17.9199 77.4414-16.8945 78.5156-16.1621C79.4922-15.5762 80.3711-15.1367 81.6895-15.1367C83.9355-15.1367 85.791-16.5039 85.791-19.9219L85.791-48.6816C83.9355-52.0996 79.6875-55.3223 73.4375-55.3223C69.7266-55.3223 66.4062-53.6133 64.4531-51.2207L64.4531-15.5762C64.7949-15.8691 65.332-16.1621 65.6738-16.4062C66.7969-17.0898 68.8477-17.9199 71.8262-17.9199Z"/>
  </g>
  <g id="Heavy-M" transform="matrix(1 0 0 1 2575.19 1126)">
   <path d="M61.5234 17.5293C90.5273 17.5293 114.258-6.20117 114.258-35.2051C114.258-64.2578 90.5273-87.9883 61.4746-87.9883C32.4707-87.9883 8.74023-64.2578 8.74023-35.2051C8.74023-6.20117 32.4707 17.5293 61.5234 17.5293ZM61.5234 1.61133C41.1133 1.61133 24.6582-14.8438 24.6582-35.2051C24.6582-55.6152 41.1133-72.0703 61.4746-72.0703C81.8848-72.0703 98.3398-55.6152 98.3398-35.2051C98.3398-14.8438 81.8848 1.61133 61.5234 1.61133ZM51.416-17.627C54.6875-17.627 56.9336-16.6016 58.1055-15.8691C58.4961-15.625 59.1797-15.2344 59.4727-14.9902L59.4727-51.416C57.6172-54.0039 53.9551-55.9082 49.8535-55.9082C43.7012-55.9082 39.1602-52.7344 37.3535-49.3164L37.3535-18.7988C37.3535-15.8203 38.9648-14.5508 41.0156-14.5508C42.2852-14.5508 43.0176-14.9902 43.9453-15.5762C45.166-16.4551 48.0957-17.627 51.416-17.627ZM71.5332-17.627C74.8535-17.627 77.832-16.4551 79.0039-15.5762C79.8828-14.9902 80.7129-14.5508 81.9336-14.5508C83.9844-14.5508 85.5957-15.7715 85.5957-18.7988L85.5957-49.3164C83.7891-52.7344 79.248-55.9082 73.0957-55.9082C68.9941-55.9082 65.4297-54.0039 63.5254-51.416L63.5254-14.9902C63.8184-15.2344 64.502-15.625 64.8926-15.8691C66.0645-16.6504 68.2617-17.627 71.5332-17.627Z"/>
  </g>
  <g id="Bold-M" transform="matrix(1 0 0 1 2279.5 1126)">
   <path d="M60.498 16.5039C88.8672 16.5039 112.207-6.83594 112.207-35.2051C112.207-63.623 88.8672-86.9629 60.4492-86.9629C32.0312-86.9629 8.74023-63.623 8.74023-35.2051C8.74023-6.83594 32.0801 16.5039 60.498 16.5039ZM60.498 3.22266C39.1602 3.22266 22.0703-13.916 22.0703-35.2051C22.0703-56.543 39.1602-73.6816 60.4492-73.6816C81.7383-73.6816 98.9258-56.543 98.9258-35.2051C98.9746-13.916 81.7871 3.22266 60.498 3.22266ZM49.6582-17.334C53.3203-17.334 55.7129-16.0645 56.9336-15.2832C57.3242-15.0879 58.2031-14.502 58.4961-14.3555L58.4961-51.6113C56.6895-54.4434 52.7832-56.4941 48.2422-56.4941C42.1387-56.4941 37.3047-53.4668 35.5469-50.0488L35.5469-17.5293C35.5469-14.9902 36.9629-13.9648 38.6719-13.9648C39.8438-13.9648 40.5762-14.3555 41.3574-14.8926C42.7246-15.9668 45.8496-17.334 49.6582-17.334ZM71.2402-17.334C75.0488-17.334 78.2227-15.9668 79.541-14.8926C80.3223-14.3555 81.1035-13.9648 82.2266-13.9648C83.9844-13.9648 85.3516-14.9902 85.3516-17.5293L85.3516-50.0488C83.5938-53.4668 78.7598-56.4941 72.6562-56.4941C68.1641-56.4941 64.3066-54.4434 62.4512-51.6113L62.4512-14.3066C62.7441-14.502 63.623-15.0391 64.0137-15.2832C65.2344-16.1133 67.5781-17.334 71.2402-17.334Z"/>
  </g>
  <g id="Semibold-M" transform="matrix(1 0 0 1 1983.5 1126)">
   <path d="M59.7656 15.8203C87.7441 15.8203 110.791-7.27539 110.791-35.2539C110.791-63.2324 87.6953-86.2793 59.7656-86.2793C31.7871-86.2793 8.74023-63.2324 8.74023-35.2539C8.74023-7.27539 31.7871 15.8203 59.7656 15.8203ZM59.7656 4.3457C37.8418 4.3457 20.2637-13.3301 20.2637-35.2539C20.2637-57.1777 37.793-74.8047 59.7656-74.8047C81.6895-74.8047 99.3164-57.1777 99.3652-35.2539C99.3652-13.3301 81.6895 4.3457 59.7656 4.3457ZM48.4863-17.1387C52.3926-17.1387 54.8828-15.7227 56.1523-14.8926C56.543-14.6484 57.5684-14.0137 57.8613-13.916L57.8613-51.8066C56.0547-54.7363 51.9531-56.9336 47.1191-56.9336C41.0645-56.9336 36.0352-53.9551 34.2773-50.5859L34.2773-16.6504C34.2773-14.4043 35.5469-13.5742 37.0605-13.5742C38.1836-13.5742 38.8672-13.916 39.5996-14.4531C41.0156-15.625 44.2871-17.1387 48.4863-17.1387ZM71.0449-17.1387C75.1953-17.1387 78.5156-15.625 79.9316-14.4531C80.6152-13.916 81.3477-13.5742 82.4219-13.5742C83.9844-13.5742 85.2051-14.4043 85.2051-16.6504L85.2051-50.5859C83.4961-53.9551 78.418-56.9336 72.3633-56.9336C67.5781-56.9336 63.5254-54.7363 61.7188-51.8066L61.7188-13.8672C62.0117-13.9648 62.9883-14.6484 63.4277-14.8926C64.6484-15.7227 67.1387-17.1387 71.0449-17.1387Z"/>
  </g>
  <g id="Medium-M" transform="matrix(1 0 0 1 1687.3 1126)">
   <path d="M59.2285 15.2344C86.9141 15.2344 109.766-7.61719 109.766-35.2539C109.766-62.8906 86.8652-85.7422 59.1797-85.7422C31.543-85.7422 8.74023-62.8906 8.74023-35.2539C8.74023-7.61719 31.5918 15.2344 59.2285 15.2344ZM59.2285 5.17578C36.8164 5.17578 18.8965-12.8418 18.8965-35.2539C18.8965-57.666 36.8164-75.6348 59.1797-75.6348C81.5918-75.6348 99.6094-57.666 99.6582-35.2539C99.707-12.8418 81.6406 5.17578 59.2285 5.17578ZM47.5586-16.9434C51.6602-16.9434 54.248-15.4297 55.5664-14.5996C55.957-14.3555 57.0312-13.623 57.3242-13.5742L57.3242-51.9043C55.6152-54.9805 51.3184-57.2266 46.2891-57.2266C40.2344-57.2266 35.0586-54.3457 33.3496-50.9277L33.3496-16.0156C33.3496-14.0137 34.4727-13.2324 35.8887-13.2324C36.9141-13.2324 37.5977-13.5742 38.2324-14.1113C39.6973-15.3809 43.1152-16.9434 47.5586-16.9434ZM70.8496-16.9434C75.3418-16.9434 78.7109-15.3809 80.2246-14.1113C80.8594-13.5742 81.543-13.2324 82.5684-13.2324C83.9844-13.2324 85.1074-13.9648 85.1074-16.0156L85.1074-50.9277C83.3984-54.3457 78.1738-57.2266 72.168-57.2266C67.1387-57.2266 62.9395-54.9805 61.1816-51.9043L61.1816-13.5254C61.4746-13.623 62.5-14.3066 62.9395-14.5996C64.209-15.4785 66.7969-16.9434 70.8496-16.9434Z"/>
  </g>
  <g id="Regular-M" transform="matrix(1 0 0 1 1391.3 1126)">
   <path d="M58.5449 14.5508C85.791 14.5508 108.35-8.05664 108.35-35.2539C108.35-62.5 85.7422-85.0586 58.4961-85.0586C31.2988-85.0586 8.74023-62.5 8.74023-35.2539C8.74023-8.05664 31.3477 14.5508 58.5449 14.5508ZM58.5449 6.25C35.498 6.25 17.0898-12.207 17.0898-35.2539C17.0898-58.3008 35.4492-76.7578 58.4961-76.7578C81.543-76.7578 100-58.3008 100.049-35.2539C100.098-12.207 81.5918 6.25 58.5449 6.25ZM46.3867-16.748C50.7324-16.748 53.418-15.0391 54.7363-14.1602C55.1758-13.9648 56.3965-13.1348 56.6895-13.1348L56.6895-52.0508C54.9805-55.2734 50.4883-57.666 45.166-57.666C39.209-57.666 33.7402-54.834 32.1289-51.4648L32.1289-15.1367C32.1289-13.4277 33.0566-12.8418 34.2773-12.8418C35.2539-12.8418 35.8887-13.1348 36.4746-13.623C38.0371-15.0391 41.5527-16.748 46.3867-16.748ZM70.6543-16.748C75.4883-16.748 79.0039-15.0391 80.5664-13.623C81.1523-13.1348 81.7871-12.8418 82.7637-12.8418C83.9844-12.8418 84.9609-13.4277 84.9609-15.1367L84.9609-51.4648C83.3008-54.834 77.832-57.666 71.875-57.666C66.6016-57.666 62.1582-55.2734 60.4492-52.0508L60.4492-13.0859C60.7422-13.0859 61.8652-13.916 62.3535-14.1602C63.6719-15.0879 66.3574-16.748 70.6543-16.748Z"/>
  </g>
  <g id="Light-M" transform="matrix(1 0 0 1 1095.42 1126)">
   <path d="M57.7148 13.7207C84.5215 13.7207 106.689-8.44727 106.689-35.2539C106.689-62.1094 84.5215-84.2285 57.666-84.2285C30.8594-84.2285 8.74023-62.1094 8.74023-35.2539C8.74023-8.44727 30.9082 13.7207 57.7148 13.7207ZM57.7148 7.37305C34.082 7.37305 15.0879-11.6699 15.0879-35.2539C15.0879-58.8867 34.082-77.9297 57.666-77.9297C81.2988-77.9297 100.342-58.8867 100.391-35.2539C100.391-11.6699 81.3477 7.37305 57.7148 7.37305ZM45.2637-16.6992C50.4395-16.6992 53.418-14.4043 54.6875-13.4766C54.9805-13.2812 55.8105-12.7441 56.0547-12.6953L56.0547-52.9785C54.3457-55.6641 49.9512-57.959 44.4824-57.959C38.0859-57.959 32.2754-54.8828 31.2012-51.9531L31.2012-14.2578C31.2012-12.9395 31.9336-12.4512 32.9102-12.4512C33.6914-12.4512 34.2285-12.6953 34.6191-13.0859C35.8887-14.502 39.7949-16.6992 45.2637-16.6992ZM70.1172-16.6992C75.5859-16.6992 79.4922-14.502 80.7617-13.0859C81.2012-12.6953 81.7383-12.4512 82.5195-12.4512C83.4961-12.4512 84.2285-12.9395 84.2285-14.2578L84.2285-51.9531C83.1543-54.8828 77.2949-57.959 70.9473-57.959C65.4785-57.959 61.1328-55.6641 59.375-52.9785L59.375-12.6465C59.6191-12.6953 60.4004-13.2812 60.7422-13.4766C61.9629-14.4531 64.9902-16.6992 70.1172-16.6992Z"/>
  </g>
  <g id="Thin-M" transform="matrix(1 0 0 1 799.806 1126)">
   <path d="M56.6406 12.5977C82.9102 12.5977 104.492-8.98438 104.492-35.2539C104.492-61.5723 82.9102-83.1543 56.5918-83.1543C30.3223-83.1543 8.74023-61.5723 8.74023-35.2539C8.74023-8.98438 30.3223 12.5977 56.6406 12.5977ZM56.6406 8.88672C32.2266 8.88672 12.4512-10.8887 12.4512-35.2539C12.4512-59.6191 32.2266-79.4434 56.5918-79.4434C81.0059-79.4434 100.781-59.6191 100.781-35.2539C100.781-10.8887 81.0059 8.88672 56.6406 8.88672ZM43.7988-16.6016C50.0488-16.6016 53.4668-13.5742 54.6387-12.5C54.7852-12.4023 55.0781-12.1582 55.2246-12.1094L55.2246-54.248C53.5156-56.1523 49.2676-58.3496 43.5059-58.3496C36.6699-58.3496 30.3223-54.9316 29.9316-52.6367L29.9316-13.0859C29.9316-12.3047 30.4688-11.9629 31.0547-11.9629C31.5918-11.9629 31.9824-12.1094 32.1777-12.4023C33.0566-13.8184 37.4512-16.6016 43.7988-16.6016ZM69.4336-16.6016C75.7812-16.6016 80.1758-13.8184 81.0547-12.4023C81.25-12.1094 81.6406-11.9629 82.1777-11.9629C82.8125-11.9629 83.3008-12.3047 83.3008-13.0859L83.3008-52.6367C82.959-54.9316 76.5625-58.3496 69.7266-58.3496C63.9648-58.3496 59.7656-56.1523 58.0078-54.248L58.0078-12.1094C58.1543-12.1582 58.4473-12.4023 58.5938-12.5C59.7656-13.623 63.1836-16.6016 69.4336-16.6016Z"/>
  </g>
  <g id="Ultralight-M" transform="matrix(1 0 0 1 503.656 1126)">
   <path d="M56.0547 12.0605C82.0801 12.0605 103.369-9.22852 103.369-35.2539C103.369-61.2793 82.0801-82.5684 56.0547-82.5684C30.0293-82.5684 8.74023-61.2793 8.74023-35.2539C8.74023-9.22852 30.0293 12.0605 56.0547 12.0605ZM56.0547 9.66797C31.2988 9.66797 11.1328-10.498 11.1328-35.2539C11.1328-60.0586 31.2988-80.1758 56.0547-80.1758C80.8594-80.1758 100.977-60.0586 100.977-35.2539C100.977-10.498 80.8594 9.66797 56.0547 9.66797ZM43.0176-16.5527C49.8535-16.5527 53.5156-13.1836 54.5898-12.0605C54.6875-11.9629 54.6875-11.8652 54.834-11.8164L54.834-54.8828C53.0762-56.3965 48.9258-58.5938 43.0664-58.5938C35.9375-58.5938 29.2969-54.9805 29.3457-52.9785L29.3457-12.4512C29.3457-11.9629 29.6875-11.6699 30.127-11.6699C30.5176-11.6699 30.8594-11.8164 30.957-12.0605C31.6406-13.4766 36.2793-16.5527 43.0176-16.5527ZM69.0918-16.5527C75.8789-16.5527 80.5176-13.4766 81.2012-12.0605C81.2988-11.8164 81.5918-11.6699 82.0312-11.6699C82.4707-11.6699 82.8125-11.9629 82.8125-12.4512L82.8125-52.9785C82.8613-54.9805 76.2207-58.5938 69.0918-58.5938C63.2324-58.5938 59.0332-56.3965 57.3242-54.8828L57.3242-11.8164C57.4219-11.8652 57.4707-11.9629 57.5195-12.0605C58.6426-13.1836 62.2559-16.5527 69.0918-16.5527Z"/>
  </g>
  <g id="Black-S" transform="matrix(1 0 0 1 2884.57 696)">
   <path d="M48.8281 6.78711C71.9727 6.78711 90.8203-12.0605 90.8203-35.2051C90.8203-58.3496 71.9727-77.1973 48.8281-77.1973C25.6836-77.1973 6.83594-58.3496 6.83594-35.2051C6.83594-12.0605 25.6836 6.78711 48.8281 6.78711ZM48.8281-7.37305C33.4473-7.37305 20.9961-19.8242 20.9961-35.2051C20.9961-50.5859 33.4473-63.0371 48.8281-63.0371C64.209-63.0371 76.6602-50.5859 76.6602-35.2051C76.6602-19.8242 64.209-7.37305 48.8281-7.37305ZM41.3574-21.6309C43.7012-21.6309 45.3613-20.9961 46.2402-20.459C46.5332-20.2637 46.9727-20.0195 47.2168-19.7754L47.2168-47.7539C45.7031-49.6582 43.0176-51.0254 40.0879-51.0254C35.2051-51.0254 31.8848-48.4863 30.4199-45.8008L30.4199-23.1445C30.4199-20.5566 31.8359-19.4336 33.5938-19.4336C34.668-19.4336 35.2539-19.7754 36.084-20.2637C36.9629-20.8496 39.1113-21.6309 41.3574-21.6309ZM56.25-21.6309C58.4961-21.6309 60.6934-20.8496 61.5234-20.2637C62.3047-19.7754 62.9883-19.4336 64.0137-19.4336C65.7715-19.4336 67.1875-20.5078 67.1875-23.1445L67.1875-45.8008C65.7227-48.4863 62.4023-51.0254 57.5195-51.0254C54.5898-51.0254 51.9531-49.6582 50.4395-47.7539L50.4395-19.7754C50.6836-20.0195 51.123-20.2637 51.416-20.459C52.2949-20.9961 53.9062-21.6309 56.25-21.6309Z"/>
  </g>
  <g id="Heavy-S" transform="matrix(1 0 0 1 2588.47 696)">
   <path d="M48.2422 6.15234C70.9961 6.15234 89.5996-12.4512 89.5996-35.2051C89.5996-57.959 70.9961-76.6113 48.1934-76.6113C25.4395-76.6113 6.83594-57.959 6.83594-35.2051C6.83594-12.4512 25.4395 6.15234 48.2422 6.15234ZM48.2422-6.39648C32.2754-6.39648 19.4336-19.2871 19.4336-35.2051C19.4336-51.1719 32.2754-64.0137 48.1934-64.0137C64.1602-64.0137 77.002-51.1719 77.0508-35.2051C77.0508-19.2871 64.1602-6.39648 48.2422-6.39648ZM40.2832-21.4355C42.8223-21.4355 44.5312-20.7031 45.459-20.1172C45.752-19.9219 46.3867-19.5801 46.6309-19.3848L46.6309-47.8027C45.166-49.9023 42.2363-51.416 39.0625-51.416C34.2773-51.416 30.7617-48.9746 29.2969-46.2402L29.2969-22.3633C29.2969-20.0195 30.5664-19.043 32.1777-19.043C33.2031-19.043 33.7402-19.3848 34.5215-19.873C35.498-20.5566 37.7441-21.4355 40.2832-21.4355ZM56.1035-21.4355C58.6426-21.4355 60.9375-20.5566 61.8652-19.873C62.5977-19.3848 63.2324-19.043 64.2578-19.043C65.8203-19.043 67.1387-20.0195 67.1387-22.3633L67.1387-46.2402C65.625-48.9746 62.1094-51.416 57.3242-51.416C54.1504-51.416 51.3184-49.9023 49.8047-47.8027L49.8047-19.3848C50.0977-19.5801 50.6836-19.9219 50.9766-20.1172C51.9043-20.7031 53.6133-21.4355 56.1035-21.4355Z"/>
  </g>
  <g id="Bold-S" transform="matrix(1 0 0 1 2292.44 696)">
   <path d="M47.5586 5.46875C69.873 5.46875 88.2324-12.8906 88.2324-35.2539C88.2324-57.5684 69.873-75.9277 47.5098-75.9277C25.1953-75.9277 6.83594-57.5684 6.83594-35.2539C6.83594-12.8906 25.1953 5.46875 47.5586 5.46875ZM47.5586-5.32227C30.957-5.32227 17.6758-18.6523 17.6758-35.2539C17.6758-51.8066 30.957-65.1367 47.5098-65.1367C64.1113-65.1367 77.4414-51.8066 77.4414-35.2539C77.4414-18.6523 64.1113-5.32227 47.5586-5.32227ZM39.1113-21.1914C41.7969-21.1914 43.6035-20.3613 44.5801-19.7754C44.9219-19.5801 45.7031-19.0918 45.9473-18.9453L45.9473-47.8516C44.5312-50.1953 41.4062-51.8555 37.8906-51.8555C33.2031-51.8555 29.541-49.5605 28.0273-46.7285L28.0273-21.5332C28.0273-19.4824 29.1504-18.6523 30.5664-18.6523C31.543-18.6523 32.0801-18.9453 32.7637-19.4336C33.8867-20.2637 36.2793-21.1914 39.1113-21.1914ZM55.9082-21.1914C58.7891-21.1914 61.1816-20.2637 62.2559-19.4336C62.9395-18.9453 63.5254-18.6523 64.502-18.6523C65.918-18.6523 67.041-19.4336 67.041-21.5332L67.041-46.7285C65.5273-49.5605 61.8164-51.8555 57.1289-51.8555C53.6621-51.8555 50.5859-50.1953 49.1211-47.8516L49.1211-18.9453C49.4141-19.043 50.1465-19.5312 50.4883-19.7754C51.4648-20.3613 53.2715-21.1914 55.9082-21.1914Z"/>
  </g>
  <g id="Semibold-S" transform="matrix(1 0 0 1 1996.2 696)">
   <path d="M47.0703 4.98047C69.0918 4.98047 87.3047-13.1836 87.3047-35.2539C87.3047-57.2754 69.0918-75.4883 47.0215-75.4883C25-75.4883 6.83594-57.2754 6.83594-35.2539C6.83594-13.1836 25.0488 4.98047 47.0703 4.98047ZM47.0703-4.58984C30.0781-4.58984 16.4551-18.2129 16.4551-35.2539C16.4551-52.2461 30.0293-65.8691 47.0215-65.8691C64.0625-65.8691 77.6855-52.2461 77.7344-35.2539C77.7344-18.2129 64.0625-4.58984 47.0703-4.58984ZM38.3301-21.0449C41.1133-21.0449 42.9199-20.1172 43.9941-19.5312C44.3359-19.3359 45.2637-18.75 45.5078-18.6523L45.5078-47.9004C44.0918-50.3906 40.8203-52.1484 37.1094-52.1484C32.4707-52.1484 28.6621-49.9023 27.1484-47.0703L27.1484-20.9473C27.1484-19.0918 28.1738-18.3594 29.4434-18.3594C30.3711-18.3594 30.957-18.6523 31.543-19.0918C32.7637-20.0195 35.2051-21.0449 38.3301-21.0449ZM55.8105-21.0449C58.8867-21.0449 61.3281-20.0195 62.5488-19.0918C63.1348-18.6523 63.7695-18.3594 64.6484-18.3594C65.9668-18.3594 66.9922-19.043 66.9922-20.9473L66.9922-47.0703C65.4297-49.9023 61.6211-52.1484 56.9824-52.1484C53.3203-52.1484 50.0977-50.3906 48.6816-47.9004L48.6816-18.6523C48.9258-18.7012 49.8047-19.2871 50.1953-19.5312C51.1719-20.166 53.0273-21.0449 55.8105-21.0449Z"/>
  </g>
  <g id="Medium-S" transform="matrix(1 0 0 1 1699.83 696)">
   <path d="M46.7285 4.63867C68.5547 4.63867 86.6211-13.4277 86.6211-35.2539C86.6211-57.0801 68.5059-75.1465 46.6797-75.1465C24.8535-75.1465 6.83594-57.0801 6.83594-35.2539C6.83594-13.4277 24.9023 4.63867 46.7285 4.63867ZM46.7285-4.00391C29.3945-4.00391 15.5273-17.9199 15.5273-35.2539C15.5273-52.5879 29.3457-66.4551 46.6797-66.4551C64.0137-66.4551 77.8809-52.5879 77.9297-35.2539C77.9785-17.9199 64.0625-4.00391 46.7285-4.00391ZM37.6953-20.9473C40.5762-20.9473 42.4316-19.9707 43.5059-19.3359C43.8477-19.1406 44.9219-18.5059 45.1172-18.457L45.1172-47.9004C43.7988-50.5371 40.3809-52.3438 36.5234-52.3438C31.9336-52.3438 28.0273-50.1953 26.4648-47.3633L26.4648-20.5078C26.4648-18.75 27.3926-18.1641 28.6133-18.1641C29.4922-18.1641 30.0781-18.457 30.6641-18.8965C31.9336-19.873 34.4238-20.9473 37.6953-20.9473ZM55.7129-20.9473C58.9355-20.9473 61.4746-19.873 62.7441-18.8965C63.3301-18.457 63.916-18.1641 64.7949-18.1641C65.9668-18.1641 66.9434-18.75 66.9434-20.5078L66.9434-47.3633C65.3809-50.1953 61.4746-52.3438 56.8848-52.3438C53.0273-52.3438 49.707-50.5371 48.291-47.9004L48.291-18.4082C48.584-18.457 49.5117-19.0918 49.9512-19.3359C50.9766-19.9707 52.832-20.9473 55.7129-20.9473Z"/>
  </g>
  <g id="Regular-S" transform="matrix(1 0 0 1 1403.58 696)">
   <path d="M46.2402 4.15039C67.7734 4.15039 85.6934-13.7207 85.6934-35.2539C85.6934-56.7871 67.7246-74.6582 46.1914-74.6582C24.707-74.6582 6.83594-56.7871 6.83594-35.2539C6.83594-13.7207 24.7559 4.15039 46.2402 4.15039ZM46.2402-3.27148C28.5156-3.27148 14.3555-17.4805 14.3555-35.2539C14.3555-53.0273 28.4668-67.2363 46.1914-67.2363C63.9648-67.2363 78.1738-53.0273 78.2227-35.2539C78.2715-17.4805 64.0137-3.27148 46.2402-3.27148ZM36.8652-20.8008C39.8926-20.8008 41.7969-19.7266 42.9199-19.0918C43.2617-18.8965 44.4336-18.1641 44.6777-18.1641L44.6777-47.9492C43.3594-50.7324 39.7949-52.6367 35.7422-52.6367C31.25-52.6367 27.1484-50.5859 25.5859-47.7051L25.5859-19.9219C25.5859-18.3594 26.416-17.8711 27.5391-17.8711C28.3691-17.8711 28.9551-18.1641 29.4434-18.5547C30.8105-19.6289 33.3984-20.8008 36.8652-20.8008ZM55.5664-20.8008C59.0332-20.8008 61.6699-19.6289 63.0371-18.5547C63.5254-18.1641 64.1113-17.8711 64.9414-17.8711C66.0156-17.8711 66.8945-18.3594 66.8945-19.9219L66.8945-47.7051C65.332-50.5859 61.2305-52.6367 56.7383-52.6367C52.6855-52.6367 49.2188-50.7324 47.8516-47.9492L47.8516-18.1152C48.0957-18.1152 49.1699-18.8477 49.6094-19.0918C50.6836-19.7754 52.6367-20.8008 55.5664-20.8008Z"/>
  </g>
  <g id="Light-S" transform="matrix(1 0 0 1 1107.6 696)">
   <path d="M45.5078 3.41797C66.6992 3.41797 84.2285-14.0625 84.2285-35.2539C84.2285-56.4453 66.6504-73.9258 45.5078-73.9258C24.3164-73.9258 6.83594-56.4453 6.83594-35.2539C6.83594-14.0625 24.3652 3.41797 45.5078 3.41797ZM45.5078-2.29492C27.2461-2.29492 12.5977-16.9922 12.5977-35.2539C12.5977-53.5156 27.1973-68.2129 45.5078-68.2129C63.7695-68.2129 78.4668-53.5156 78.5156-35.2539C78.5156-16.9922 63.8184-2.29492 45.5078-2.29492ZM35.8887-20.752C39.6484-20.752 41.8457-19.1895 42.8711-18.457C43.1152-18.3105 43.9453-17.7734 44.1406-17.7246L44.1406-48.7793C42.8223-51.0742 39.3555-52.9297 35.1074-52.9297C30.2734-52.9297 25.8301-50.6348 24.7559-48.1445L24.7559-19.1406C24.7559-17.9688 25.4395-17.5293 26.2695-17.5293C26.9531-17.5293 27.4414-17.7246 27.832-18.1152C28.9062-19.1895 31.8359-20.752 35.8887-20.752ZM55.127-20.752C59.1797-20.752 62.1094-19.1895 63.1836-18.1152C63.5742-17.7246 64.0625-17.5293 64.7461-17.5293C65.5762-17.5293 66.2598-17.9688 66.2598-19.1406L66.2598-48.1445C65.1855-50.6348 60.7422-52.9297 55.9082-52.9297C51.709-52.9297 48.291-51.0742 46.9238-48.7793L46.9238-17.7246C47.1191-17.7246 47.9004-18.2617 48.1934-18.457C49.1699-19.1895 51.416-20.752 55.127-20.752Z"/>
  </g>
  <g id="Thin-S" transform="matrix(1 0 0 1 811.867 696)">
   <path d="M44.5801 2.49023C65.2832 2.49023 82.2754-14.5508 82.2754-35.2539C82.2754-55.957 65.2344-72.998 44.5312-72.998C23.8281-72.998 6.83594-55.957 6.83594-35.2539C6.83594-14.5508 23.877 2.49023 44.5801 2.49023ZM44.5801-0.927734C25.5859-0.927734 10.2539-16.3086 10.2539-35.2539C10.2539-54.1992 25.5859-69.5801 44.5312-69.5801C63.5254-69.5801 78.8574-54.1992 78.8574-35.2539C78.8574-16.3086 63.5254-0.927734 44.5801-0.927734ZM34.5703-20.6543C39.3066-20.6543 41.8945-18.457 42.8223-17.627C42.9688-17.5293 43.3105-17.2852 43.4082-17.2363L43.4082-49.9023C42.0898-51.5137 38.7207-53.2715 34.2773-53.2715C29.0039-53.2715 24.1211-50.6348 23.6816-48.7305L23.6816-18.1152C23.6816-17.3828 24.1211-17.0898 24.6582-17.0898C25.1465-17.0898 25.4883-17.2363 25.6836-17.4805C26.416-18.6035 29.7852-20.6543 34.5703-20.6543ZM54.541-20.6543C59.3262-20.6543 62.6465-18.6035 63.4277-17.4805C63.623-17.2363 63.9648-17.0898 64.4531-17.0898C64.9902-17.0898 65.4297-17.3828 65.4297-18.1152L65.4297-48.7305C64.9902-50.6348 60.1074-53.2715 54.834-53.2715C50.3906-53.2715 47.0703-51.5137 45.7031-49.9023L45.7031-17.2363C45.8496-17.2363 46.1426-17.5293 46.2891-17.627C47.2168-18.457 49.8535-20.6543 54.541-20.6543Z"/>
  </g>
  <g id="Ultralight-S" transform="matrix(1 0 0 1 515.644 696)">
   <path d="M44.043 1.95312C64.502 1.95312 81.2988-14.7949 81.2988-35.2539C81.2988-55.7129 64.502-72.4609 44.043-72.4609C23.584-72.4609 6.83594-55.7129 6.83594-35.2539C6.83594-14.7949 23.584 1.95312 44.043 1.95312ZM44.043-0.244141C24.7559-0.244141 9.08203-15.9668 9.08203-35.2539C9.08203-54.541 24.7559-70.2637 44.043-70.2637C63.3789-70.2637 79.0527-54.541 79.0527-35.2539C79.0527-15.9668 63.3789-0.244141 44.043-0.244141ZM33.8867-20.6055C39.1113-20.6055 41.8945-18.0664 42.7734-17.1875C42.8223-17.1387 42.9688-16.9922 43.0664-16.9434L43.0664-50.4395C41.6992-51.7578 38.3789-53.4668 33.8379-53.4668C28.3203-53.4668 23.1934-50.6836 23.1445-49.0723L23.1445-17.5781C23.1445-17.0898 23.4375-16.8457 23.8281-16.8457C24.1699-16.8457 24.4629-16.9434 24.5605-17.1387C25.1465-18.2617 28.7109-20.6055 33.8867-20.6055ZM54.1992-20.6055C59.4238-20.6055 62.9883-18.2617 63.5254-17.1387C63.6719-16.9434 63.916-16.8457 64.3066-16.8457C64.6484-16.8457 64.9902-17.0898 64.9902-17.5781L64.9902-49.0723C64.8926-50.6836 59.8145-53.4668 54.2969-53.4668C49.707-53.4668 46.4355-51.7578 45.0684-50.4395L45.0684-16.9434C45.166-16.9922 45.2637-17.1387 45.3613-17.1875C46.2402-18.0664 49.0234-20.6055 54.1992-20.6055Z"/>
  </g>
 </g>
</svg>
