<?xml version="1.0" encoding="UTF-8"?>
<!--Generator: Apple Native CoreSVG 149-->
<!DOCTYPE svg
PUBLIC "-//W3C//DTD SVG 1.1//EN"
       "http://www.w3.org/Graphics/SVG/1.1/DTD/svg11.dtd">
<svg version="1.1" xmlns="http://www.w3.org/2000/svg" xmlns:xlink="http://www.w3.org/1999/xlink" width="3300" height="2200">
 <!--glyph: "uni10020E.medium", point size: 100.000000, font version: "Version 16.0d12e3", template writer version: "8"-->
 <g id="Notes">
  <rect height="2200" id="artboard" style="fill:white;opacity:1" width="3300" x="0" y="0"/>
  <line id="" style="fill:none;stroke:black;opacity:1;stroke-width:0.5;" x1="263" x2="3036" y1="292" y2="292"/>
  <text style="stroke:none;fill:black;font-family:-apple-system,&quot;SF Pro Display&quot;,&quot;SF Pro Text&quot;,Helvetica,sans-serif;font-weight:bold;" transform="matrix(1 0 0 1 263 322)">Weight/Scale Variations</text>
  <text style="stroke:none;fill:black;font-family:-apple-system,&quot;SF Pro Display&quot;,&quot;SF Pro Text&quot;,Helvetica,sans-serif;text-anchor:middle;" transform="matrix(1 0 0 1 559.711 322)">Ultralight</text>
  <text style="stroke:none;fill:black;font-family:-apple-system,&quot;SF Pro Display&quot;,&quot;SF Pro Text&quot;,Helvetica,sans-serif;text-anchor:middle;" transform="matrix(1 0 0 1 856.422 322)">Thin</text>
  <text style="stroke:none;fill:black;font-family:-apple-system,&quot;SF Pro Display&quot;,&quot;SF Pro Text&quot;,Helvetica,sans-serif;text-anchor:middle;" transform="matrix(1 0 0 1 1153.13 322)">Light</text>
  <text style="stroke:none;fill:black;font-family:-apple-system,&quot;SF Pro Display&quot;,&quot;SF Pro Text&quot;,Helvetica,sans-serif;text-anchor:middle;" transform="matrix(1 0 0 1 1449.84 322)">Regular</text>
  <text style="stroke:none;fill:black;font-family:-apple-system,&quot;SF Pro Display&quot;,&quot;SF Pro Text&quot;,Helvetica,sans-serif;text-anchor:middle;" transform="matrix(1 0 0 1 1746.56 322)">Medium</text>
  <text style="stroke:none;fill:black;font-family:-apple-system,&quot;SF Pro Display&quot;,&quot;SF Pro Text&quot;,Helvetica,sans-serif;text-anchor:middle;" transform="matrix(1 0 0 1 2043.27 322)">Semibold</text>
  <text style="stroke:none;fill:black;font-family:-apple-system,&quot;SF Pro Display&quot;,&quot;SF Pro Text&quot;,Helvetica,sans-serif;text-anchor:middle;" transform="matrix(1 0 0 1 2339.98 322)">Bold</text>
  <text style="stroke:none;fill:black;font-family:-apple-system,&quot;SF Pro Display&quot;,&quot;SF Pro Text&quot;,Helvetica,sans-serif;text-anchor:middle;" transform="matrix(1 0 0 1 2636.69 322)">Heavy</text>
  <text style="stroke:none;fill:black;font-family:-apple-system,&quot;SF Pro Display&quot;,&quot;SF Pro Text&quot;,Helvetica,sans-serif;text-anchor:middle;" transform="matrix(1 0 0 1 2933.4 322)">Black</text>
  <line id="" style="fill:none;stroke:black;opacity:1;stroke-width:0.5;" x1="263" x2="3036" y1="1903" y2="1903"/>
  <g id="" transform="matrix(1 0 0 1 263 1933)">
   <path d="M9.24805 0.830078C13.5547 0.830078 17.1387-2.74414 17.1387-7.05078C17.1387-11.3574 13.5449-14.9316 9.23828-14.9316C4.94141-14.9316 1.36719-11.3574 1.36719-7.05078C1.36719-2.74414 4.95117 0.830078 9.24805 0.830078ZM9.24805-0.654297C5.70312-0.654297 2.87109-3.49609 2.87109-7.05078C2.87109-10.6055 5.69336-13.4473 9.23828-13.4473C12.793-13.4473 15.6348-10.6055 15.6445-7.05078C15.6543-3.49609 12.8027-0.654297 9.24805-0.654297ZM9.22852-3.62305C9.69727-3.62305 9.9707-3.93555 9.9707-4.45312L9.9707-6.31836L12.002-6.31836C12.5-6.31836 12.832-6.57227 12.832-7.04102C12.832-7.51953 12.5195-7.7832 12.002-7.7832L9.9707-7.7832L9.9707-9.81445C9.9707-10.332 9.69727-10.6543 9.22852-10.6543C8.75977-10.6543 8.50586-10.3125 8.50586-9.81445L8.50586-7.7832L6.49414-7.7832C5.97656-7.7832 5.64453-7.51953 5.64453-7.04102C5.64453-6.57227 5.99609-6.31836 6.49414-6.31836L8.50586-6.31836L8.50586-4.45312C8.50586-3.95508 8.75977-3.62305 9.22852-3.62305Z"/>
  </g>
  <g id="" transform="matrix(1 0 0 1 281.506 1933)">
   <path d="M11.709 2.91016C17.1582 2.91016 21.6699-1.61133 21.6699-7.05078C21.6699-12.5 17.1484-17.0117 11.6992-17.0117C6.25977-17.0117 1.74805-12.5 1.74805-7.05078C1.74805-1.61133 6.26953 2.91016 11.709 2.91016ZM11.709 1.25C7.09961 1.25 3.41797-2.44141 3.41797-7.05078C3.41797-11.6602 7.08984-15.3516 11.6992-15.3516C16.3086-15.3516 20-11.6602 20.0098-7.05078C20.0195-2.44141 16.3184 1.25 11.709 1.25ZM11.6797-2.66602C12.207-2.66602 12.5098-3.01758 12.5098-3.59375L12.5098-6.23047L15.3223-6.23047C15.8691-6.23047 16.25-6.51367 16.25-7.03125C16.25-7.55859 15.8887-7.86133 15.3223-7.86133L12.5098-7.86133L12.5098-10.6836C12.5098-11.25 12.207-11.6113 11.6797-11.6113C11.1621-11.6113 10.8789-11.2305 10.8789-10.6836L10.8789-7.86133L8.07617-7.86133C7.50977-7.86133 7.13867-7.55859 7.13867-7.03125C7.13867-6.51367 7.5293-6.23047 8.07617-6.23047L10.8789-6.23047L10.8789-3.59375C10.8789-3.03711 11.1621-2.66602 11.6797-2.66602Z"/>
  </g>
  <g id="" transform="matrix(1 0 0 1 304.924 1933)">
   <path d="M14.9707 5.66406C21.9336 5.66406 27.6953-0.0976562 27.6953-7.05078C27.6953-14.0137 21.9238-19.7754 14.9609-19.7754C8.00781-19.7754 2.25586-14.0137 2.25586-7.05078C2.25586-0.0976562 8.01758 5.66406 14.9707 5.66406ZM14.9707 3.84766C8.93555 3.84766 4.08203-1.01562 4.08203-7.05078C4.08203-13.0957 8.92578-17.9492 14.9609-17.9492C21.0059-17.9492 25.8594-13.0957 25.8691-7.05078C25.8789-1.01562 21.0156 3.84766 14.9707 3.84766ZM14.9414-1.38672C15.5176-1.38672 15.8594-1.77734 15.8594-2.38281L15.8594-6.13281L19.7754-6.13281C20.3711-6.13281 20.7812-6.46484 20.7812-7.02148C20.7812-7.59766 20.3906-7.93945 19.7754-7.93945L15.8594-7.93945L15.8594-11.8652C15.8594-12.4805 15.5176-12.8711 14.9414-12.8711C14.375-12.8711 14.0527-12.4609 14.0527-11.8652L14.0527-7.93945L10.1465-7.93945C9.53125-7.93945 9.13086-7.59766 9.13086-7.02148C9.13086-6.46484 9.55078-6.13281 10.1465-6.13281L14.0527-6.13281L14.0527-2.38281C14.0527-1.79688 14.375-1.38672 14.9414-1.38672Z"/>
  </g>
  <text style="stroke:none;fill:black;font-family:-apple-system,&quot;SF Pro Display&quot;,&quot;SF Pro Text&quot;,Helvetica,sans-serif;font-weight:bold;" transform="matrix(1 0 0 1 263 1953)">Design Variations</text>
  <text style="stroke:none;fill:black;font-family:-apple-system,&quot;SF Pro Display&quot;,&quot;SF Pro Text&quot;,Helvetica,sans-serif;" transform="matrix(1 0 0 1 263 1971)">Symbols are supported in up to nine weights and three scales.</text>
  <text style="stroke:none;fill:black;font-family:-apple-system,&quot;SF Pro Display&quot;,&quot;SF Pro Text&quot;,Helvetica,sans-serif;" transform="matrix(1 0 0 1 263 1989)">For optimal layout with text and other symbols, vertically align</text>
  <text style="stroke:none;fill:black;font-family:-apple-system,&quot;SF Pro Display&quot;,&quot;SF Pro Text&quot;,Helvetica,sans-serif;" transform="matrix(1 0 0 1 263 2007)">symbols with the adjacent text.</text>
  <line id="" style="fill:none;stroke:#00AEEF;stroke-width:0.5;opacity:1.0;" x1="776" x2="776" y1="1919" y2="1933"/>
  <g id="" transform="matrix(1 0 0 1 776 1933)">
   <path d="M3.31055 0.126953C3.82812 0.126953 4.08203-0.0683594 4.26758-0.605469L5.52734-4.0625L11.2891-4.0625L12.5488-0.605469C12.7344-0.0683594 12.9883 0.126953 13.4961 0.126953C14.0137 0.126953 14.3457-0.185547 14.3457-0.673828C14.3457-0.839844 14.3164-0.986328 14.2383-1.20117L9.6582-13.3887C9.43359-13.9941 9.0332-14.2871 8.4082-14.2871C7.80273-14.2871 7.39258-13.9941 7.17773-13.3984L2.59766-1.19141C2.51953-0.976562 2.49023-0.830078 2.49023-0.664062C2.49023-0.175781 2.80273 0.126953 3.31055 0.126953ZM6.00586-5.53711L8.37891-12.1094L8.42773-12.1094L10.8008-5.53711Z"/>
  </g>
  <line id="" style="fill:none;stroke:#00AEEF;stroke-width:0.5;opacity:1.0;" x1="792.836" x2="792.836" y1="1919" y2="1933"/>
  <text style="stroke:none;fill:black;font-family:-apple-system,&quot;SF Pro Display&quot;,&quot;SF Pro Text&quot;,Helvetica,sans-serif;font-weight:bold;" transform="matrix(1 0 0 1 776 1953)">Margins</text>
  <text style="stroke:none;fill:black;font-family:-apple-system,&quot;SF Pro Display&quot;,&quot;SF Pro Text&quot;,Helvetica,sans-serif;" transform="matrix(1 0 0 1 776 1971)">Leading and trailing margins on the left and right side of each symbol</text>
  <text style="stroke:none;fill:black;font-family:-apple-system,&quot;SF Pro Display&quot;,&quot;SF Pro Text&quot;,Helvetica,sans-serif;" transform="matrix(1 0 0 1 776 1989)">can be adjusted by modifying the x-location of the margin guidelines.</text>
  <text style="stroke:none;fill:black;font-family:-apple-system,&quot;SF Pro Display&quot;,&quot;SF Pro Text&quot;,Helvetica,sans-serif;" transform="matrix(1 0 0 1 776 2007)">Modifications are automatically applied proportionally to all</text>
  <text style="stroke:none;fill:black;font-family:-apple-system,&quot;SF Pro Display&quot;,&quot;SF Pro Text&quot;,Helvetica,sans-serif;" transform="matrix(1 0 0 1 776 2025)">scales and weights.</text>
  <g id="" transform="matrix(1 0 0 1 1289 1933)">
   <path d="M2.8418 1.86523L4.54102 3.57422C5.40039 4.44336 6.38672 4.38477 7.31445 3.35938L17.4902-7.85156C17.7539-7.76367 18.0273-7.7832 18.3398-7.8418L19.4043-8.03711L20.0684-7.36328L20.0293-6.80664C19.9902-6.30859 20.1172-5.92773 20.6055-5.44922L21.3672-4.70703C21.8457-4.22852 22.4609-4.19922 22.9297-4.66797L25.8398-7.58789C26.3086-8.05664 26.2891-8.65234 25.8105-9.13086L25.0391-9.89258C24.5605-10.3711 24.1895-10.5273 23.7109-10.4883L23.1348-10.4395L22.4902-11.0742L22.7344-12.1973C22.8613-12.7637 22.7051-13.2031 22.1191-13.7891L19.9219-15.9766C16.582-19.2969 12.1484-19.2188 9.25781-16.3281C8.83789-15.918 8.80859-15.3418 9.04297-14.9512C9.27734-14.5898 9.73633-14.3555 10.3809-14.5215C11.8457-14.8633 13.3691-14.9219 14.7949-13.9844L14.209-12.5293C14.0137-12.0508 13.9844-11.6504 14.1113-11.2891L3.04688-0.898438C2.06055 0.0195312 1.98242 0.996094 2.8418 1.86523ZM10.752-15.957C13.1836-17.7344 16.4746-17.4316 18.7012-15.2051L21.1328-12.793C21.3672-12.5586 21.4062-12.373 21.3379-12.0312L21.0156-10.5469L22.5195-9.0625L23.5059-9.12109C23.7598-9.13086 23.8379-9.11133 24.0332-8.91602L24.6094-8.33984L22.168-5.89844L21.5918-6.47461C21.3965-6.66992 21.3672-6.74805 21.377-7.01172L21.4453-7.98828L19.9512-9.47266L18.4277-9.21875C18.1055-9.15039 17.959-9.17969 17.7148-9.41406L15.7129-11.416C15.459-11.6504 15.4297-11.8164 15.5859-12.1875L16.4648-14.2773C14.9023-15.7324 12.8711-16.3574 10.8398-15.7617C10.6836-15.7227 10.625-15.8496 10.752-15.957ZM5.27344 2.30469L4.10156 1.14258C3.63281 0.683594 3.74023 0.341797 4.14062-0.0195312L14.9512-10.1953L16.416-8.71094L6.42578 2.27539C6.07422 2.67578 5.74219 2.77344 5.27344 2.30469Z"/>
  </g>
  <text style="stroke:none;fill:black;font-family:-apple-system,&quot;SF Pro Display&quot;,&quot;SF Pro Text&quot;,Helvetica,sans-serif;font-weight:bold;" transform="matrix(1 0 0 1 1289 1953)">Exporting</text>
  <text style="stroke:none;fill:black;font-family:-apple-system,&quot;SF Pro Display&quot;,&quot;SF Pro Text&quot;,Helvetica,sans-serif;" transform="matrix(1 0 0 1 1289 1971)">Symbols should be outlined when exporting to ensure the</text>
  <text style="stroke:none;fill:black;font-family:-apple-system,&quot;SF Pro Display&quot;,&quot;SF Pro Text&quot;,Helvetica,sans-serif;" transform="matrix(1 0 0 1 1289 1989)">design is preserved when submitting to Xcode.</text>
  <text id="template-version" style="stroke:none;fill:black;font-family:-apple-system,&quot;SF Pro Display&quot;,&quot;SF Pro Text&quot;,Helvetica,sans-serif;text-anchor:end;" transform="matrix(1 0 0 1 3036 1933)">Template v.2.0</text>
  <text style="stroke:none;fill:black;font-family:-apple-system,&quot;SF Pro Display&quot;,&quot;SF Pro Text&quot;,Helvetica,sans-serif;text-anchor:end;" transform="matrix(1 0 0 1 3036 1951)">Requires Xcode 12 or greater</text>
  <text style="stroke:none;fill:black;font-family:-apple-system,&quot;SF Pro Display&quot;,&quot;SF Pro Text&quot;,Helvetica,sans-serif;text-anchor:end;" transform="matrix(1 0 0 1 3036 1969)">Generated from square.and.pencil</text>
  <text style="stroke:none;fill:black;font-family:-apple-system,&quot;SF Pro Display&quot;,&quot;SF Pro Text&quot;,Helvetica,sans-serif;text-anchor:end;" transform="matrix(1 0 0 1 3036 1987)">Typeset at 100 points</text>
  <text style="stroke:none;fill:black;font-family:-apple-system,&quot;SF Pro Display&quot;,&quot;SF Pro Text&quot;,Helvetica,sans-serif;" transform="matrix(1 0 0 1 263 726)">Small</text>
  <text style="stroke:none;fill:black;font-family:-apple-system,&quot;SF Pro Display&quot;,&quot;SF Pro Text&quot;,Helvetica,sans-serif;" transform="matrix(1 0 0 1 263 1156)">Medium</text>
  <text style="stroke:none;fill:black;font-family:-apple-system,&quot;SF Pro Display&quot;,&quot;SF Pro Text&quot;,Helvetica,sans-serif;" transform="matrix(1 0 0 1 263 1586)">Large</text>
 </g>
 <g id="Guides">
  <g id="H-reference" style="fill:#27AAE1;stroke:none;" transform="matrix(1 0 0 1 339 696)">
   <path d="M0.976562 0L3.66211 0L12.9883-24.4629L45.752-24.4629L55.127 0L57.7637 0L30.6152-70.459L28.125-70.459ZM29.3457-67.1387L29.4434-67.1387L44.873-26.709L13.8672-26.709Z"/>
  </g>
  <line id="Baseline-S" style="fill:none;stroke:#27AAE1;opacity:1;stroke-width:0.5;" x1="263" x2="3036" y1="696" y2="696"/>
  <line id="Capline-S" style="fill:none;stroke:#27AAE1;opacity:1;stroke-width:0.5;" x1="263" x2="3036" y1="625.541" y2="625.541"/>
  <g id="H-reference" style="fill:#27AAE1;stroke:none;" transform="matrix(1 0 0 1 339 1126)">
   <path d="M0.976562 0L3.66211 0L12.9883-24.4629L45.752-24.4629L55.127 0L57.7637 0L30.6152-70.459L28.125-70.459ZM29.3457-67.1387L29.4434-67.1387L44.873-26.709L13.8672-26.709Z"/>
  </g>
  <line id="Baseline-M" style="fill:none;stroke:#27AAE1;opacity:1;stroke-width:0.5;" x1="263" x2="3036" y1="1126" y2="1126"/>
  <line id="Capline-M" style="fill:none;stroke:#27AAE1;opacity:1;stroke-width:0.5;" x1="263" x2="3036" y1="1055.54" y2="1055.54"/>
  <g id="H-reference" style="fill:#27AAE1;stroke:none;" transform="matrix(1 0 0 1 339 1556)">
   <path d="M0.976562 0L3.66211 0L12.9883-24.4629L45.752-24.4629L55.127 0L57.7637 0L30.6152-70.459L28.125-70.459ZM29.3457-67.1387L29.4434-67.1387L44.873-26.709L13.8672-26.709Z"/>
  </g>
  <line id="Baseline-L" style="fill:none;stroke:#27AAE1;opacity:1;stroke-width:0.5;" x1="263" x2="3036" y1="1556" y2="1556"/>
  <line id="Capline-L" style="fill:none;stroke:#27AAE1;opacity:1;stroke-width:0.5;" x1="263" x2="3036" y1="1485.54" y2="1485.54"/>
  <line id="left-margin" style="fill:none;stroke:#00AEEF;stroke-width:0.5;opacity:1.0;" x1="1389.1" x2="1389.1" y1="1030.79" y2="1150.12"/>
  <line id="right-margin" style="fill:none;stroke:#00AEEF;stroke-width:0.5;opacity:1.0;" x1="1510.59" x2="1510.59" y1="1030.79" y2="1150.12"/>
 </g>
 <g id="Symbols">
  <g id="Black-L" transform="matrix(1 0 0 1 2852.25 1556)">
   <path d="M143.604-81.9824L149.17-87.8906C152.344-91.2598 152.832-96.2402 149.658-99.5605L147.363-101.953C144.629-104.785 139.551-103.955 136.279-100.781L130.469-95.166ZM45.6543 26.5137L117.285 26.5137C131.885 26.5137 140.527 17.8711 140.527 2.68555L140.527-61.3281L120.312-41.0645L120.312-0.146484C120.312 4.39453 118.164 6.29883 114.551 6.29883L48.3887 6.29883C44.1406 6.29883 41.9922 4.39453 41.9922-0.146484L41.9922-65.625C41.9922-70.166 44.1406-72.0703 48.3887-72.0703L89.7461-72.0703L110.01-92.2852L45.6543-92.2852C30.4199-92.2852 21.7285-83.6914 21.7285-68.457L21.7285 2.68555C21.7285 17.8711 30.4199 26.5137 45.6543 26.5137ZM72.1191-19.6289L87.0117-25.3906L139.209-77.5879L126.025-90.7227L73.877-38.5254L68.0176-23.7793C66.9922-21.0938 69.7754-18.75 72.1191-19.6289Z"/>
  </g>
  <g id="Heavy-L" transform="matrix(1 0 0 1 2556.34 1556)">
   <path d="M142.822-83.3496L148.047-88.8672C150.977-91.9434 151.367-96.3867 148.438-99.3652L146.436-101.465C143.896-104.102 139.355-103.418 136.377-100.537L130.957-95.2637ZM44.7266 25.4395L116.846 25.4395C130.615 25.4395 138.721 17.334 138.721 2.7832L138.721-62.0117L121.24-44.4824L121.24 0.488281C121.24 5.61523 118.652 7.91016 114.697 7.91016L46.8262 7.91016C41.9922 7.91016 39.4531 5.61523 39.4531 0.488281L39.4531-66.4062C39.4531-71.5332 41.9922-73.8281 46.8262-73.8281L92.334-73.8281L109.814-91.3086L44.7266-91.3086C30.0781-91.3086 21.9727-83.252 21.9727-68.7012L21.9727 2.7832C21.9727 17.334 30.0781 25.4395 44.7266 25.4395ZM70.6055-19.5801L84.668-25.1953L138.428-78.9551L126.514-90.7715L72.8027-37.0605L67.0898-23.1934C66.1621-20.8984 68.6035-18.8477 70.6055-19.5801Z"/>
  </g>
  <g id="Bold-L" transform="matrix(1 0 0 1 2260.53 1556)">
   <path d="M141.895-84.8145L146.826-89.9414C149.463-92.6758 149.707-96.5332 147.119-99.1699L145.361-100.977C143.066-103.32 139.111-102.783 136.523-100.244L131.445-95.3125ZM68.8965-19.5312L82.0312-24.9512L137.5-80.4199L127.051-90.8691L71.582-35.3516L66.0156-22.5098C65.2832-20.7031 67.2363-18.8965 68.8965-19.5312ZM43.6523 24.2188L116.309 24.2188C129.199 24.2188 136.67 16.6992 136.67 2.92969L136.67-62.7441L122.217-48.291L122.217 1.26953C122.217 7.03125 119.238 9.76562 114.844 9.76562L45.1172 9.76562C39.5996 9.76562 36.6699 7.03125 36.6699 1.26953L36.6699-67.2852C36.6699-73.0469 39.5996-75.8301 45.1172-75.8301L95.166-75.8301L109.619-90.2344L43.6523-90.2344C29.7363-90.2344 22.2168-82.7637 22.2168-68.9453L22.2168 2.92969C22.2168 16.748 29.7363 24.2188 43.6523 24.2188Z"/>
  </g>
  <g id="Semibold-L" transform="matrix(1 0 0 1 1964.43 1556)">
   <path d="M141.309-85.8398L145.947-90.6738C148.389-93.2129 148.535-96.6309 146.191-99.0234L144.629-100.635C142.529-102.783 138.965-102.393 136.621-100.049L131.836-95.3613ZM67.7734-19.5312L80.2246-24.8047L136.914-81.4453L127.393-90.8691L70.8008-34.2285L65.2832-22.0703C64.6484-20.5566 66.3086-18.9453 67.7734-19.5312ZM42.9688 23.3887L115.918 23.3887C128.174 23.3887 135.303 16.3086 135.303 2.97852L135.303-63.2812L122.949-50.9277L122.949 1.75781C122.949 7.95898 119.629 11.0352 114.941 11.0352L43.9453 11.0352C37.9395 11.0352 34.7168 7.95898 34.7168 1.75781L34.7168-67.8711C34.7168-74.1211 37.9395-77.1973 43.9453-77.1973L97.168-77.1973L109.521-89.502L42.9688-89.502C29.541-89.502 22.3633-82.4707 22.3633-69.0918L22.3633 2.97852C22.3633 16.3086 29.541 23.3887 42.9688 23.3887Z"/>
  </g>
  <g id="Medium-L" transform="matrix(1 0 0 1 1668.19 1556)">
   <path d="M140.82-86.6211L145.312-91.2109C147.559-93.5547 147.705-96.6797 145.459-98.9258L144.092-100.342C142.09-102.393 138.867-102.051 136.67-99.8535L132.08-95.3613ZM66.8945-19.4824L78.8574-24.6582L136.426-82.2266L127.686-90.918L70.166-33.3496L64.7461-21.7285C64.1602-20.459 65.5762-18.9941 66.8945-19.4824ZM42.3828 22.7539L115.674 22.7539C127.441 22.7539 134.229 15.9668 134.229 3.02734L134.229-63.6719L123.486-52.9297L123.486 2.14844C123.486 8.69141 119.922 12.0117 115.039 12.0117L43.0176 12.0117C36.6699 12.0117 33.252 8.69141 33.252 2.14844L33.252-68.3594C33.252-74.9023 36.6699-78.2227 43.0176-78.2227L98.6816-78.2227L109.375-88.9648L42.3828-88.9648C29.3457-88.9648 22.5098-82.2266 22.5098-69.2383L22.5098 3.02734C22.5098 16.0156 29.3457 22.7539 42.3828 22.7539Z"/>
  </g>
  <g id="Regular-L" transform="matrix(1 0 0 1 1372.09 1556)">
   <path d="M140.234-87.5977L144.482-91.9922C146.533-94.0918 146.582-96.7773 144.58-98.7793L143.359-100C141.504-101.855 138.721-101.611 136.768-99.6582L132.471-95.4102ZM65.7227-19.4824L77.0508-24.5117L135.791-83.252L128.027-90.9668L69.3359-32.2266L64.0137-21.2402C63.5254-20.3125 64.6973-19.043 65.7227-19.4824ZM41.6992 21.9238L115.283 21.9238C126.465 21.9238 132.812 15.5273 132.812 3.125L132.812-64.1602L124.17-55.5176L124.17 2.63672C124.17 9.66797 120.361 13.2812 115.137 13.2812L41.8457 13.2812C35.0586 13.2812 31.3477 9.66797 31.3477 2.63672L31.3477-68.9453C31.3477-75.9766 35.0586-79.5898 41.8457-79.5898L100.586-79.5898L109.277-88.2324L41.6992-88.2324C29.1016-88.2324 22.7051-81.8848 22.7051-69.3848L22.7051 3.125C22.7051 15.625 29.1016 21.9238 41.6992 21.9238Z"/>
  </g>
  <g id="Light-L" transform="matrix(1 0 0 1 1076.25 1556)">
   <path d="M139.062-88.5254L142.969-92.4316C144.922-94.4336 144.971-96.7285 143.115-98.584L142.285-99.3652C140.576-101.074 138.184-100.879 136.328-99.0723L132.471-95.166ZM66.3086-21.2402L76.3672-25.8789L135.059-84.5215L128.418-91.1133L69.7754-32.4707L64.8926-22.6562C64.502-21.875 65.4297-20.8496 66.3086-21.2402ZM40.8203 20.9473L113.916 20.9473C124.854 20.9473 130.957 14.7461 130.957 3.07617L130.957-64.1113L124.316-57.4707L124.316 2.73438C124.316 10.3516 120.117 14.3066 113.721 14.3066L40.9668 14.3066C33.4473 14.3066 29.4434 10.3516 29.4434 2.73438L29.4434-68.9941C29.4434-76.6113 33.4473-80.5664 40.9668-80.5664L101.562-80.5664L108.203-87.207L40.8203-87.207C28.9551-87.207 22.8516-81.1035 22.8516-69.3359L22.8516 3.07617C22.8516 14.8438 28.9551 20.9473 40.8203 20.9473Z"/>
  </g>
  <g id="Thin-L" transform="matrix(1 0 0 1 780.69 1556)">
   <path d="M137.598-89.6973L140.967-93.0664C142.773-94.9219 142.822-96.582 141.162-98.2422L140.869-98.5352C139.355-100.049 137.451-99.8535 135.791-98.1934L132.471-94.873ZM67.0898-23.5352L75.4395-27.6367L134.033-86.2305L128.955-91.3574L70.3613-32.7637L66.1133-24.5605C65.7715-23.9258 66.4551-23.291 67.0898-23.5352ZM39.6484 19.6289L112.012 19.6289C122.705 19.6289 128.467 13.7207 128.467 3.02734L128.467-64.0137L124.512-60.0586L124.512 2.83203C124.512 11.2793 119.824 15.6738 111.865 15.6738L39.7949 15.6738C31.3477 15.6738 26.9531 11.2793 26.9531 2.83203L26.9531-69.043C26.9531-77.4902 31.3477-81.8848 39.7949-81.8848L102.832-81.8848L106.787-85.791L39.6484-85.791C28.7598-85.791 23.0469-80.0781 23.0469-69.2383L23.0469 3.02734C23.0469 13.8672 28.7598 19.6289 39.6484 19.6289Z"/>
  </g>
  <g id="Ultralight-L" transform="matrix(1 0 0 1 484.565 1556)">
   <path d="M136.816-90.332L139.941-93.4082C141.65-95.1172 141.748-96.5332 140.186-98.0957L140.137-98.0957C138.721-99.5117 137.109-99.3652 135.547-97.8027L132.471-94.6777ZM67.5293-24.7559L74.9512-28.5645L133.496-87.0605L129.199-91.4551L70.6543-32.959L66.6992-25.5371C66.4062-25 66.9922-24.5117 67.5293-24.7559ZM39.0137 18.9453L111.084 18.9453C121.631 18.9453 127.148 13.2324 127.148 2.97852L127.148-63.9648L124.609-61.4258L124.609 2.88086C124.609 11.7676 119.678 16.3574 110.938 16.3574L39.209 16.3574C30.2734 16.3574 25.6836 11.7676 25.6836 2.88086L25.6836-69.043C25.6836-77.9297 30.2734-82.5684 39.209-82.5684L103.516-82.5684L106.055-85.1074L39.0137-85.1074C28.6621-85.1074 23.1445-79.5898 23.1445-69.1895L23.1445 2.97852C23.1445 13.3789 28.6621 18.9453 39.0137 18.9453Z"/>
  </g>
  <g id="Black-M" transform="matrix(1 0 0 1 2869.9 1126)">
   <path d="M111.768-70.166L116.309-75C119.043-77.9785 119.58-82.2754 116.797-85.2051L114.941-87.207C112.598-89.6484 108.154-88.8184 105.225-86.0352L100.488-81.4941ZM36.1328 13.5742L90.8203 13.5742C103.076 13.5742 110.352 6.29883 110.352-5.95703L110.352-54.4922L92.0898-36.2305L92.0898-8.88672C92.0898-5.81055 90.7227-4.73633 87.8418-4.73633L39.0625-4.73633C36.2305-4.73633 34.9121-5.81055 34.9121-8.88672L34.9121-57.7148C34.9121-60.8398 36.2305-61.9141 39.0625-61.9141L66.6504-61.9141L84.9121-80.1758L36.1328-80.1758C23.877-80.1758 16.6016-72.9004 16.6016-60.6445L16.6016-5.95703C16.6016 6.29883 23.877 13.5742 36.1328 13.5742ZM58.2031-24.1211L70.2148-28.6133L108.545-66.9434L97.2656-78.2715L58.8867-39.9414L54.4922-27.9297C53.5645-25.3906 56.1523-23.3887 58.2031-24.1211Z"/>
  </g>
  <g id="Heavy-M" transform="matrix(1 0 0 1 2573.85 1126)">
   <path d="M111.182-71.3867L115.479-75.9277C117.969-78.6133 118.359-82.4707 115.869-85.0586L114.16-86.8652C112.012-89.1113 108.057-88.4277 105.469-85.9375L100.977-81.5918ZM35.3516 12.6465L90.625 12.6465C102.1 12.6465 108.887 5.85938 108.887-5.85938L108.887-55.2734L93.0664-39.4531L93.0664-8.20312C93.0664-4.63867 91.3574-3.22266 88.3789-3.22266L37.6465-3.22266C34.3262-3.22266 32.666-4.63867 32.666-8.20312L32.666-58.5938C32.666-62.1582 34.3262-63.5742 37.6465-63.5742L69.1895-63.5742L85.0098-79.3945L35.3516-79.3945C23.584-79.3945 16.8457-72.6562 16.8457-60.9375L16.8457-5.85938C16.8457 5.85938 23.584 12.6465 35.3516 12.6465ZM56.3965-23.6328L67.8223-28.0273L107.861-68.0664L97.6562-78.2715L57.6172-38.2324L53.2227-26.9043C52.3926-24.7559 54.5898-22.9492 56.3965-23.6328Z"/>
  </g>
  <g id="Bold-M" transform="matrix(1 0 0 1 2277.84 1126)">
   <path d="M110.547-72.7539L114.551-76.9531C116.748-79.2969 117.041-82.666 114.844-84.9121L113.33-86.4746C111.377-88.4766 107.959-87.9883 105.713-85.791L101.562-81.7383ZM34.4727 11.5723L90.4785 11.5723C101.025 11.5723 107.178 5.41992 107.178-5.76172L107.178-56.1035L94.1406-43.0176L94.1406-7.42188C94.1406-3.32031 92.041-1.46484 88.9648-1.46484L36.0352-1.46484C32.1777-1.46484 30.127-3.32031 30.127-7.42188L30.127-59.5215C30.127-63.623 32.1777-65.4785 36.0352-65.4785L72.0215-65.4785L85.1074-78.5156L34.4727-78.5156C23.291-78.5156 17.041-72.3633 17.041-61.2305L17.041-5.76172C17.041 5.41992 23.291 11.5723 34.4727 11.5723ZM54.3945-23.0957L65.1855-27.3926L107.129-69.3359L98.1445-78.2715L56.2012-36.3281L51.8066-25.7324C51.123-24.0723 52.9297-22.5098 54.3945-23.0957Z"/>
  </g>
  <g id="Semibold-M" transform="matrix(1 0 0 1 1981.65 1126)">
   <path d="M110.107-73.6816L113.916-77.6855C115.918-79.7852 116.113-82.7637 114.111-84.8145L112.744-86.2305C110.938-88.0371 107.91-87.6465 105.908-85.6934L101.953-81.8359ZM53.0273-22.7051L63.3301-26.9531L106.592-70.2148L98.4375-78.3203L55.2246-35.0586L50.8301-24.9512C50.2441-23.584 51.709-22.168 53.0273-22.7051ZM33.8867 10.8887L90.3809 10.8887C100.244 10.8887 106.055 5.12695 106.055-5.66406L106.055-56.6895L94.873-45.5078L94.873-6.88477C94.873-2.44141 92.5293-0.292969 89.3555-0.292969L34.9121-0.292969C30.6641-0.292969 28.418-2.44141 28.418-6.88477L28.418-60.2051C28.418-64.6484 30.6641-66.748 34.9121-66.748L73.9746-66.748L85.1562-77.9297L33.8867-77.9297C23.0469-77.9297 17.2363-72.168 17.2363-61.4258L17.2363-5.66406C17.2363 5.12695 23.0469 10.8887 33.8867 10.8887Z"/>
  </g>
  <g id="Medium-M" transform="matrix(1 0 0 1 1685.3 1126)">
   <path d="M109.766-74.3652L113.428-78.2227C115.283-80.1758 115.43-82.8613 113.574-84.7168L112.305-86.0352C110.645-87.6953 107.861-87.4512 106.055-85.6445L102.246-81.9336ZM51.9531-22.4121L61.9629-26.6113L106.201-70.8496L98.6816-78.3203L54.4434-34.0332L50.0488-24.3652C49.5605-23.2422 50.8301-21.9727 51.9531-22.4121ZM33.3984 10.3516L90.2832 10.3516C99.6582 10.3516 105.176 4.88281 105.176-5.56641L105.176-57.1289L95.4102-47.4121L95.4102-6.44531C95.4102-1.75781 92.9199 0.585938 89.6484 0.585938L34.0332 0.585938C29.541 0.585938 27.0996-1.75781 27.0996-6.44531L27.0996-60.6934C27.0996-65.3809 29.541-67.7246 34.0332-67.7246L75.4883-67.7246L85.2051-77.4902L33.3984-77.4902C22.8516-77.4902 17.334-72.0215 17.334-61.5723L17.334-5.56641C17.334 4.88281 22.8516 10.3516 33.3984 10.3516Z"/>
  </g>
  <g id="Regular-M" transform="matrix(1 0 0 1 1389.1 1126)">
   <path d="M109.326-75.293L112.842-78.9062C114.502-80.6641 114.502-83.0078 112.842-84.6191L111.719-85.791C110.205-87.3047 107.812-87.1094 106.201-85.5469L102.637-82.0312ZM50.5859-22.0215L60.1074-26.1719L105.713-71.7285L99.0234-78.3203L53.4668-32.7637L49.0723-23.584C48.6816-22.7539 49.6582-21.6309 50.5859-22.0215ZM32.8125 9.61914L90.1367 9.61914C98.9258 9.61914 104.004 4.54102 104.004-5.51758L104.004-57.7148L96.1426-49.8535L96.1426-5.9082C96.1426-0.830078 93.4082 1.75781 90.0391 1.75781L32.959 1.75781C28.0762 1.75781 25.3418-0.830078 25.3418-5.9082L25.3418-61.3281C25.3418-66.4062 28.0762-69.043 32.959-69.043L77.4414-69.043L85.3027-76.9043L32.8125-76.9043C22.6562-76.9043 17.4805-71.8262 17.4805-61.7676L17.4805-5.51758C17.4805 4.58984 22.6562 9.61914 32.8125 9.61914Z"/>
  </g>
  <g id="Light-M" transform="matrix(1 0 0 1 1093.15 1126)">
   <path d="M108.301-76.123L111.475-79.3457C113.037-80.957 113.037-82.9102 111.572-84.4238L110.742-85.2051C109.375-86.6211 107.324-86.4258 105.859-84.9609L102.637-81.7871ZM51.123-23.584L59.5215-27.3438L104.98-72.8516L99.3652-78.4668L53.9062-32.959L49.9023-24.8535C49.5605-24.1699 50.3906-23.291 51.123-23.584ZM32.0312 8.74023L88.916 8.74023C97.4609 8.74023 102.344 3.85742 102.344-5.51758L102.344-57.6172L96.2891-51.6113L96.2891-5.85938C96.2891-0.195312 93.1641 2.68555 88.7695 2.68555L32.1289 2.68555C26.6602 2.68555 23.6816-0.195312 23.6816-5.85938L23.6816-61.377C23.6816-66.9922 26.6602-69.9219 32.1289-69.9219L78.2715-69.9219L84.3262-75.9766L32.0312-75.9766C22.5098-75.9766 17.627-71.1426 17.627-61.6699L17.627-5.51758C17.627 3.90625 22.5098 8.74023 32.0312 8.74023Z"/>
  </g>
  <g id="Thin-M" transform="matrix(1 0 0 1 797.487 1126)">
   <path d="M106.934-77.1973L109.668-79.9316C111.084-81.3477 111.133-82.8125 109.814-84.1309L109.473-84.4727C108.252-85.6934 106.689-85.5469 105.371-84.2285L102.637-81.4941ZM51.8555-25.6836L58.6426-28.9551L104.102-74.3652L99.8047-78.6621L54.3945-33.252L50.9766-26.5625C50.6836-26.0254 51.3184-25.4395 51.8555-25.6836ZM30.957 7.56836L87.207 7.56836C95.5566 7.56836 100.098 2.92969 100.098-5.56641L100.098-57.5684L96.4355-53.9062L96.4355-5.76172C96.4355 0.634766 92.9199 3.90625 87.1094 3.90625L31.1035 3.90625C24.7559 3.90625 21.4355 0.634766 21.4355-5.76172L21.4355-61.4258C21.4355-67.7734 24.7559-71.0938 31.1035-71.0938L79.4434-71.0938L83.0566-74.707L30.957-74.707C22.3145-74.707 17.8223-70.2148 17.8223-61.6211L17.8223-5.56641C17.8223 3.02734 22.3145 7.56836 30.957 7.56836Z"/>
  </g>
  <g id="Ultralight-M" transform="matrix(1 0 0 1 501.288 1126)">
   <path d="M106.25-77.7344L108.74-80.2246C110.107-81.5918 110.156-82.7637 108.936-83.9844L108.838-84.082C107.715-85.2051 106.348-85.0586 105.127-83.8379L102.637-81.3477ZM52.1973-26.7578L58.252-29.7852L103.613-75.1465L100.049-78.7598L54.6875-33.3984L51.5137-27.3926C51.2695-27.002 51.7578-26.5625 52.1973-26.7578ZM30.4199 6.93359L86.377 6.93359C94.5801 6.93359 98.9258 2.49023 98.9258-5.61523L98.9258-57.5195L96.5332-55.127L96.5332-5.71289C96.5332 1.02539 92.7734 4.54102 86.2305 4.54102L30.5664 4.54102C23.7793 4.54102 20.2637 1.02539 20.2637-5.71289L20.2637-61.4258C20.2637-68.2129 23.7793-71.7285 30.5664-71.7285L80.0293-71.7285L82.4219-74.1211L30.4199-74.1211C22.2656-74.1211 17.8711-69.7266 17.8711-61.5723L17.8711-5.61523C17.8711 2.58789 22.2656 6.93359 30.4199 6.93359Z"/>
  </g>
  <g id="Black-S" transform="matrix(1 0 0 1 2883.69 696)">
   <path d="M87.5488-62.6953L91.0645-66.4551C93.2129-68.75 93.6035-72.1191 91.4551-74.3652L89.9902-75.9277C88.1836-77.832 84.7168-77.1973 82.4707-75.0488L78.7598-71.4844ZM28.2715 2.92969L71.1426 2.92969C80.7129 2.92969 86.377-2.73438 86.377-12.3047L86.377-50.3906L72.2168-36.2305L72.2168-14.5508C72.2168-12.1094 71.1426-11.2305 68.8965-11.2305L30.5176-11.2305C28.2715-11.2305 27.1973-12.1094 27.1973-14.5508L27.1973-52.9297C27.1973-55.3711 28.2715-56.25 30.5176-56.25L52.3926-56.25L66.5527-70.4102L28.2715-70.4102C18.7012-70.4102 13.0371-64.7461 13.0371-55.1758L13.0371-12.3047C13.0371-2.73438 18.7012 2.92969 28.2715 2.92969ZM45.459-26.4648L54.834-29.9805L85.0098-60.1562L76.2207-68.9453L46.0449-38.7695L42.5781-29.3945C41.8457-27.4414 43.8477-25.8789 45.459-26.4648Z"/>
  </g>
  <g id="Heavy-S" transform="matrix(1 0 0 1 2587.4 696)">
   <path d="M87.207-63.5254L90.5762-67.1387C92.5293-69.1895 92.8711-72.2656 90.8691-74.2676L89.502-75.7324C87.8418-77.4902 84.7168-76.9531 82.666-75L79.1504-71.582ZM27.7344 2.34375L71.1426 2.34375C80.127 2.34375 85.4004-2.97852 85.4004-12.207L85.4004-50.9766L72.9492-38.4766L72.9492-14.0137C72.9492-11.2793 71.6309-10.1562 69.4336-10.1562L29.4922-10.1562C26.9531-10.1562 25.6836-11.2793 25.6836-14.0137L25.6836-53.5645C25.6836-56.2988 26.9531-57.4219 29.4922-57.4219L54.248-57.4219L66.748-69.9219L27.7344-69.9219C18.5059-69.9219 13.1836-64.6484 13.1836-55.3711L13.1836-12.207C13.1836-2.97852 18.5059 2.34375 27.7344 2.34375ZM44.043-25.9277L53.0762-29.3945L84.5703-60.8887L76.5137-68.9453L45.0195-37.4512L41.5039-28.4668C40.8691-26.8066 42.627-25.3906 44.043-25.9277Z"/>
  </g>
  <g id="Bold-S" transform="matrix(1 0 0 1 2291.13 696)">
   <path d="M86.8164-64.4531L90.0391-67.8711C91.7969-69.7266 91.9922-72.4121 90.2344-74.2188L88.9648-75.5371C87.4512-77.0996 84.7168-76.709 82.9102-75L79.5898-71.7285ZM27.1973 1.66016L71.1914 1.66016C79.4434 1.66016 84.3262-3.22266 84.3262-12.1094L84.3262-51.6113L73.7305-41.0156L73.7305-13.4277C73.7305-10.3516 72.2168-8.98438 70.0195-8.98438L28.3691-8.98438C25.4883-8.98438 23.9258-10.3516 23.9258-13.4277L23.9258-54.2969C23.9258-57.373 25.4883-58.7402 28.3691-58.7402L56.2988-58.7402L66.8945-69.3848L27.1973-69.3848C18.2617-69.3848 13.3301-64.502 13.3301-55.6152L13.3301-12.1094C13.3301-3.22266 18.2617 1.66016 27.1973 1.66016ZM42.4316-25.293L51.123-28.7598L84.082-61.7188L76.8066-68.9453L43.8965-35.9863L40.332-27.4414C39.7949-26.123 41.2109-24.8535 42.4316-25.293Z"/>
  </g>
  <g id="Semibold-S" transform="matrix(1 0 0 1 1994.73 696)">
   <path d="M86.5723-65.0879L89.6973-68.3594C91.3086-70.0684 91.4062-72.5098 89.7949-74.1211L88.623-75.3906C87.207-76.8066 84.7168-76.5137 83.1055-74.9512L79.8828-71.8262ZM26.8066 1.17188L71.1914 1.17188C79.0039 1.17188 83.5938-3.41797 83.5938-12.0605L83.5938-52.0996L74.3164-42.7734L74.3164-12.9883C74.3164-9.7168 72.6074-8.1543 70.4102-8.1543L27.5879-8.1543C24.4629-8.1543 22.7539-9.7168 22.7539-12.9883L22.7539-54.7852C22.7539-58.1055 24.4629-59.668 27.5879-59.668L57.7637-59.668L67.041-68.9941L26.8066-68.9941C18.0664-68.9941 13.4277-64.4043 13.4277-55.7617L13.4277-12.0605C13.4277-3.41797 18.0664 1.17188 26.8066 1.17188ZM41.3086-24.8535L49.7559-28.3203L83.7402-62.2559L77.002-68.9453L43.0664-34.9609L39.502-26.709C39.0625-25.6348 40.2344-24.4629 41.3086-24.8535Z"/>
  </g>
  <g id="Medium-S" transform="matrix(1 0 0 1 1698.26 696)">
   <path d="M86.377-65.625L89.4043-68.75C90.918-70.3125 90.9668-72.6074 89.502-74.1211L88.3301-75.2441C87.0117-76.6113 84.7168-76.3672 83.2031-74.9512L80.127-71.875ZM40.4785-24.5605L48.7305-27.9785L83.4961-62.6953L77.1973-68.9453L42.4805-34.1797L38.8672-26.1719C38.4766-25.2441 39.5508-24.1699 40.4785-24.5605ZM26.4648 0.830078L71.2402 0.830078C78.6621 0.830078 83.0566-3.56445 83.0566-12.0117L83.0566-52.4414L74.707-44.0918L74.707-12.6953C74.707-9.22852 72.9004-7.51953 70.752-7.51953L26.9531-7.51953C23.6816-7.51953 21.875-9.22852 21.875-12.6953L21.875-55.1758C21.875-58.6426 23.6816-60.3516 26.9531-60.3516L58.8379-60.3516L67.1387-68.7012L26.4648-68.7012C17.9688-68.7012 13.5254-64.3555 13.5254-55.9082L13.5254-12.0117C13.5254-3.51562 17.9688 0.830078 26.4648 0.830078Z"/>
  </g>
  <g id="Regular-S" transform="matrix(1 0 0 1 1401.87 696)">
   <path d="M86.1328-66.2598L89.0625-69.2383C90.3809-70.6543 90.3809-72.7051 89.0625-74.0234L87.9883-75.0977C86.7188-76.3672 84.668-76.2207 83.3984-74.9023L80.4199-71.9727ZM39.4043-24.1211L47.4121-27.5391L83.1543-63.2812L77.3926-68.8965L41.6992-33.2031L38.0859-25.4883C37.7441-24.7559 38.5742-23.7793 39.4043-24.1211ZM26.0742 0.341797L71.2402 0.341797C78.1738 0.341797 82.3242-3.71094 82.3242-11.9141L82.3242-52.8809L75.2441-45.8496L75.2441-12.3047C75.2441-8.59375 73.2422-6.68945 71.1426-6.68945L26.1719-6.68945C22.6562-6.68945 20.7031-8.59375 20.7031-12.3047L20.7031-55.6641C20.7031-59.375 22.6562-61.2793 26.1719-61.2793L60.2539-61.2793L67.2852-68.3105L26.0742-68.3105C17.8223-68.3105 13.623-64.2578 13.623-56.0547L13.623-11.9141C13.623-3.71094 17.8223 0.341797 26.0742 0.341797Z"/>
  </g>
  <g id="Light-S" transform="matrix(1 0 0 1 1105.84 696)">
   <path d="M85.2051-66.9434L87.8418-69.6289C89.1113-70.9473 89.1113-72.6074 87.8906-73.8281L87.1582-74.6094C85.9863-75.7324 84.2773-75.6348 83.0566-74.4141L80.4199-71.7773ZM39.8438-25.5371L46.875-28.6133L82.5195-64.2578L77.6855-69.043L42.041-33.3984L38.7695-26.6113C38.4766-26.0254 39.209-25.2441 39.8438-25.5371ZM25.3906-0.439453L70.1172-0.439453C76.9043-0.439453 80.8105-4.3457 80.8105-11.9629L80.8105-52.832L75.3906-47.3633L75.3906-12.2559C75.3906-8.05664 73.0957-5.85938 70.0195-5.85938L25.4883-5.85938C21.4355-5.85938 19.1895-8.05664 19.1895-12.2559L19.1895-55.7129C19.1895-59.9121 21.4355-62.0605 25.4883-62.0605L60.9863-62.0605L66.4551-67.4805L25.3906-67.4805C17.6758-67.4805 13.7695-63.623 13.7695-56.0059L13.7695-11.9629C13.7695-4.29688 17.6758-0.439453 25.3906-0.439453Z"/>
  </g>
  <g id="Thin-S" transform="matrix(1 0 0 1 810.036 696)">
   <path d="M84.0332-67.9199L86.2793-70.1172C87.4023-71.2891 87.4512-72.5098 86.377-73.584L86.0352-73.9746C85.0586-74.9512 83.6914-74.8047 82.666-73.7793L80.4199-71.5332ZM40.4785-27.3438L46.1426-30.0293L81.7383-65.625L78.125-69.2383L42.5293-33.6426L39.7461-28.125C39.502-27.6855 39.9902-27.1484 40.4785-27.3438ZM24.4629-1.46484L68.6523-1.46484C75.2441-1.46484 78.8574-5.12695 78.8574-11.9629L78.8574-52.7344L75.5371-49.4141L75.5371-12.1582C75.5371-7.32422 72.8516-4.78516 68.5547-4.78516L24.5605-4.78516C19.7754-4.78516 17.2363-7.32422 17.2363-12.1582L17.2363-55.7129C17.2363-60.5957 19.7754-63.0859 24.5605-63.0859L62.0117-63.0859L65.332-66.4062L24.4629-66.4062C17.5293-66.4062 13.916-62.8418 13.916-55.9082L13.916-11.9629C13.916-5.07812 17.5293-1.46484 24.4629-1.46484Z"/>
  </g>
  <g id="Ultralight-S" transform="matrix(1 0 0 1 513.813 696)">
   <path d="M83.4473-68.4082L85.4492-70.4102C86.5234-71.4844 86.5723-72.4609 85.5957-73.4863L85.4492-73.6328C84.5215-74.5117 83.3984-74.4141 82.4219-73.4375L80.4199-71.4355ZM40.8203-28.3203L45.752-30.7617L81.2988-66.3086L78.3203-69.3359L42.7734-33.7402L40.2344-28.8574C40.0391-28.5156 40.4297-28.125 40.8203-28.3203ZM23.9746-2.00195L67.9199-2.00195C74.3652-2.00195 77.832-5.56641 77.832-12.0117L77.832-52.6855L75.6348-50.4883L75.6348-12.1094C75.6348-6.93359 72.7539-4.24805 67.8223-4.24805L24.0723-4.24805C18.8965-4.24805 16.2109-6.93359 16.2109-12.1094L16.2109-55.7617C16.2109-60.9375 18.8965-63.623 24.0723-63.623L62.5488-63.623L64.7461-65.8691L23.9746-65.8691C17.4316-65.8691 14.0137-62.4023 14.0137-55.8594L14.0137-12.0117C14.0137-5.46875 17.4316-2.00195 23.9746-2.00195Z"/>
  </g>
 </g>
</svg>
