<?xml version="1.0" encoding="UTF-8"?>
<!--Generator: Apple Native CoreSVG 149-->
<!DOCTYPE svg
PUBLIC "-//W3C//DTD SVG 1.1//EN"
       "http://www.w3.org/Graphics/SVG/1.1/DTD/svg11.dtd">
<svg version="1.1" xmlns="http://www.w3.org/2000/svg" xmlns:xlink="http://www.w3.org/1999/xlink" width="3300" height="2200">
 <!--glyph: "uni1009F1.medium", point size: 100.000000, font version: "Version 16.0d12e3", template writer version: "8"-->
 <g id="Notes">
  <rect height="2200" id="artboard" style="fill:white;opacity:1" width="3300" x="0" y="0"/>
  <line id="" style="fill:none;stroke:black;opacity:1;stroke-width:0.5;" x1="263" x2="3036" y1="292" y2="292"/>
  <text style="stroke:none;fill:black;font-family:-apple-system,&quot;SF Pro Display&quot;,&quot;SF Pro Text&quot;,Helvetica,sans-serif;font-weight:bold;" transform="matrix(1 0 0 1 263 322)">Weight/Scale Variations</text>
  <text style="stroke:none;fill:black;font-family:-apple-system,&quot;SF Pro Display&quot;,&quot;SF Pro Text&quot;,Helvetica,sans-serif;text-anchor:middle;" transform="matrix(1 0 0 1 559.711 322)">Ultralight</text>
  <text style="stroke:none;fill:black;font-family:-apple-system,&quot;SF Pro Display&quot;,&quot;SF Pro Text&quot;,Helvetica,sans-serif;text-anchor:middle;" transform="matrix(1 0 0 1 856.422 322)">Thin</text>
  <text style="stroke:none;fill:black;font-family:-apple-system,&quot;SF Pro Display&quot;,&quot;SF Pro Text&quot;,Helvetica,sans-serif;text-anchor:middle;" transform="matrix(1 0 0 1 1153.13 322)">Light</text>
  <text style="stroke:none;fill:black;font-family:-apple-system,&quot;SF Pro Display&quot;,&quot;SF Pro Text&quot;,Helvetica,sans-serif;text-anchor:middle;" transform="matrix(1 0 0 1 1449.84 322)">Regular</text>
  <text style="stroke:none;fill:black;font-family:-apple-system,&quot;SF Pro Display&quot;,&quot;SF Pro Text&quot;,Helvetica,sans-serif;text-anchor:middle;" transform="matrix(1 0 0 1 1746.56 322)">Medium</text>
  <text style="stroke:none;fill:black;font-family:-apple-system,&quot;SF Pro Display&quot;,&quot;SF Pro Text&quot;,Helvetica,sans-serif;text-anchor:middle;" transform="matrix(1 0 0 1 2043.27 322)">Semibold</text>
  <text style="stroke:none;fill:black;font-family:-apple-system,&quot;SF Pro Display&quot;,&quot;SF Pro Text&quot;,Helvetica,sans-serif;text-anchor:middle;" transform="matrix(1 0 0 1 2339.98 322)">Bold</text>
  <text style="stroke:none;fill:black;font-family:-apple-system,&quot;SF Pro Display&quot;,&quot;SF Pro Text&quot;,Helvetica,sans-serif;text-anchor:middle;" transform="matrix(1 0 0 1 2636.69 322)">Heavy</text>
  <text style="stroke:none;fill:black;font-family:-apple-system,&quot;SF Pro Display&quot;,&quot;SF Pro Text&quot;,Helvetica,sans-serif;text-anchor:middle;" transform="matrix(1 0 0 1 2933.4 322)">Black</text>
  <line id="" style="fill:none;stroke:black;opacity:1;stroke-width:0.5;" x1="263" x2="3036" y1="1903" y2="1903"/>
  <g id="" transform="matrix(1 0 0 1 263 1933)">
   <path d="M9.24805 0.830078C13.5547 0.830078 17.1387-2.74414 17.1387-7.05078C17.1387-11.3574 13.5449-14.9316 9.23828-14.9316C4.94141-14.9316 1.36719-11.3574 1.36719-7.05078C1.36719-2.74414 4.95117 0.830078 9.24805 0.830078ZM9.24805-0.654297C5.70312-0.654297 2.87109-3.49609 2.87109-7.05078C2.87109-10.6055 5.69336-13.4473 9.23828-13.4473C12.793-13.4473 15.6348-10.6055 15.6445-7.05078C15.6543-3.49609 12.8027-0.654297 9.24805-0.654297ZM9.22852-3.62305C9.69727-3.62305 9.9707-3.93555 9.9707-4.45312L9.9707-6.31836L12.002-6.31836C12.5-6.31836 12.832-6.57227 12.832-7.04102C12.832-7.51953 12.5195-7.7832 12.002-7.7832L9.9707-7.7832L9.9707-9.81445C9.9707-10.332 9.69727-10.6543 9.22852-10.6543C8.75977-10.6543 8.50586-10.3125 8.50586-9.81445L8.50586-7.7832L6.49414-7.7832C5.97656-7.7832 5.64453-7.51953 5.64453-7.04102C5.64453-6.57227 5.99609-6.31836 6.49414-6.31836L8.50586-6.31836L8.50586-4.45312C8.50586-3.95508 8.75977-3.62305 9.22852-3.62305Z"/>
  </g>
  <g id="" transform="matrix(1 0 0 1 281.506 1933)">
   <path d="M11.709 2.91016C17.1582 2.91016 21.6699-1.61133 21.6699-7.05078C21.6699-12.5 17.1484-17.0117 11.6992-17.0117C6.25977-17.0117 1.74805-12.5 1.74805-7.05078C1.74805-1.61133 6.26953 2.91016 11.709 2.91016ZM11.709 1.25C7.09961 1.25 3.41797-2.44141 3.41797-7.05078C3.41797-11.6602 7.08984-15.3516 11.6992-15.3516C16.3086-15.3516 20-11.6602 20.0098-7.05078C20.0195-2.44141 16.3184 1.25 11.709 1.25ZM11.6797-2.66602C12.207-2.66602 12.5098-3.01758 12.5098-3.59375L12.5098-6.23047L15.3223-6.23047C15.8691-6.23047 16.25-6.51367 16.25-7.03125C16.25-7.55859 15.8887-7.86133 15.3223-7.86133L12.5098-7.86133L12.5098-10.6836C12.5098-11.25 12.207-11.6113 11.6797-11.6113C11.1621-11.6113 10.8789-11.2305 10.8789-10.6836L10.8789-7.86133L8.07617-7.86133C7.50977-7.86133 7.13867-7.55859 7.13867-7.03125C7.13867-6.51367 7.5293-6.23047 8.07617-6.23047L10.8789-6.23047L10.8789-3.59375C10.8789-3.03711 11.1621-2.66602 11.6797-2.66602Z"/>
  </g>
  <g id="" transform="matrix(1 0 0 1 304.924 1933)">
   <path d="M14.9707 5.66406C21.9336 5.66406 27.6953-0.0976562 27.6953-7.05078C27.6953-14.0137 21.9238-19.7754 14.9609-19.7754C8.00781-19.7754 2.25586-14.0137 2.25586-7.05078C2.25586-0.0976562 8.01758 5.66406 14.9707 5.66406ZM14.9707 3.84766C8.93555 3.84766 4.08203-1.01562 4.08203-7.05078C4.08203-13.0957 8.92578-17.9492 14.9609-17.9492C21.0059-17.9492 25.8594-13.0957 25.8691-7.05078C25.8789-1.01562 21.0156 3.84766 14.9707 3.84766ZM14.9414-1.38672C15.5176-1.38672 15.8594-1.77734 15.8594-2.38281L15.8594-6.13281L19.7754-6.13281C20.3711-6.13281 20.7812-6.46484 20.7812-7.02148C20.7812-7.59766 20.3906-7.93945 19.7754-7.93945L15.8594-7.93945L15.8594-11.8652C15.8594-12.4805 15.5176-12.8711 14.9414-12.8711C14.375-12.8711 14.0527-12.4609 14.0527-11.8652L14.0527-7.93945L10.1465-7.93945C9.53125-7.93945 9.13086-7.59766 9.13086-7.02148C9.13086-6.46484 9.55078-6.13281 10.1465-6.13281L14.0527-6.13281L14.0527-2.38281C14.0527-1.79688 14.375-1.38672 14.9414-1.38672Z"/>
  </g>
  <text style="stroke:none;fill:black;font-family:-apple-system,&quot;SF Pro Display&quot;,&quot;SF Pro Text&quot;,Helvetica,sans-serif;font-weight:bold;" transform="matrix(1 0 0 1 263 1953)">Design Variations</text>
  <text style="stroke:none;fill:black;font-family:-apple-system,&quot;SF Pro Display&quot;,&quot;SF Pro Text&quot;,Helvetica,sans-serif;" transform="matrix(1 0 0 1 263 1971)">Symbols are supported in up to nine weights and three scales.</text>
  <text style="stroke:none;fill:black;font-family:-apple-system,&quot;SF Pro Display&quot;,&quot;SF Pro Text&quot;,Helvetica,sans-serif;" transform="matrix(1 0 0 1 263 1989)">For optimal layout with text and other symbols, vertically align</text>
  <text style="stroke:none;fill:black;font-family:-apple-system,&quot;SF Pro Display&quot;,&quot;SF Pro Text&quot;,Helvetica,sans-serif;" transform="matrix(1 0 0 1 263 2007)">symbols with the adjacent text.</text>
  <line id="" style="fill:none;stroke:#00AEEF;stroke-width:0.5;opacity:1.0;" x1="776" x2="776" y1="1919" y2="1933"/>
  <g id="" transform="matrix(1 0 0 1 776 1933)">
   <path d="M3.31055 0.126953C3.82812 0.126953 4.08203-0.0683594 4.26758-0.605469L5.52734-4.0625L11.2891-4.0625L12.5488-0.605469C12.7344-0.0683594 12.9883 0.126953 13.4961 0.126953C14.0137 0.126953 14.3457-0.185547 14.3457-0.673828C14.3457-0.839844 14.3164-0.986328 14.2383-1.20117L9.6582-13.3887C9.43359-13.9941 9.0332-14.2871 8.4082-14.2871C7.80273-14.2871 7.39258-13.9941 7.17773-13.3984L2.59766-1.19141C2.51953-0.976562 2.49023-0.830078 2.49023-0.664062C2.49023-0.175781 2.80273 0.126953 3.31055 0.126953ZM6.00586-5.53711L8.37891-12.1094L8.42773-12.1094L10.8008-5.53711Z"/>
  </g>
  <line id="" style="fill:none;stroke:#00AEEF;stroke-width:0.5;opacity:1.0;" x1="792.836" x2="792.836" y1="1919" y2="1933"/>
  <text style="stroke:none;fill:black;font-family:-apple-system,&quot;SF Pro Display&quot;,&quot;SF Pro Text&quot;,Helvetica,sans-serif;font-weight:bold;" transform="matrix(1 0 0 1 776 1953)">Margins</text>
  <text style="stroke:none;fill:black;font-family:-apple-system,&quot;SF Pro Display&quot;,&quot;SF Pro Text&quot;,Helvetica,sans-serif;" transform="matrix(1 0 0 1 776 1971)">Leading and trailing margins on the left and right side of each symbol</text>
  <text style="stroke:none;fill:black;font-family:-apple-system,&quot;SF Pro Display&quot;,&quot;SF Pro Text&quot;,Helvetica,sans-serif;" transform="matrix(1 0 0 1 776 1989)">can be adjusted by modifying the x-location of the margin guidelines.</text>
  <text style="stroke:none;fill:black;font-family:-apple-system,&quot;SF Pro Display&quot;,&quot;SF Pro Text&quot;,Helvetica,sans-serif;" transform="matrix(1 0 0 1 776 2007)">Modifications are automatically applied proportionally to all</text>
  <text style="stroke:none;fill:black;font-family:-apple-system,&quot;SF Pro Display&quot;,&quot;SF Pro Text&quot;,Helvetica,sans-serif;" transform="matrix(1 0 0 1 776 2025)">scales and weights.</text>
  <g id="" transform="matrix(1 0 0 1 1289 1933)">
   <path d="M2.8418 1.86523L4.54102 3.57422C5.40039 4.44336 6.38672 4.38477 7.31445 3.35938L17.4902-7.85156C17.7539-7.76367 18.0273-7.7832 18.3398-7.8418L19.4043-8.03711L20.0684-7.36328L20.0293-6.80664C19.9902-6.30859 20.1172-5.92773 20.6055-5.44922L21.3672-4.70703C21.8457-4.22852 22.4609-4.19922 22.9297-4.66797L25.8398-7.58789C26.3086-8.05664 26.2891-8.65234 25.8105-9.13086L25.0391-9.89258C24.5605-10.3711 24.1895-10.5273 23.7109-10.4883L23.1348-10.4395L22.4902-11.0742L22.7344-12.1973C22.8613-12.7637 22.7051-13.2031 22.1191-13.7891L19.9219-15.9766C16.582-19.2969 12.1484-19.2188 9.25781-16.3281C8.83789-15.918 8.80859-15.3418 9.04297-14.9512C9.27734-14.5898 9.73633-14.3555 10.3809-14.5215C11.8457-14.8633 13.3691-14.9219 14.7949-13.9844L14.209-12.5293C14.0137-12.0508 13.9844-11.6504 14.1113-11.2891L3.04688-0.898438C2.06055 0.0195312 1.98242 0.996094 2.8418 1.86523ZM10.752-15.957C13.1836-17.7344 16.4746-17.4316 18.7012-15.2051L21.1328-12.793C21.3672-12.5586 21.4062-12.373 21.3379-12.0312L21.0156-10.5469L22.5195-9.0625L23.5059-9.12109C23.7598-9.13086 23.8379-9.11133 24.0332-8.91602L24.6094-8.33984L22.168-5.89844L21.5918-6.47461C21.3965-6.66992 21.3672-6.74805 21.377-7.01172L21.4453-7.98828L19.9512-9.47266L18.4277-9.21875C18.1055-9.15039 17.959-9.17969 17.7148-9.41406L15.7129-11.416C15.459-11.6504 15.4297-11.8164 15.5859-12.1875L16.4648-14.2773C14.9023-15.7324 12.8711-16.3574 10.8398-15.7617C10.6836-15.7227 10.625-15.8496 10.752-15.957ZM5.27344 2.30469L4.10156 1.14258C3.63281 0.683594 3.74023 0.341797 4.14062-0.0195312L14.9512-10.1953L16.416-8.71094L6.42578 2.27539C6.07422 2.67578 5.74219 2.77344 5.27344 2.30469Z"/>
  </g>
  <text style="stroke:none;fill:black;font-family:-apple-system,&quot;SF Pro Display&quot;,&quot;SF Pro Text&quot;,Helvetica,sans-serif;font-weight:bold;" transform="matrix(1 0 0 1 1289 1953)">Exporting</text>
  <text style="stroke:none;fill:black;font-family:-apple-system,&quot;SF Pro Display&quot;,&quot;SF Pro Text&quot;,Helvetica,sans-serif;" transform="matrix(1 0 0 1 1289 1971)">Symbols should be outlined when exporting to ensure the</text>
  <text style="stroke:none;fill:black;font-family:-apple-system,&quot;SF Pro Display&quot;,&quot;SF Pro Text&quot;,Helvetica,sans-serif;" transform="matrix(1 0 0 1 1289 1989)">design is preserved when submitting to Xcode.</text>
  <text id="template-version" style="stroke:none;fill:black;font-family:-apple-system,&quot;SF Pro Display&quot;,&quot;SF Pro Text&quot;,Helvetica,sans-serif;text-anchor:end;" transform="matrix(1 0 0 1 3036 1933)">Template v.2.0</text>
  <text style="stroke:none;fill:black;font-family:-apple-system,&quot;SF Pro Display&quot;,&quot;SF Pro Text&quot;,Helvetica,sans-serif;text-anchor:end;" transform="matrix(1 0 0 1 3036 1951)">Requires Xcode 12 or greater</text>
  <text style="stroke:none;fill:black;font-family:-apple-system,&quot;SF Pro Display&quot;,&quot;SF Pro Text&quot;,Helvetica,sans-serif;text-anchor:end;" transform="matrix(1 0 0 1 3036 1969)">Generated from line.horizontal.3.circle</text>
  <text style="stroke:none;fill:black;font-family:-apple-system,&quot;SF Pro Display&quot;,&quot;SF Pro Text&quot;,Helvetica,sans-serif;text-anchor:end;" transform="matrix(1 0 0 1 3036 1987)">Typeset at 100 points</text>
  <text style="stroke:none;fill:black;font-family:-apple-system,&quot;SF Pro Display&quot;,&quot;SF Pro Text&quot;,Helvetica,sans-serif;" transform="matrix(1 0 0 1 263 726)">Small</text>
  <text style="stroke:none;fill:black;font-family:-apple-system,&quot;SF Pro Display&quot;,&quot;SF Pro Text&quot;,Helvetica,sans-serif;" transform="matrix(1 0 0 1 263 1156)">Medium</text>
  <text style="stroke:none;fill:black;font-family:-apple-system,&quot;SF Pro Display&quot;,&quot;SF Pro Text&quot;,Helvetica,sans-serif;" transform="matrix(1 0 0 1 263 1586)">Large</text>
 </g>
 <g id="Guides">
  <g id="H-reference" style="fill:#27AAE1;stroke:none;" transform="matrix(1 0 0 1 339 696)">
   <path d="M0.976562 0L3.66211 0L12.9883-24.4629L45.752-24.4629L55.127 0L57.7637 0L30.6152-70.459L28.125-70.459ZM29.3457-67.1387L29.4434-67.1387L44.873-26.709L13.8672-26.709Z"/>
  </g>
  <line id="Baseline-S" style="fill:none;stroke:#27AAE1;opacity:1;stroke-width:0.5;" x1="263" x2="3036" y1="696" y2="696"/>
  <line id="Capline-S" style="fill:none;stroke:#27AAE1;opacity:1;stroke-width:0.5;" x1="263" x2="3036" y1="625.541" y2="625.541"/>
  <g id="H-reference" style="fill:#27AAE1;stroke:none;" transform="matrix(1 0 0 1 339 1126)">
   <path d="M0.976562 0L3.66211 0L12.9883-24.4629L45.752-24.4629L55.127 0L57.7637 0L30.6152-70.459L28.125-70.459ZM29.3457-67.1387L29.4434-67.1387L44.873-26.709L13.8672-26.709Z"/>
  </g>
  <line id="Baseline-M" style="fill:none;stroke:#27AAE1;opacity:1;stroke-width:0.5;" x1="263" x2="3036" y1="1126" y2="1126"/>
  <line id="Capline-M" style="fill:none;stroke:#27AAE1;opacity:1;stroke-width:0.5;" x1="263" x2="3036" y1="1055.54" y2="1055.54"/>
  <g id="H-reference" style="fill:#27AAE1;stroke:none;" transform="matrix(1 0 0 1 339 1556)">
   <path d="M0.976562 0L3.66211 0L12.9883-24.4629L45.752-24.4629L55.127 0L57.7637 0L30.6152-70.459L28.125-70.459ZM29.3457-67.1387L29.4434-67.1387L44.873-26.709L13.8672-26.709Z"/>
  </g>
  <line id="Baseline-L" style="fill:none;stroke:#27AAE1;opacity:1;stroke-width:0.5;" x1="263" x2="3036" y1="1556" y2="1556"/>
  <line id="Capline-L" style="fill:none;stroke:#27AAE1;opacity:1;stroke-width:0.5;" x1="263" x2="3036" y1="1485.54" y2="1485.54"/>
  <line id="left-margin" style="fill:none;stroke:#00AEEF;stroke-width:0.5;opacity:1.0;" x1="1391.3" x2="1391.3" y1="1030.79" y2="1150.12"/>
  <line id="right-margin" style="fill:none;stroke:#00AEEF;stroke-width:0.5;opacity:1.0;" x1="1508.39" x2="1508.39" y1="1030.79" y2="1150.12"/>
 </g>
 <g id="Symbols">
  <g id="Black-L" transform="matrix(1 0 0 1 2854.05 1556)">
   <path d="M79.3457 32.8613C116.748 32.8613 147.412 2.19727 147.412-35.2051C147.412-72.6074 116.748-103.271 79.2969-103.271C41.8945-103.271 11.2793-72.6074 11.2793-35.2051C11.2793 2.19727 41.9434 32.8613 79.3457 32.8613ZM79.3457 12.4023C52.9785 12.4023 31.7383-8.83789 31.7383-35.2051C31.7383-61.5723 52.9297-82.8125 79.2969-82.8125C105.664-82.8125 126.953-61.5723 126.953-35.2051C127.002-8.83789 105.713 12.4023 79.3457 12.4023ZM55.8594-49.0234L102.832-49.0234C107.178-49.0234 110.205-51.7578 110.205-55.8105C110.205-59.9121 107.178-62.6953 102.832-62.6953L55.8594-62.6953C51.5137-62.6953 48.4863-59.9121 48.4863-55.8105C48.4863-51.7578 51.5137-49.0234 55.8594-49.0234ZM55.8594-28.418L102.832-28.418C107.178-28.418 110.205-31.1523 110.205-35.2051C110.205-39.2578 107.178-42.0898 102.832-42.0898L55.8594-42.0898C51.5137-42.0898 48.4863-39.2578 48.4863-35.2051C48.4863-31.1523 51.5137-28.418 55.8594-28.418ZM55.8594-7.8125L102.832-7.8125C107.178-7.8125 110.205-10.5469 110.205-14.5996C110.205-18.6523 107.178-21.4355 102.832-21.4355L55.8594-21.4355C51.5137-21.4355 48.4863-18.6523 48.4863-14.5996C48.4863-10.5469 51.5137-7.8125 55.8594-7.8125Z"/>
  </g>
  <g id="Heavy-L" transform="matrix(1 0 0 1 2558.39 1556)">
   <path d="M78.2715 31.7871C115.088 31.7871 145.312 1.5625 145.312-35.2051C145.312-72.0215 115.039-102.246 78.2715-102.246C41.4551-102.246 11.2793-72.0215 11.2793-35.2051C11.2793 1.5625 41.5039 31.7871 78.2715 31.7871ZM78.2715 14.0137C51.0254 14.0137 29.0527-7.95898 29.0527-35.2051C29.0527-62.5 50.9766-84.4727 78.2715-84.4727C105.518-84.4727 127.49-62.5 127.539-35.2051C127.539-7.95898 105.566 14.0137 78.2715 14.0137ZM52.6367-49.8047L103.955-49.8047C107.861-49.8047 110.547-52.2461 110.547-55.9082C110.547-59.5215 107.861-62.0605 103.955-62.0605L52.6367-62.0605C48.7793-62.0605 46.0449-59.5215 46.0449-55.9082C46.0449-52.2461 48.7793-49.8047 52.6367-49.8047ZM52.6367-29.1016L103.955-29.1016C107.861-29.1016 110.547-31.5918 110.547-35.2051C110.547-38.8672 107.861-41.3574 103.955-41.3574L52.6367-41.3574C48.7793-41.3574 46.0449-38.8672 46.0449-35.2051C46.0449-31.5918 48.7793-29.1016 52.6367-29.1016ZM52.6367-8.44727L103.955-8.44727C107.861-8.44727 110.547-10.8887 110.547-14.5508C110.547-18.2129 107.861-20.7031 103.955-20.7031L52.6367-20.7031C48.7793-20.7031 46.0449-18.2129 46.0449-14.5508C46.0449-10.8887 48.7793-8.44727 52.6367-8.44727Z"/>
  </g>
  <g id="Bold-L" transform="matrix(1 0 0 1 2262.88 1556)">
   <path d="M77.0996 30.5664C113.232 30.5664 142.92 0.878906 142.92-35.2539C142.92-71.3379 113.184-101.074 77.0508-101.074C40.9668-101.074 11.2793-71.3379 11.2793-35.2539C11.2793 0.878906 41.0156 30.5664 77.0996 30.5664ZM77.0996 15.8203C48.8281 15.8203 26.0742-6.98242 26.0742-35.2539C26.0742-63.5254 48.7793-86.2793 77.0508-86.2793C105.371-86.2793 128.125-63.5254 128.174-35.2539C128.174-6.98242 105.371 15.8203 77.0996 15.8203ZM49.0234-50.6348L105.225-50.6348C108.594-50.6348 110.986-52.7832 110.986-55.957C110.986-59.1309 108.594-61.3281 105.225-61.3281L49.0234-61.3281C45.6543-61.3281 43.2617-59.1309 43.2617-55.957C43.2617-52.7832 45.6543-50.6348 49.0234-50.6348ZM49.0234-29.9316L105.225-29.9316C108.594-29.9316 110.986-32.0312 110.986-35.2539C110.986-38.4277 108.594-40.5762 105.225-40.5762L49.0234-40.5762C45.6543-40.5762 43.2617-38.4277 43.2617-35.2539C43.2617-32.0312 45.6543-29.9316 49.0234-29.9316ZM49.0234-9.17969L105.225-9.17969C108.594-9.17969 110.986-11.2793 110.986-14.4531C110.986-17.6758 108.594-19.8242 105.225-19.8242L49.0234-19.8242C45.6543-19.8242 43.2617-17.6758 43.2617-14.4531C43.2617-11.2793 45.6543-9.17969 49.0234-9.17969Z"/>
  </g>
  <g id="Semibold-L" transform="matrix(1 0 0 1 1966.97 1556)">
   <path d="M76.2695 29.7363C111.914 29.7363 141.309 0.390625 141.309-35.2539C141.309-70.8984 111.865-100.244 76.2695-100.244C40.625-100.244 11.2793-70.8984 11.2793-35.2539C11.2793 0.390625 40.6738 29.7363 76.2695 29.7363ZM76.2695 17.041C47.3145 17.041 24.0234-6.25 24.0234-35.2539C24.0234-64.209 47.2656-87.5488 76.2695-87.5488C105.225-87.5488 128.564-64.209 128.613-35.2539C128.662-6.25 105.273 17.041 76.2695 17.041ZM46.5332-51.2207L106.104-51.2207C109.131-51.2207 111.23-53.125 111.23-56.0059C111.23-58.8867 109.131-60.791 106.104-60.791L46.5332-60.791C43.5059-60.791 41.4062-58.8867 41.4062-56.0059C41.4062-53.125 43.5059-51.2207 46.5332-51.2207ZM46.5332-30.4688L106.104-30.4688C109.131-30.4688 111.23-32.373 111.23-35.2539C111.23-38.1348 109.131-40.0391 106.104-40.0391L46.5332-40.0391C43.5059-40.0391 41.4062-38.1348 41.4062-35.2539C41.4062-32.373 43.5059-30.4688 46.5332-30.4688ZM46.5332-9.66797L106.104-9.66797C109.131-9.66797 111.23-11.5723 111.23-14.4531C111.23-17.2852 109.131-19.2383 106.104-19.2383L46.5332-19.2383C43.5059-19.2383 41.4062-17.2852 41.4062-14.4531C41.4062-11.5723 43.5059-9.66797 46.5332-9.66797Z"/>
  </g>
  <g id="Medium-L" transform="matrix(1 0 0 1 1670.87 1556)">
   <path d="M75.6836 29.1504C110.938 29.1504 140.088 0 140.088-35.2539C140.088-70.5078 110.889-99.6582 75.6348-99.6582C40.3809-99.6582 11.2793-70.5078 11.2793-35.2539C11.2793 0 40.3809 29.1504 75.6836 29.1504ZM75.6836 18.0176C46.1426 18.0176 22.4609-5.76172 22.4609-35.2539C22.4609-64.7461 46.1426-88.5254 75.6348-88.5254C105.127-88.5254 128.906-64.7461 128.906-35.2539C128.955-5.76172 105.176 18.0176 75.6836 18.0176ZM44.6289-51.6602L106.787-51.6602C109.521-51.6602 111.475-53.418 111.475-56.0547C111.475-58.6426 109.521-60.4004 106.787-60.4004L44.6289-60.4004C41.8945-60.4004 39.9414-58.6426 39.9414-56.0547C39.9414-53.418 41.8945-51.6602 44.6289-51.6602ZM44.6289-30.9082L106.787-30.9082C109.521-30.9082 111.475-32.6172 111.475-35.2539C111.475-37.8906 109.521-39.6484 106.787-39.6484L44.6289-39.6484C41.8945-39.6484 39.9414-37.8906 39.9414-35.2539C39.9414-32.6172 41.8945-30.9082 44.6289-30.9082ZM44.6289-10.0586L106.787-10.0586C109.521-10.0586 111.475-11.7676 111.475-14.4043C111.475-17.041 109.521-18.7988 106.787-18.7988L44.6289-18.7988C41.8945-18.7988 39.9414-17.041 39.9414-14.4043C39.9414-11.7676 41.8945-10.0586 44.6289-10.0586Z"/>
  </g>
  <g id="Regular-L" transform="matrix(1 0 0 1 1374.97 1556)">
   <path d="M74.8535 28.3203C109.668 28.3203 138.477-0.488281 138.477-35.2539C138.477-70.0684 109.619-98.877 74.8047-98.877C40.0391-98.877 11.2793-70.0684 11.2793-35.2539C11.2793-0.488281 40.0879 28.3203 74.8535 28.3203ZM74.8535 19.2383C44.6777 19.2383 20.4102-5.07812 20.4102-35.2539C20.4102-65.4785 44.6289-89.7461 74.8047-89.7461C105.029-89.7461 129.297-65.4785 129.346-35.2539C129.395-5.07812 105.078 19.2383 74.8535 19.2383ZM42.1875-52.2461L107.666-52.2461C110.01-52.2461 111.719-53.8086 111.719-56.1035C111.719-58.3984 110.01-59.9121 107.666-59.9121L42.1875-59.9121C39.7949-59.9121 38.0859-58.3984 38.0859-56.1035C38.0859-53.8086 39.7949-52.2461 42.1875-52.2461ZM42.1875-31.4453L107.666-31.4453C110.01-31.4453 111.719-32.959 111.719-35.2539C111.719-37.5488 110.01-39.1113 107.666-39.1113L42.1875-39.1113C39.7949-39.1113 38.0859-37.5488 38.0859-35.2539C38.0859-32.959 39.7949-31.4453 42.1875-31.4453ZM42.1875-10.5469L107.666-10.5469C110.01-10.5469 111.719-12.0605 111.719-14.3555C111.719-16.6504 110.01-18.2129 107.666-18.2129L42.1875-18.2129C39.7949-18.2129 38.0859-16.6504 38.0859-14.3555C38.0859-12.0605 39.7949-10.5469 42.1875-10.5469Z"/>
  </g>
  <g id="Light-L" transform="matrix(1 0 0 1 1079.18 1556)">
   <path d="M73.9258 27.3926C108.301 27.3926 136.621-0.927734 136.621-35.2539C136.621-69.6289 108.252-97.9492 73.9258-97.9492C39.5508-97.9492 11.2793-69.6289 11.2793-35.2539C11.2793-0.927734 39.5996 27.3926 73.9258 27.3926ZM73.9258 20.5078C43.1152 20.5078 18.2129-4.44336 18.2129-35.2539C18.2129-66.1133 43.0664-91.0156 73.9258-91.0156C104.736-91.0156 129.688-66.1133 129.736-35.2539C129.736-4.44336 104.785 20.5078 73.9258 20.5078ZM40.0391-53.0273L107.959-53.0273C109.766-53.0273 111.133-54.248 111.133-56.0547C111.133-57.8125 109.766-59.0332 107.959-59.0332L40.0391-59.0332C38.1836-59.0332 36.8164-57.8125 36.8164-56.0547C36.8164-54.248 38.1836-53.0273 40.0391-53.0273ZM40.0391-32.2754L107.959-32.2754C109.766-32.2754 111.133-33.4473 111.133-35.2539C111.133-37.0605 109.766-38.2812 107.959-38.2812L40.0391-38.2812C38.1836-38.2812 36.8164-37.0605 36.8164-35.2539C36.8164-33.4473 38.1836-32.2754 40.0391-32.2754ZM40.0391-11.377L107.959-11.377C109.766-11.377 111.133-12.5488 111.133-14.3555C111.133-16.1621 109.766-17.3828 107.959-17.3828L40.0391-17.3828C38.1836-17.3828 36.8164-16.1621 36.8164-14.3555C36.8164-12.5488 38.1836-11.377 40.0391-11.377Z"/>
  </g>
  <g id="Thin-L" transform="matrix(1 0 0 1 783.693 1556)">
   <path d="M72.7051 26.1719C106.494 26.1719 134.18-1.51367 134.18-35.2539C134.18-69.043 106.494-96.7285 72.7051-96.7285C38.9648-96.7285 11.2793-69.043 11.2793-35.2539C11.2793-1.51367 38.9648 26.1719 72.7051 26.1719ZM72.7051 22.168C41.0156 22.168 15.2832-3.56445 15.2832-35.2539C15.2832-66.9922 41.0156-92.7246 72.7051-92.7246C104.395-92.7246 130.176-66.9922 130.176-35.2539C130.176-3.56445 104.443 22.168 72.7051 22.168ZM37.207-54.0527L108.398-54.0527C109.473-54.0527 110.303-54.834 110.303-55.957C110.303-57.0801 109.473-57.8613 108.398-57.8613L37.207-57.8613C36.0352-57.8613 35.2051-57.0801 35.2051-55.957C35.2051-54.834 36.0352-54.0527 37.207-54.0527ZM37.207-33.3496L108.398-33.3496C109.473-33.3496 110.303-34.1309 110.303-35.2539C110.303-36.4258 109.473-37.1582 108.398-37.1582L37.207-37.1582C36.0352-37.1582 35.2051-36.4258 35.2051-35.2539C35.2051-34.1309 36.0352-33.3496 37.207-33.3496ZM37.207-12.4512L108.398-12.4512C109.473-12.4512 110.303-13.2324 110.303-14.3555C110.303-15.4785 109.473-16.2598 108.398-16.2598L37.207-16.2598C36.0352-16.2598 35.2051-15.4785 35.2051-14.3555C35.2051-13.2324 36.0352-12.4512 37.207-12.4512Z"/>
  </g>
  <g id="Ultralight-L" transform="matrix(1 0 0 1 487.616 1556)">
   <path d="M72.1191 25.5371C105.566 25.5371 132.91-1.80664 132.91-35.2539C132.91-68.75 105.566-96.0938 72.1191-96.0938C38.623-96.0938 11.2793-68.75 11.2793-35.2539C11.2793-1.80664 38.623 25.5371 72.1191 25.5371ZM72.1191 23.0469C39.9414 23.0469 13.7695-3.125 13.7695-35.2539C13.7695-67.4316 39.9414-93.6035 72.1191-93.6035C104.248-93.6035 130.42-67.4316 130.42-35.2539C130.42-3.125 104.248 23.0469 72.1191 23.0469ZM35.7422-54.5898L108.594-54.5898C109.326-54.5898 109.912-55.127 109.912-55.9082C109.912-56.7383 109.326-57.2754 108.594-57.2754L35.7422-57.2754C34.9609-57.2754 34.375-56.7383 34.375-55.9082C34.375-55.127 34.9609-54.5898 35.7422-54.5898ZM35.7422-33.9355L108.594-33.9355C109.326-33.9355 109.912-34.4727 109.912-35.2539C109.912-36.084 109.326-36.6211 108.594-36.6211L35.7422-36.6211C34.9609-36.6211 34.375-36.084 34.375-35.2539C34.375-34.4727 34.9609-33.9355 35.7422-33.9355ZM35.7422-13.0371L108.594-13.0371C109.326-13.0371 109.912-13.5742 109.912-14.3555C109.912-15.1855 109.326-15.6738 108.594-15.6738L35.7422-15.6738C34.9609-15.6738 34.375-15.1855 34.375-14.3555C34.375-13.5742 34.9609-13.0371 35.7422-13.0371Z"/>
  </g>
  <g id="Black-M" transform="matrix(1 0 0 1 2870.97 1126)">
   <path d="M62.4023 18.457C91.9922 18.457 116.113-5.61523 116.113-35.2051C116.113-64.7949 91.9922-88.8672 62.4023-88.8672C32.8125-88.8672 8.74023-64.7949 8.74023-35.2051C8.74023-5.61523 32.8125 18.457 62.4023 18.457ZM62.4023 0.195312C42.8711 0.195312 27.002-15.625 27.002-35.2051C27.002-54.7363 42.8711-70.6055 62.4023-70.6055C81.9824-70.6055 97.8027-54.7363 97.8027-35.2051C97.8027-15.625 81.9824 0.195312 62.4023 0.195312ZM46.5332-45.3125L78.3203-45.3125C82.0312-45.3125 84.5703-47.6074 84.5703-51.0742C84.5703-54.541 82.0312-56.9336 78.3203-56.9336L46.5332-56.9336C42.8223-56.9336 40.2344-54.541 40.2344-51.0742C40.2344-47.6074 42.8223-45.3125 46.5332-45.3125ZM46.5332-29.4434L78.3203-29.4434C82.0312-29.4434 84.5703-31.7383 84.5703-35.2051C84.5703-38.6719 82.0312-41.0156 78.3203-41.0156L46.5332-41.0156C42.8223-41.0156 40.2344-38.6719 40.2344-35.2051C40.2344-31.7383 42.8223-29.4434 46.5332-29.4434ZM46.5332-13.5254L78.3203-13.5254C82.0312-13.5254 84.5703-15.8691 84.5703-19.3359C84.5703-22.7539 82.0312-25.1465 78.3203-25.1465L46.5332-25.1465C42.8223-25.1465 40.2344-22.7539 40.2344-19.3359C40.2344-15.8691 42.8223-13.5254 46.5332-13.5254Z"/>
  </g>
  <g id="Heavy-M" transform="matrix(1 0 0 1 2575.19 1126)">
   <path d="M61.5234 17.5293C90.5273 17.5293 114.258-6.20117 114.258-35.2051C114.258-64.2578 90.5273-87.9883 61.4746-87.9883C32.4707-87.9883 8.74023-64.2578 8.74023-35.2051C8.74023-6.20117 32.4707 17.5293 61.5234 17.5293ZM61.5234 1.61133C41.1133 1.61133 24.6582-14.8438 24.6582-35.2051C24.6582-55.6152 41.1133-72.0703 61.4746-72.0703C81.8848-72.0703 98.3398-55.6152 98.3398-35.2051C98.3398-14.8438 81.8848 1.61133 61.5234 1.61133ZM43.5547-45.9473L79.4922-45.9473C82.8125-45.9473 85.1562-48.0469 85.1562-51.1719C85.1562-54.2969 82.8125-56.4453 79.4922-56.4453L43.5547-56.4453C40.1855-56.4453 37.8906-54.2969 37.8906-51.1719C37.8906-48.0469 40.1855-45.9473 43.5547-45.9473ZM43.5547-29.9805L79.4922-29.9805C82.8125-29.9805 85.1562-32.0801 85.1562-35.2051C85.1562-38.3301 82.8125-40.4785 79.4922-40.4785L43.5547-40.4785C40.1855-40.4785 37.8906-38.3301 37.8906-35.2051C37.8906-32.0801 40.1855-29.9805 43.5547-29.9805ZM43.5547-14.0137L79.4922-14.0137C82.8125-14.0137 85.1562-16.1133 85.1562-19.2383C85.1562-22.3633 82.8125-24.5117 79.4922-24.5117L43.5547-24.5117C40.1855-24.5117 37.8906-22.3633 37.8906-19.2383C37.8906-16.1133 40.1855-14.0137 43.5547-14.0137Z"/>
  </g>
  <g id="Bold-M" transform="matrix(1 0 0 1 2279.5 1126)">
   <path d="M60.498 16.5039C88.8672 16.5039 112.207-6.83594 112.207-35.2051C112.207-63.623 88.8672-86.9629 60.4492-86.9629C32.0312-86.9629 8.74023-63.623 8.74023-35.2051C8.74023-6.83594 32.0801 16.5039 60.498 16.5039ZM60.498 3.22266C39.1602 3.22266 22.0703-13.916 22.0703-35.2051C22.0703-56.543 39.1602-73.6816 60.4492-73.6816C81.7383-73.6816 98.9258-56.543 98.9258-35.2051C98.9746-13.916 81.7871 3.22266 60.498 3.22266ZM40.2344-46.6309L80.7617-46.6309C83.6914-46.6309 85.791-48.4863 85.791-51.2695C85.791-54.0039 83.6914-55.9082 80.7617-55.9082L40.2344-55.9082C37.3047-55.9082 35.2051-54.0039 35.2051-51.2695C35.2051-48.4863 37.3047-46.6309 40.2344-46.6309ZM40.2344-30.6152L80.7617-30.6152C83.6914-30.6152 85.791-32.4707 85.791-35.2051C85.791-37.9883 83.6914-39.8926 80.7617-39.8926L40.2344-39.8926C37.3047-39.8926 35.2051-37.9883 35.2051-35.2051C35.2051-32.4707 37.3047-30.6152 40.2344-30.6152ZM40.2344-14.5996L80.7617-14.5996C83.6914-14.5996 85.791-16.4062 85.791-19.1895C85.791-21.9238 83.6914-23.8281 80.7617-23.8281L40.2344-23.8281C37.3047-23.8281 35.2051-21.9238 35.2051-19.1895C35.2051-16.4062 37.3047-14.5996 40.2344-14.5996Z"/>
  </g>
  <g id="Semibold-M" transform="matrix(1 0 0 1 1983.5 1126)">
   <path d="M59.7656 15.8203C87.7441 15.8203 110.791-7.27539 110.791-35.2539C110.791-63.2324 87.6953-86.2793 59.7656-86.2793C31.7871-86.2793 8.74023-63.2324 8.74023-35.2539C8.74023-7.27539 31.7871 15.8203 59.7656 15.8203ZM59.7656 4.3457C37.8418 4.3457 20.2637-13.3301 20.2637-35.2539C20.2637-57.1777 37.793-74.8047 59.7656-74.8047C81.6895-74.8047 99.3164-57.1777 99.3652-35.2539C99.3652-13.3301 81.6895 4.3457 59.7656 4.3457ZM37.9395-47.1191L81.6895-47.1191C84.3262-47.1191 86.1816-48.8281 86.1816-51.3184C86.1816-53.8086 84.3262-55.5176 81.6895-55.5176L37.9395-55.5176C35.2539-55.5176 33.3984-53.8086 33.3984-51.3184C33.3984-48.8281 35.2539-47.1191 37.9395-47.1191ZM37.9395-31.0547L81.6895-31.0547C84.3262-31.0547 86.1816-32.7148 86.1816-35.2539C86.1816-37.7441 84.3262-39.4531 81.6895-39.4531L37.9395-39.4531C35.2539-39.4531 33.3984-37.7441 33.3984-35.2539C33.3984-32.7148 35.2539-31.0547 37.9395-31.0547ZM37.9395-14.9414L81.6895-14.9414C84.3262-14.9414 86.1816-16.6504 86.1816-19.1406C86.1816-21.6309 84.3262-23.3398 81.6895-23.3398L37.9395-23.3398C35.2539-23.3398 33.3984-21.6309 33.3984-19.1406C33.3984-16.6504 35.2539-14.9414 37.9395-14.9414Z"/>
  </g>
  <g id="Medium-M" transform="matrix(1 0 0 1 1687.3 1126)">
   <path d="M59.2285 15.2344C86.9141 15.2344 109.766-7.61719 109.766-35.2539C109.766-62.8906 86.8652-85.7422 59.1797-85.7422C31.543-85.7422 8.74023-62.8906 8.74023-35.2539C8.74023-7.61719 31.5918 15.2344 59.2285 15.2344ZM59.2285 5.17578C36.8164 5.17578 18.8965-12.8418 18.8965-35.2539C18.8965-57.666 36.8164-75.6348 59.1797-75.6348C81.5918-75.6348 99.6094-57.666 99.6582-35.2539C99.707-12.8418 81.6406 5.17578 59.2285 5.17578ZM36.1816-47.5098L82.373-47.5098C84.8145-47.5098 86.5234-49.0234 86.5234-51.3672C86.5234-53.6621 84.8145-55.2246 82.373-55.2246L36.1816-55.2246C33.7402-55.2246 32.0312-53.6621 32.0312-51.3672C32.0312-49.0234 33.7402-47.5098 36.1816-47.5098ZM36.1816-31.3965L82.373-31.3965C84.8145-31.3965 86.5234-32.9102 86.5234-35.2539C86.5234-37.5488 84.8145-39.1113 82.373-39.1113L36.1816-39.1113C33.7402-39.1113 32.0312-37.5488 32.0312-35.2539C32.0312-32.9102 33.7402-31.3965 36.1816-31.3965ZM36.1816-15.2344L82.373-15.2344C84.8145-15.2344 86.5234-16.7969 86.5234-19.0918C86.5234-21.4355 84.8145-22.998 82.373-22.998L36.1816-22.998C33.7402-22.998 32.0312-21.4355 32.0312-19.0918C32.0312-16.7969 33.7402-15.2344 36.1816-15.2344Z"/>
  </g>
  <g id="Regular-M" transform="matrix(1 0 0 1 1391.3 1126)">
   <path d="M58.5449 14.5508C85.791 14.5508 108.35-8.05664 108.35-35.2539C108.35-62.5 85.7422-85.0586 58.4961-85.0586C31.2988-85.0586 8.74023-62.5 8.74023-35.2539C8.74023-8.05664 31.3477 14.5508 58.5449 14.5508ZM58.5449 6.25C35.498 6.25 17.0898-12.207 17.0898-35.2539C17.0898-58.3008 35.4492-76.7578 58.4961-76.7578C81.543-76.7578 100-58.3008 100.049-35.2539C100.098-12.207 81.5918 6.25 58.5449 6.25ZM33.9355-47.998L83.252-47.998C85.4004-47.998 86.9629-49.3652 86.9629-51.416C86.9629-53.4668 85.4004-54.8828 83.252-54.8828L33.9355-54.8828C31.7383-54.8828 30.2246-53.4668 30.2246-51.416C30.2246-49.3652 31.7383-47.998 33.9355-47.998ZM33.9355-31.8359L83.252-31.8359C85.4004-31.8359 86.9629-33.2031 86.9629-35.2539C86.9629-37.3047 85.4004-38.7207 83.252-38.7207L33.9355-38.7207C31.7383-38.7207 30.2246-37.3047 30.2246-35.2539C30.2246-33.2031 31.7383-31.8359 33.9355-31.8359ZM33.9355-15.625L83.252-15.625C85.4004-15.625 86.9629-16.9922 86.9629-19.043C86.9629-21.1426 85.4004-22.5098 83.252-22.5098L33.9355-22.5098C31.7383-22.5098 30.2246-21.1426 30.2246-19.043C30.2246-16.9922 31.7383-15.625 33.9355-15.625Z"/>
  </g>
  <g id="Light-M" transform="matrix(1 0 0 1 1095.42 1126)">
   <path d="M57.7148 13.7207C84.5215 13.7207 106.689-8.44727 106.689-35.2539C106.689-62.1094 84.5215-84.2285 57.666-84.2285C30.8594-84.2285 8.74023-62.1094 8.74023-35.2539C8.74023-8.44727 30.9082 13.7207 57.7148 13.7207ZM57.7148 7.37305C34.082 7.37305 15.0879-11.6699 15.0879-35.2539C15.0879-58.8867 34.082-77.9297 57.666-77.9297C81.2988-77.9297 100.342-58.8867 100.391-35.2539C100.391-11.6699 81.3477 7.37305 57.7148 7.37305ZM31.9824-48.6816L83.5449-48.6816C85.2051-48.6816 86.4258-49.7559 86.4258-51.3672C86.4258-52.9785 85.2051-54.0527 83.5449-54.0527L31.9824-54.0527C30.3223-54.0527 29.1016-52.9785 29.1016-51.3672C29.1016-49.7559 30.3223-48.6816 31.9824-48.6816ZM31.9824-32.5684L83.5449-32.5684C85.2051-32.5684 86.4258-33.6426 86.4258-35.2539C86.4258-36.8652 85.2051-37.9395 83.5449-37.9395L31.9824-37.9395C30.3223-37.9395 29.1016-36.8652 29.1016-35.2539C29.1016-33.6426 30.3223-32.5684 31.9824-32.5684ZM31.9824-16.3574L83.5449-16.3574C85.2051-16.3574 86.4258-17.4316 86.4258-19.043C86.4258-20.6543 85.2051-21.7773 83.5449-21.7773L31.9824-21.7773C30.3223-21.7773 29.1016-20.6543 29.1016-19.043C29.1016-17.4316 30.3223-16.3574 31.9824-16.3574Z"/>
  </g>
  <g id="Thin-M" transform="matrix(1 0 0 1 799.806 1126)">
   <path d="M56.6406 12.5977C82.9102 12.5977 104.492-8.98438 104.492-35.2539C104.492-61.5723 82.9102-83.1543 56.5918-83.1543C30.3223-83.1543 8.74023-61.5723 8.74023-35.2539C8.74023-8.98438 30.3223 12.5977 56.6406 12.5977ZM56.6406 8.88672C32.2266 8.88672 12.4512-10.8887 12.4512-35.2539C12.4512-59.6191 32.2266-79.4434 56.5918-79.4434C81.0059-79.4434 100.781-59.6191 100.781-35.2539C100.781-10.8887 81.0059 8.88672 56.6406 8.88672ZM29.4434-49.6094L83.9355-49.6094C84.9121-49.6094 85.6934-50.293 85.6934-51.3184C85.6934-52.3438 84.9121-53.0273 83.9355-53.0273L29.4434-53.0273C28.418-53.0273 27.6367-52.3438 27.6367-51.3184C27.6367-50.293 28.418-49.6094 29.4434-49.6094ZM29.4434-33.5449L83.9355-33.5449C84.9121-33.5449 85.6934-34.2285 85.6934-35.2539C85.6934-36.2793 84.9121-36.9629 83.9355-36.9629L29.4434-36.9629C28.418-36.9629 27.6367-36.2793 27.6367-35.2539C27.6367-34.2285 28.418-33.5449 29.4434-33.5449ZM29.4434-17.334L83.9355-17.334C84.9121-17.334 85.6934-18.0176 85.6934-19.043C85.6934-20.0684 84.9121-20.752 83.9355-20.752L29.4434-20.752C28.418-20.752 27.6367-20.0684 27.6367-19.043C27.6367-18.0176 28.418-17.334 29.4434-17.334Z"/>
  </g>
  <g id="Ultralight-M" transform="matrix(1 0 0 1 503.656 1126)">
   <path d="M56.0547 12.0605C82.0801 12.0605 103.369-9.22852 103.369-35.2539C103.369-61.2793 82.0801-82.5684 56.0547-82.5684C30.0293-82.5684 8.74023-61.2793 8.74023-35.2539C8.74023-9.22852 30.0293 12.0605 56.0547 12.0605ZM56.0547 9.66797C31.2988 9.66797 11.1328-10.498 11.1328-35.2539C11.1328-60.0586 31.2988-80.1758 56.0547-80.1758C80.8594-80.1758 100.977-60.0586 100.977-35.2539C100.977-10.498 80.8594 9.66797 56.0547 9.66797ZM28.125-50.0488L84.1309-50.0488C84.7656-50.0488 85.3027-50.5371 85.3027-51.2695C85.3027-52.002 84.7656-52.4902 84.1309-52.4902L28.125-52.4902C27.4414-52.4902 26.9043-52.002 26.9043-51.2695C26.9043-50.5371 27.4414-50.0488 28.125-50.0488ZM28.125-34.0332L84.1309-34.0332C84.7656-34.0332 85.3027-34.5215 85.3027-35.2539C85.3027-35.9863 84.7656-36.4746 84.1309-36.4746L28.125-36.4746C27.4414-36.4746 26.9043-35.9863 26.9043-35.2539C26.9043-34.5215 27.4414-34.0332 28.125-34.0332ZM28.125-17.8711L84.1309-17.8711C84.7656-17.8711 85.3027-18.3105 85.3027-19.043C85.3027-19.7754 84.7656-20.2637 84.1309-20.2637L28.125-20.2637C27.4414-20.2637 26.9043-19.7754 26.9043-19.043C26.9043-18.3105 27.4414-17.8711 28.125-17.8711Z"/>
  </g>
  <g id="Black-S" transform="matrix(1 0 0 1 2884.57 696)">
   <path d="M48.8281 6.78711C71.9727 6.78711 90.8203-12.0605 90.8203-35.2051C90.8203-58.3496 71.9727-77.1973 48.8281-77.1973C25.6836-77.1973 6.83594-58.3496 6.83594-35.2051C6.83594-12.0605 25.6836 6.78711 48.8281 6.78711ZM48.8281-7.37305C33.4473-7.37305 20.9961-19.8242 20.9961-35.2051C20.9961-50.5859 33.4473-63.0371 48.8281-63.0371C64.209-63.0371 76.6602-50.5859 76.6602-35.2051C76.6602-19.8242 64.209-7.37305 48.8281-7.37305ZM36.2305-43.1641L61.4258-43.1641C64.3066-43.1641 66.3086-44.9707 66.3086-47.6562C66.3086-50.3418 64.3066-52.1973 61.4258-52.1973L36.2305-52.1973C33.3496-52.1973 31.3477-50.3418 31.3477-47.6562C31.3477-44.9707 33.3496-43.1641 36.2305-43.1641ZM36.2305-30.7129L61.4258-30.7129C64.3066-30.7129 66.3086-32.5195 66.3086-35.2051C66.3086-37.8906 64.3066-39.7461 61.4258-39.7461L36.2305-39.7461C33.3496-39.7461 31.3477-37.8906 31.3477-35.2051C31.3477-32.5195 33.3496-30.7129 36.2305-30.7129ZM36.2305-18.2617L61.4258-18.2617C64.3066-18.2617 66.3086-20.0684 66.3086-22.7539C66.3086-25.4395 64.3066-27.2949 61.4258-27.2949L36.2305-27.2949C33.3496-27.2949 31.3477-25.4395 31.3477-22.7539C31.3477-20.0684 33.3496-18.2617 36.2305-18.2617Z"/>
  </g>
  <g id="Heavy-S" transform="matrix(1 0 0 1 2588.47 696)">
   <path d="M48.2422 6.15234C70.9961 6.15234 89.5996-12.4512 89.5996-35.2051C89.5996-57.959 70.9961-76.6113 48.1934-76.6113C25.4395-76.6113 6.83594-57.959 6.83594-35.2051C6.83594-12.4512 25.4395 6.15234 48.2422 6.15234ZM48.2422-6.39648C32.2754-6.39648 19.4336-19.2871 19.4336-35.2051C19.4336-51.1719 32.2754-64.0137 48.1934-64.0137C64.1602-64.0137 77.002-51.1719 77.0508-35.2051C77.0508-19.2871 64.1602-6.39648 48.2422-6.39648ZM34.1797-43.5547L62.3047-43.5547C64.9414-43.5547 66.7969-45.2148 66.7969-47.7051C66.7969-50.1953 64.9414-51.9043 62.3047-51.9043L34.1797-51.9043C31.4941-51.9043 29.6387-50.1953 29.6387-47.7051C29.6387-45.2148 31.4941-43.5547 34.1797-43.5547ZM34.1797-31.0547L62.3047-31.0547C64.9414-31.0547 66.7969-32.7148 66.7969-35.2051C66.7969-37.6953 64.9414-39.4043 62.3047-39.4043L34.1797-39.4043C31.4941-39.4043 29.6387-37.6953 29.6387-35.2051C29.6387-32.7148 31.4941-31.0547 34.1797-31.0547ZM34.1797-18.5547L62.3047-18.5547C64.9414-18.5547 66.7969-20.2148 66.7969-22.7051C66.7969-25.1953 64.9414-26.9043 62.3047-26.9043L34.1797-26.9043C31.4941-26.9043 29.6387-25.1953 29.6387-22.7051C29.6387-20.2148 31.4941-18.5547 34.1797-18.5547Z"/>
  </g>
  <g id="Bold-S" transform="matrix(1 0 0 1 2292.44 696)">
   <path d="M47.5586 5.46875C69.873 5.46875 88.2324-12.8906 88.2324-35.2539C88.2324-57.5684 69.873-75.9277 47.5098-75.9277C25.1953-75.9277 6.83594-57.5684 6.83594-35.2539C6.83594-12.8906 25.1953 5.46875 47.5586 5.46875ZM47.5586-5.32227C30.957-5.32227 17.6758-18.6523 17.6758-35.2539C17.6758-51.8066 30.957-65.1367 47.5098-65.1367C64.1113-65.1367 77.4414-51.8066 77.4414-35.2539C77.4414-18.6523 64.1113-5.32227 47.5586-5.32227ZM31.8359-44.043L63.2324-44.043C65.6738-44.043 67.334-45.5566 67.334-47.8027C67.334-50.0488 65.6738-51.6113 63.2324-51.6113L31.8359-51.6113C29.4434-51.6113 27.7832-50.0488 27.7832-47.8027C27.7832-45.5566 29.4434-44.043 31.8359-44.043ZM31.8359-31.4453L63.2324-31.4453C65.6738-31.4453 67.334-32.959 67.334-35.2539C67.334-37.5 65.6738-39.0137 63.2324-39.0137L31.8359-39.0137C29.4434-39.0137 27.7832-37.5 27.7832-35.2539C27.7832-32.959 29.4434-31.4453 31.8359-31.4453ZM31.8359-18.8965L63.2324-18.8965C65.6738-18.8965 67.334-20.4102 67.334-22.6562C67.334-24.9023 65.6738-26.4648 63.2324-26.4648L31.8359-26.4648C29.4434-26.4648 27.7832-24.9023 27.7832-22.6562C27.7832-20.4102 29.4434-18.8965 31.8359-18.8965Z"/>
  </g>
  <g id="Semibold-S" transform="matrix(1 0 0 1 1996.2 696)">
   <path d="M47.0703 4.98047C69.0918 4.98047 87.3047-13.1836 87.3047-35.2539C87.3047-57.2754 69.0918-75.4883 47.0215-75.4883C25-75.4883 6.83594-57.2754 6.83594-35.2539C6.83594-13.1836 25.0488 4.98047 47.0703 4.98047ZM47.0703-4.58984C30.0781-4.58984 16.4551-18.2129 16.4551-35.2539C16.4551-52.2461 30.0293-65.8691 47.0215-65.8691C64.0625-65.8691 77.6855-52.2461 77.7344-35.2539C77.7344-18.2129 64.0625-4.58984 47.0703-4.58984ZM30.2734-44.3359L63.916-44.3359C66.1621-44.3359 67.7246-45.752 67.7246-47.8516C67.7246-49.9512 66.1621-51.3672 63.916-51.3672L30.2734-51.3672C28.0273-51.3672 26.4648-49.9512 26.4648-47.8516C26.4648-45.752 28.0273-44.3359 30.2734-44.3359ZM30.2734-31.7383L63.916-31.7383C66.1621-31.7383 67.7246-33.1543 67.7246-35.2539C67.7246-37.3535 66.1621-38.7695 63.916-38.7695L30.2734-38.7695C28.0273-38.7695 26.4648-37.3535 26.4648-35.2539C26.4648-33.1543 28.0273-31.7383 30.2734-31.7383ZM30.2734-19.0918L63.916-19.0918C66.1621-19.0918 67.7246-20.5078 67.7246-22.6074C67.7246-24.707 66.1621-26.1719 63.916-26.1719L30.2734-26.1719C28.0273-26.1719 26.4648-24.707 26.4648-22.6074C26.4648-20.5078 28.0273-19.0918 30.2734-19.0918Z"/>
  </g>
  <g id="Medium-S" transform="matrix(1 0 0 1 1699.83 696)">
   <path d="M46.7285 4.63867C68.5547 4.63867 86.6211-13.4277 86.6211-35.2539C86.6211-57.0801 68.5059-75.1465 46.6797-75.1465C24.8535-75.1465 6.83594-57.0801 6.83594-35.2539C6.83594-13.4277 24.9023 4.63867 46.7285 4.63867ZM46.7285-4.00391C29.3945-4.00391 15.5273-17.9199 15.5273-35.2539C15.5273-52.5879 29.3457-66.4551 46.6797-66.4551C64.0137-66.4551 77.8809-52.5879 77.9297-35.2539C77.9785-17.9199 64.0625-4.00391 46.7285-4.00391ZM29.0527-44.5801L64.4043-44.5801C66.5039-44.5801 68.0176-45.8984 68.0176-47.9004C68.0176-49.9023 66.5039-51.2207 64.4043-51.2207L29.0527-51.2207C26.9531-51.2207 25.4883-49.9023 25.4883-47.9004C25.4883-45.8984 26.9531-44.5801 29.0527-44.5801ZM29.0527-31.9336L64.4043-31.9336C66.5039-31.9336 68.0176-33.252 68.0176-35.2539C68.0176-37.2559 66.5039-38.5742 64.4043-38.5742L29.0527-38.5742C26.9531-38.5742 25.4883-37.2559 25.4883-35.2539C25.4883-33.252 26.9531-31.9336 29.0527-31.9336ZM29.0527-19.2871L64.4043-19.2871C66.5039-19.2871 68.0176-20.6055 68.0176-22.6074C68.0176-24.5605 66.5039-25.9277 64.4043-25.9277L29.0527-25.9277C26.9531-25.9277 25.4883-24.5605 25.4883-22.6074C25.4883-20.6055 26.9531-19.2871 29.0527-19.2871Z"/>
  </g>
  <g id="Regular-S" transform="matrix(1 0 0 1 1403.58 696)">
   <path d="M46.2402 4.15039C67.7734 4.15039 85.6934-13.7207 85.6934-35.2539C85.6934-56.7871 67.7246-74.6582 46.1914-74.6582C24.707-74.6582 6.83594-56.7871 6.83594-35.2539C6.83594-13.7207 24.7559 4.15039 46.2402 4.15039ZM46.2402-3.27148C28.5156-3.27148 14.3555-17.4805 14.3555-35.2539C14.3555-53.0273 28.4668-67.2363 46.1914-67.2363C63.9648-67.2363 78.1738-53.0273 78.2227-35.2539C78.2715-17.4805 64.0137-3.27148 46.2402-3.27148ZM27.4902-44.873L65.0879-44.873C66.9922-44.873 68.3594-46.0938 68.3594-47.9492C68.3594-49.7559 66.9922-50.9766 65.0879-50.9766L27.4902-50.9766C25.5371-50.9766 24.1699-49.7559 24.1699-47.9492C24.1699-46.0938 25.5371-44.873 27.4902-44.873ZM27.4902-32.1777L65.0879-32.1777C66.9922-32.1777 68.3594-33.3984 68.3594-35.2539C68.3594-37.1094 66.9922-38.3301 65.0879-38.3301L27.4902-38.3301C25.5371-38.3301 24.1699-37.1094 24.1699-35.2539C24.1699-33.3984 25.5371-32.1777 27.4902-32.1777ZM27.4902-19.4824L65.0879-19.4824C66.9922-19.4824 68.3594-20.7031 68.3594-22.5586C68.3594-24.4141 66.9922-25.6348 65.0879-25.6348L27.4902-25.6348C25.5371-25.6348 24.1699-24.4141 24.1699-22.5586C24.1699-20.7031 25.5371-19.4824 27.4902-19.4824Z"/>
  </g>
  <g id="Light-S" transform="matrix(1 0 0 1 1107.6 696)">
   <path d="M45.5078 3.41797C66.6992 3.41797 84.2285-14.0625 84.2285-35.2539C84.2285-56.4453 66.6504-73.9258 45.5078-73.9258C24.3164-73.9258 6.83594-56.4453 6.83594-35.2539C6.83594-14.0625 24.3652 3.41797 45.5078 3.41797ZM45.5078-2.29492C27.2461-2.29492 12.5977-16.9922 12.5977-35.2539C12.5977-53.5156 27.1973-68.2129 45.5078-68.2129C63.7695-68.2129 78.4668-53.5156 78.5156-35.2539C78.5156-16.9922 63.8184-2.29492 45.5078-2.29492ZM25.7812-45.5078L65.332-45.5078C66.7969-45.5078 67.8711-46.4355 67.8711-47.9004C67.8711-49.3164 66.7969-50.293 65.332-50.293L25.7812-50.293C24.2676-50.293 23.1934-49.3164 23.1934-47.9004C23.1934-46.4355 24.2676-45.5078 25.7812-45.5078ZM25.7812-32.8613L65.332-32.8613C66.7969-32.8613 67.8711-33.8379 67.8711-35.2539C67.8711-36.6699 66.7969-37.6465 65.332-37.6465L25.7812-37.6465C24.2676-37.6465 23.1934-36.6699 23.1934-35.2539C23.1934-33.8379 24.2676-32.8613 25.7812-32.8613ZM25.7812-20.166L65.332-20.166C66.7969-20.166 67.8711-21.1426 67.8711-22.5586C67.8711-23.9746 66.7969-24.9512 65.332-24.9512L25.7812-24.9512C24.2676-24.9512 23.1934-23.9746 23.1934-22.5586C23.1934-21.1426 24.2676-20.166 25.7812-20.166Z"/>
  </g>
  <g id="Thin-S" transform="matrix(1 0 0 1 811.867 696)">
   <path d="M44.5801 2.49023C65.2832 2.49023 82.2754-14.5508 82.2754-35.2539C82.2754-55.957 65.2344-72.998 44.5312-72.998C23.8281-72.998 6.83594-55.957 6.83594-35.2539C6.83594-14.5508 23.877 2.49023 44.5801 2.49023ZM44.5801-0.927734C25.5859-0.927734 10.2539-16.3086 10.2539-35.2539C10.2539-54.1992 25.5859-69.5801 44.5312-69.5801C63.5254-69.5801 78.8574-54.1992 78.8574-35.2539C78.8574-16.3086 63.5254-0.927734 44.5801-0.927734ZM23.5352-46.2891L65.6738-46.2891C66.5527-46.2891 67.2363-46.9238 67.2363-47.8516C67.2363-48.7793 66.5527-49.3652 65.6738-49.3652L23.5352-49.3652C22.6074-49.3652 21.9238-48.7793 21.9238-47.8516C21.9238-46.9238 22.6074-46.2891 23.5352-46.2891ZM23.5352-33.7402L65.6738-33.7402C66.5527-33.7402 67.2363-34.3262 67.2363-35.2539C67.2363-36.1816 66.5527-36.7676 65.6738-36.7676L23.5352-36.7676C22.6074-36.7676 21.9238-36.1816 21.9238-35.2539C21.9238-34.3262 22.6074-33.7402 23.5352-33.7402ZM23.5352-21.0449L65.6738-21.0449C66.5527-21.0449 67.2363-21.6309 67.2363-22.5586C67.2363-23.4863 66.5527-24.0723 65.6738-24.0723L23.5352-24.0723C22.6074-24.0723 21.9238-23.4863 21.9238-22.5586C21.9238-21.6309 22.6074-21.0449 23.5352-21.0449Z"/>
  </g>
  <g id="Ultralight-S" transform="matrix(1 0 0 1 515.644 696)">
   <path d="M44.043 1.95312C64.502 1.95312 81.2988-14.7949 81.2988-35.2539C81.2988-55.7129 64.502-72.4609 44.043-72.4609C23.584-72.4609 6.83594-55.7129 6.83594-35.2539C6.83594-14.7949 23.584 1.95312 44.043 1.95312ZM44.043-0.244141C24.7559-0.244141 9.08203-15.9668 9.08203-35.2539C9.08203-54.541 24.7559-70.2637 44.043-70.2637C63.3789-70.2637 79.0527-54.541 79.0527-35.2539C79.0527-15.9668 63.3789-0.244141 44.043-0.244141ZM22.3633-46.7285L65.8203-46.7285C66.4551-46.7285 66.9434-47.168 66.9434-47.8027C66.9434-48.4375 66.4551-48.877 65.8203-48.877L22.3633-48.877C21.7285-48.877 21.2402-48.4375 21.2402-47.8027C21.2402-47.168 21.7285-46.7285 22.3633-46.7285ZM22.3633-34.1797L65.8203-34.1797C66.4551-34.1797 66.9434-34.6191 66.9434-35.2539C66.9434-35.8887 66.4551-36.3281 65.8203-36.3281L22.3633-36.3281C21.7285-36.3281 21.2402-35.8887 21.2402-35.2539C21.2402-34.6191 21.7285-34.1797 22.3633-34.1797ZM22.3633-21.4844L65.8203-21.4844C66.4551-21.4844 66.9434-21.9238 66.9434-22.5586C66.9434-23.1934 66.4551-23.6328 65.8203-23.6328L22.3633-23.6328C21.7285-23.6328 21.2402-23.1934 21.2402-22.5586C21.2402-21.9238 21.7285-21.4844 22.3633-21.4844Z"/>
  </g>
 </g>
</svg>
