<?xml version="1.0" encoding="UTF-8"?>
<!--Generator: Apple Native CoreSVG 149-->
<!DOCTYPE svg
PUBLIC "-//W3C//DTD SVG 1.1//EN"
       "http://www.w3.org/Graphics/SVG/1.1/DTD/svg11.dtd">
<svg version="1.1" xmlns="http://www.w3.org/2000/svg" xmlns:xlink="http://www.w3.org/1999/xlink" width="3300" height="2200">
 <!--glyph: "uni100AD7.medium", point size: 100.000000, font version: "Version 16.0d12e3", template writer version: "8"-->
 <g id="Notes">
  <rect height="2200" id="artboard" style="fill:white;opacity:1" width="3300" x="0" y="0"/>
  <line id="" style="fill:none;stroke:black;opacity:1;stroke-width:0.5;" x1="263" x2="3036" y1="292" y2="292"/>
  <text style="stroke:none;fill:black;font-family:-apple-system,&quot;SF Pro Display&quot;,&quot;SF Pro Text&quot;,Helvetica,sans-serif;font-weight:bold;" transform="matrix(1 0 0 1 263 322)">Weight/Scale Variations</text>
  <text style="stroke:none;fill:black;font-family:-apple-system,&quot;SF Pro Display&quot;,&quot;SF Pro Text&quot;,Helvetica,sans-serif;text-anchor:middle;" transform="matrix(1 0 0 1 559.711 322)">Ultralight</text>
  <text style="stroke:none;fill:black;font-family:-apple-system,&quot;SF Pro Display&quot;,&quot;SF Pro Text&quot;,Helvetica,sans-serif;text-anchor:middle;" transform="matrix(1 0 0 1 856.422 322)">Thin</text>
  <text style="stroke:none;fill:black;font-family:-apple-system,&quot;SF Pro Display&quot;,&quot;SF Pro Text&quot;,Helvetica,sans-serif;text-anchor:middle;" transform="matrix(1 0 0 1 1153.13 322)">Light</text>
  <text style="stroke:none;fill:black;font-family:-apple-system,&quot;SF Pro Display&quot;,&quot;SF Pro Text&quot;,Helvetica,sans-serif;text-anchor:middle;" transform="matrix(1 0 0 1 1449.84 322)">Regular</text>
  <text style="stroke:none;fill:black;font-family:-apple-system,&quot;SF Pro Display&quot;,&quot;SF Pro Text&quot;,Helvetica,sans-serif;text-anchor:middle;" transform="matrix(1 0 0 1 1746.56 322)">Medium</text>
  <text style="stroke:none;fill:black;font-family:-apple-system,&quot;SF Pro Display&quot;,&quot;SF Pro Text&quot;,Helvetica,sans-serif;text-anchor:middle;" transform="matrix(1 0 0 1 2043.27 322)">Semibold</text>
  <text style="stroke:none;fill:black;font-family:-apple-system,&quot;SF Pro Display&quot;,&quot;SF Pro Text&quot;,Helvetica,sans-serif;text-anchor:middle;" transform="matrix(1 0 0 1 2339.98 322)">Bold</text>
  <text style="stroke:none;fill:black;font-family:-apple-system,&quot;SF Pro Display&quot;,&quot;SF Pro Text&quot;,Helvetica,sans-serif;text-anchor:middle;" transform="matrix(1 0 0 1 2636.69 322)">Heavy</text>
  <text style="stroke:none;fill:black;font-family:-apple-system,&quot;SF Pro Display&quot;,&quot;SF Pro Text&quot;,Helvetica,sans-serif;text-anchor:middle;" transform="matrix(1 0 0 1 2933.4 322)">Black</text>
  <line id="" style="fill:none;stroke:black;opacity:1;stroke-width:0.5;" x1="263" x2="3036" y1="1903" y2="1903"/>
  <g id="" transform="matrix(1 0 0 1 263 1933)">
   <path d="M9.24805 0.830078C13.5547 0.830078 17.1387-2.74414 17.1387-7.05078C17.1387-11.3574 13.5449-14.9316 9.23828-14.9316C4.94141-14.9316 1.36719-11.3574 1.36719-7.05078C1.36719-2.74414 4.95117 0.830078 9.24805 0.830078ZM9.24805-0.654297C5.70312-0.654297 2.87109-3.49609 2.87109-7.05078C2.87109-10.6055 5.69336-13.4473 9.23828-13.4473C12.793-13.4473 15.6348-10.6055 15.6445-7.05078C15.6543-3.49609 12.8027-0.654297 9.24805-0.654297ZM9.22852-3.62305C9.69727-3.62305 9.9707-3.93555 9.9707-4.45312L9.9707-6.31836L12.002-6.31836C12.5-6.31836 12.832-6.57227 12.832-7.04102C12.832-7.51953 12.5195-7.7832 12.002-7.7832L9.9707-7.7832L9.9707-9.81445C9.9707-10.332 9.69727-10.6543 9.22852-10.6543C8.75977-10.6543 8.50586-10.3125 8.50586-9.81445L8.50586-7.7832L6.49414-7.7832C5.97656-7.7832 5.64453-7.51953 5.64453-7.04102C5.64453-6.57227 5.99609-6.31836 6.49414-6.31836L8.50586-6.31836L8.50586-4.45312C8.50586-3.95508 8.75977-3.62305 9.22852-3.62305Z"/>
  </g>
  <g id="" transform="matrix(1 0 0 1 281.506 1933)">
   <path d="M11.709 2.91016C17.1582 2.91016 21.6699-1.61133 21.6699-7.05078C21.6699-12.5 17.1484-17.0117 11.6992-17.0117C6.25977-17.0117 1.74805-12.5 1.74805-7.05078C1.74805-1.61133 6.26953 2.91016 11.709 2.91016ZM11.709 1.25C7.09961 1.25 3.41797-2.44141 3.41797-7.05078C3.41797-11.6602 7.08984-15.3516 11.6992-15.3516C16.3086-15.3516 20-11.6602 20.0098-7.05078C20.0195-2.44141 16.3184 1.25 11.709 1.25ZM11.6797-2.66602C12.207-2.66602 12.5098-3.01758 12.5098-3.59375L12.5098-6.23047L15.3223-6.23047C15.8691-6.23047 16.25-6.51367 16.25-7.03125C16.25-7.55859 15.8887-7.86133 15.3223-7.86133L12.5098-7.86133L12.5098-10.6836C12.5098-11.25 12.207-11.6113 11.6797-11.6113C11.1621-11.6113 10.8789-11.2305 10.8789-10.6836L10.8789-7.86133L8.07617-7.86133C7.50977-7.86133 7.13867-7.55859 7.13867-7.03125C7.13867-6.51367 7.5293-6.23047 8.07617-6.23047L10.8789-6.23047L10.8789-3.59375C10.8789-3.03711 11.1621-2.66602 11.6797-2.66602Z"/>
  </g>
  <g id="" transform="matrix(1 0 0 1 304.924 1933)">
   <path d="M14.9707 5.66406C21.9336 5.66406 27.6953-0.0976562 27.6953-7.05078C27.6953-14.0137 21.9238-19.7754 14.9609-19.7754C8.00781-19.7754 2.25586-14.0137 2.25586-7.05078C2.25586-0.0976562 8.01758 5.66406 14.9707 5.66406ZM14.9707 3.84766C8.93555 3.84766 4.08203-1.01562 4.08203-7.05078C4.08203-13.0957 8.92578-17.9492 14.9609-17.9492C21.0059-17.9492 25.8594-13.0957 25.8691-7.05078C25.8789-1.01562 21.0156 3.84766 14.9707 3.84766ZM14.9414-1.38672C15.5176-1.38672 15.8594-1.77734 15.8594-2.38281L15.8594-6.13281L19.7754-6.13281C20.3711-6.13281 20.7812-6.46484 20.7812-7.02148C20.7812-7.59766 20.3906-7.93945 19.7754-7.93945L15.8594-7.93945L15.8594-11.8652C15.8594-12.4805 15.5176-12.8711 14.9414-12.8711C14.375-12.8711 14.0527-12.4609 14.0527-11.8652L14.0527-7.93945L10.1465-7.93945C9.53125-7.93945 9.13086-7.59766 9.13086-7.02148C9.13086-6.46484 9.55078-6.13281 10.1465-6.13281L14.0527-6.13281L14.0527-2.38281C14.0527-1.79688 14.375-1.38672 14.9414-1.38672Z"/>
  </g>
  <text style="stroke:none;fill:black;font-family:-apple-system,&quot;SF Pro Display&quot;,&quot;SF Pro Text&quot;,Helvetica,sans-serif;font-weight:bold;" transform="matrix(1 0 0 1 263 1953)">Design Variations</text>
  <text style="stroke:none;fill:black;font-family:-apple-system,&quot;SF Pro Display&quot;,&quot;SF Pro Text&quot;,Helvetica,sans-serif;" transform="matrix(1 0 0 1 263 1971)">Symbols are supported in up to nine weights and three scales.</text>
  <text style="stroke:none;fill:black;font-family:-apple-system,&quot;SF Pro Display&quot;,&quot;SF Pro Text&quot;,Helvetica,sans-serif;" transform="matrix(1 0 0 1 263 1989)">For optimal layout with text and other symbols, vertically align</text>
  <text style="stroke:none;fill:black;font-family:-apple-system,&quot;SF Pro Display&quot;,&quot;SF Pro Text&quot;,Helvetica,sans-serif;" transform="matrix(1 0 0 1 263 2007)">symbols with the adjacent text.</text>
  <line id="" style="fill:none;stroke:#00AEEF;stroke-width:0.5;opacity:1.0;" x1="776" x2="776" y1="1919" y2="1933"/>
  <g id="" transform="matrix(1 0 0 1 776 1933)">
   <path d="M3.31055 0.126953C3.82812 0.126953 4.08203-0.0683594 4.26758-0.605469L5.52734-4.0625L11.2891-4.0625L12.5488-0.605469C12.7344-0.0683594 12.9883 0.126953 13.4961 0.126953C14.0137 0.126953 14.3457-0.185547 14.3457-0.673828C14.3457-0.839844 14.3164-0.986328 14.2383-1.20117L9.6582-13.3887C9.43359-13.9941 9.0332-14.2871 8.4082-14.2871C7.80273-14.2871 7.39258-13.9941 7.17773-13.3984L2.59766-1.19141C2.51953-0.976562 2.49023-0.830078 2.49023-0.664062C2.49023-0.175781 2.80273 0.126953 3.31055 0.126953ZM6.00586-5.53711L8.37891-12.1094L8.42773-12.1094L10.8008-5.53711Z"/>
  </g>
  <line id="" style="fill:none;stroke:#00AEEF;stroke-width:0.5;opacity:1.0;" x1="792.836" x2="792.836" y1="1919" y2="1933"/>
  <text style="stroke:none;fill:black;font-family:-apple-system,&quot;SF Pro Display&quot;,&quot;SF Pro Text&quot;,Helvetica,sans-serif;font-weight:bold;" transform="matrix(1 0 0 1 776 1953)">Margins</text>
  <text style="stroke:none;fill:black;font-family:-apple-system,&quot;SF Pro Display&quot;,&quot;SF Pro Text&quot;,Helvetica,sans-serif;" transform="matrix(1 0 0 1 776 1971)">Leading and trailing margins on the left and right side of each symbol</text>
  <text style="stroke:none;fill:black;font-family:-apple-system,&quot;SF Pro Display&quot;,&quot;SF Pro Text&quot;,Helvetica,sans-serif;" transform="matrix(1 0 0 1 776 1989)">can be adjusted by modifying the x-location of the margin guidelines.</text>
  <text style="stroke:none;fill:black;font-family:-apple-system,&quot;SF Pro Display&quot;,&quot;SF Pro Text&quot;,Helvetica,sans-serif;" transform="matrix(1 0 0 1 776 2007)">Modifications are automatically applied proportionally to all</text>
  <text style="stroke:none;fill:black;font-family:-apple-system,&quot;SF Pro Display&quot;,&quot;SF Pro Text&quot;,Helvetica,sans-serif;" transform="matrix(1 0 0 1 776 2025)">scales and weights.</text>
  <g id="" transform="matrix(1 0 0 1 1289 1933)">
   <path d="M2.8418 1.86523L4.54102 3.57422C5.40039 4.44336 6.38672 4.38477 7.31445 3.35938L17.4902-7.85156C17.7539-7.76367 18.0273-7.7832 18.3398-7.8418L19.4043-8.03711L20.0684-7.36328L20.0293-6.80664C19.9902-6.30859 20.1172-5.92773 20.6055-5.44922L21.3672-4.70703C21.8457-4.22852 22.4609-4.19922 22.9297-4.66797L25.8398-7.58789C26.3086-8.05664 26.2891-8.65234 25.8105-9.13086L25.0391-9.89258C24.5605-10.3711 24.1895-10.5273 23.7109-10.4883L23.1348-10.4395L22.4902-11.0742L22.7344-12.1973C22.8613-12.7637 22.7051-13.2031 22.1191-13.7891L19.9219-15.9766C16.582-19.2969 12.1484-19.2188 9.25781-16.3281C8.83789-15.918 8.80859-15.3418 9.04297-14.9512C9.27734-14.5898 9.73633-14.3555 10.3809-14.5215C11.8457-14.8633 13.3691-14.9219 14.7949-13.9844L14.209-12.5293C14.0137-12.0508 13.9844-11.6504 14.1113-11.2891L3.04688-0.898438C2.06055 0.0195312 1.98242 0.996094 2.8418 1.86523ZM10.752-15.957C13.1836-17.7344 16.4746-17.4316 18.7012-15.2051L21.1328-12.793C21.3672-12.5586 21.4062-12.373 21.3379-12.0312L21.0156-10.5469L22.5195-9.0625L23.5059-9.12109C23.7598-9.13086 23.8379-9.11133 24.0332-8.91602L24.6094-8.33984L22.168-5.89844L21.5918-6.47461C21.3965-6.66992 21.3672-6.74805 21.377-7.01172L21.4453-7.98828L19.9512-9.47266L18.4277-9.21875C18.1055-9.15039 17.959-9.17969 17.7148-9.41406L15.7129-11.416C15.459-11.6504 15.4297-11.8164 15.5859-12.1875L16.4648-14.2773C14.9023-15.7324 12.8711-16.3574 10.8398-15.7617C10.6836-15.7227 10.625-15.8496 10.752-15.957ZM5.27344 2.30469L4.10156 1.14258C3.63281 0.683594 3.74023 0.341797 4.14062-0.0195312L14.9512-10.1953L16.416-8.71094L6.42578 2.27539C6.07422 2.67578 5.74219 2.77344 5.27344 2.30469Z"/>
  </g>
  <text style="stroke:none;fill:black;font-family:-apple-system,&quot;SF Pro Display&quot;,&quot;SF Pro Text&quot;,Helvetica,sans-serif;font-weight:bold;" transform="matrix(1 0 0 1 1289 1953)">Exporting</text>
  <text style="stroke:none;fill:black;font-family:-apple-system,&quot;SF Pro Display&quot;,&quot;SF Pro Text&quot;,Helvetica,sans-serif;" transform="matrix(1 0 0 1 1289 1971)">Symbols should be outlined when exporting to ensure the</text>
  <text style="stroke:none;fill:black;font-family:-apple-system,&quot;SF Pro Display&quot;,&quot;SF Pro Text&quot;,Helvetica,sans-serif;" transform="matrix(1 0 0 1 1289 1989)">design is preserved when submitting to Xcode.</text>
  <text id="template-version" style="stroke:none;fill:black;font-family:-apple-system,&quot;SF Pro Display&quot;,&quot;SF Pro Text&quot;,Helvetica,sans-serif;text-anchor:end;" transform="matrix(1 0 0 1 3036 1933)">Template v.2.0</text>
  <text style="stroke:none;fill:black;font-family:-apple-system,&quot;SF Pro Display&quot;,&quot;SF Pro Text&quot;,Helvetica,sans-serif;text-anchor:end;" transform="matrix(1 0 0 1 3036 1951)">Requires Xcode 12 or greater</text>
  <text style="stroke:none;fill:black;font-family:-apple-system,&quot;SF Pro Display&quot;,&quot;SF Pro Text&quot;,Helvetica,sans-serif;text-anchor:end;" transform="matrix(1 0 0 1 3036 1969)">Generated from text.book.closed</text>
  <text style="stroke:none;fill:black;font-family:-apple-system,&quot;SF Pro Display&quot;,&quot;SF Pro Text&quot;,Helvetica,sans-serif;text-anchor:end;" transform="matrix(1 0 0 1 3036 1987)">Typeset at 100 points</text>
  <text style="stroke:none;fill:black;font-family:-apple-system,&quot;SF Pro Display&quot;,&quot;SF Pro Text&quot;,Helvetica,sans-serif;" transform="matrix(1 0 0 1 263 726)">Small</text>
  <text style="stroke:none;fill:black;font-family:-apple-system,&quot;SF Pro Display&quot;,&quot;SF Pro Text&quot;,Helvetica,sans-serif;" transform="matrix(1 0 0 1 263 1156)">Medium</text>
  <text style="stroke:none;fill:black;font-family:-apple-system,&quot;SF Pro Display&quot;,&quot;SF Pro Text&quot;,Helvetica,sans-serif;" transform="matrix(1 0 0 1 263 1586)">Large</text>
 </g>
 <g id="Guides">
  <g id="H-reference" style="fill:#27AAE1;stroke:none;" transform="matrix(1 0 0 1 339 696)">
   <path d="M0.976562 0L3.66211 0L12.9883-24.4629L45.752-24.4629L55.127 0L57.7637 0L30.6152-70.459L28.125-70.459ZM29.3457-67.1387L29.4434-67.1387L44.873-26.709L13.8672-26.709Z"/>
  </g>
  <line id="Baseline-S" style="fill:none;stroke:#27AAE1;opacity:1;stroke-width:0.5;" x1="263" x2="3036" y1="696" y2="696"/>
  <line id="Capline-S" style="fill:none;stroke:#27AAE1;opacity:1;stroke-width:0.5;" x1="263" x2="3036" y1="625.541" y2="625.541"/>
  <g id="H-reference" style="fill:#27AAE1;stroke:none;" transform="matrix(1 0 0 1 339 1126)">
   <path d="M0.976562 0L3.66211 0L12.9883-24.4629L45.752-24.4629L55.127 0L57.7637 0L30.6152-70.459L28.125-70.459ZM29.3457-67.1387L29.4434-67.1387L44.873-26.709L13.8672-26.709Z"/>
  </g>
  <line id="Baseline-M" style="fill:none;stroke:#27AAE1;opacity:1;stroke-width:0.5;" x1="263" x2="3036" y1="1126" y2="1126"/>
  <line id="Capline-M" style="fill:none;stroke:#27AAE1;opacity:1;stroke-width:0.5;" x1="263" x2="3036" y1="1055.54" y2="1055.54"/>
  <g id="H-reference" style="fill:#27AAE1;stroke:none;" transform="matrix(1 0 0 1 339 1556)">
   <path d="M0.976562 0L3.66211 0L12.9883-24.4629L45.752-24.4629L55.127 0L57.7637 0L30.6152-70.459L28.125-70.459ZM29.3457-67.1387L29.4434-67.1387L44.873-26.709L13.8672-26.709Z"/>
  </g>
  <line id="Baseline-L" style="fill:none;stroke:#27AAE1;opacity:1;stroke-width:0.5;" x1="263" x2="3036" y1="1556" y2="1556"/>
  <line id="Capline-L" style="fill:none;stroke:#27AAE1;opacity:1;stroke-width:0.5;" x1="263" x2="3036" y1="1485.54" y2="1485.54"/>
  <line id="left-margin" style="fill:none;stroke:#00AEEF;stroke-width:0.5;opacity:1.0;" x1="1396.33" x2="1396.33" y1="1030.79" y2="1150.12"/>
  <line id="right-margin" style="fill:none;stroke:#00AEEF;stroke-width:0.5;opacity:1.0;" x1="1503.36" x2="1503.36" y1="1030.79" y2="1150.12"/>
 </g>
 <g id="Symbols">
  <g id="Black-L" transform="matrix(1 0 0 1 2859.55 1556)">
   <path d="M39.8926 35.2539L122.949 35.2539C128.076 35.2539 131.641 31.6895 131.641 26.5625C131.641 21.6309 128.32 19.1895 124.609 16.7969C117.676 12.6465 116.455 0.683594 124.609-5.71289C130.078-9.81445 131.445-12.9395 131.445-19.6289L131.445-81.7383C131.445-96.9727 122.803-105.615 107.617-105.615L39.8926-105.615C24.707-105.615 16.0645-96.9727 16.0645-81.7383L16.0645 11.3281C16.0645 26.5625 24.707 35.2539 39.8926 35.2539ZM36.3281-19.9219L36.3281-79.0039C36.3281-83.252 38.1836-85.4004 42.7246-85.4004L43.5547-85.4004L43.5547-20.8008L43.4082-20.8008C40.918-20.8008 38.4766-20.459 36.3281-19.9219ZM104.785-85.4004C109.326-85.4004 111.23-83.252 111.23-79.0039L111.23-23.1445C111.23-21.6797 110.352-20.8008 108.691-20.8008L54.9316-20.8008L54.9316-85.4004ZM66.0645-60.5469L100.098-60.5469C103.223-60.5469 105.762-63.1348 105.762-66.2598C105.762-69.3848 103.223-71.9727 100.098-71.9727L66.0645-71.9727C62.9395-71.9727 60.3516-69.3848 60.3516-66.2598C60.3516-63.1348 62.9395-60.5469 66.0645-60.5469ZM66.0645-42.2852L92.1875-42.2852C95.3125-42.2852 97.9004-44.873 97.9004-47.998C97.9004-51.0742 95.3125-53.6621 92.1875-53.6621L66.0645-53.6621C62.9395-53.6621 60.3516-51.0742 60.3516-47.998C60.3516-44.873 62.9395-42.2852 66.0645-42.2852ZM44.9707 17.9199C37.2559 17.9199 33.5449 12.9883 33.5449 7.17773C33.5449 1.51367 37.5-3.51562 45.166-3.51562L103.418-3.51562C100.146 3.32031 100.049 11.377 103.076 17.9199Z"/>
  </g>
  <g id="Heavy-L" transform="matrix(1 0 0 1 2564.11 1556)">
   <path d="M38.623 34.4727L121.484 34.4727C125.928 34.4727 129.102 31.3477 129.102 26.8555C129.102 22.6562 126.27 20.4102 123.047 18.4082C115.771 14.3555 114.404 2.73438 122.559-4.10156C127.295-7.8125 128.955-10.9863 128.955-17.5293L128.955-82.1289C128.955-96.7285 120.898-104.883 106.348-104.883L38.7207-104.883C24.1211-104.883 16.0645-96.7773 16.0645-82.1289L16.0645 11.8652C16.0645 26.416 24.1699 34.4727 38.623 34.4727ZM104.053-87.3535C109.18-87.3535 111.475-84.8633 111.475-80.0293L111.475-20.5078C111.475-18.3105 110.205-17.041 107.861-17.041L51.2695-17.041L51.2695-87.3535ZM33.5938-15.625L33.5938-80.0293C33.5938-84.8145 35.8398-87.3535 40.8691-87.3535L40.8691-17.041C38.1348-16.9922 35.7422-16.4551 33.5938-15.625ZM62.5488-61.2793L100.098-61.2793C102.979-61.2793 105.322-63.623 105.322-66.4551C105.322-69.3359 102.979-71.6797 100.098-71.6797L62.5488-71.6797C59.7168-71.6797 57.373-69.3359 57.373-66.4551C57.373-63.623 59.7168-61.2793 62.5488-61.2793ZM62.5488-43.2617L91.0645-43.2617C93.8965-43.2617 96.2891-45.6055 96.2891-48.4863C96.2891-51.3184 93.8965-53.6621 91.0645-53.6621L62.5488-53.6621C59.7168-53.6621 57.373-51.3184 57.373-48.4863C57.373-45.6055 59.7168-43.2617 62.5488-43.2617ZM42.627 19.2383C35.1562 19.2383 31.4941 14.5996 31.4941 8.69141C31.4941 2.92969 35.4492-1.75781 42.8711-1.75781L102.1-1.75781C102.637-1.75781 103.125-1.80664 103.613-1.85547C100.293 5.0293 100.391 12.8906 103.711 19.2383Z"/>
  </g>
  <g id="Bold-L" transform="matrix(1 0 0 1 2268.81 1556)">
   <path d="M37.207 33.6426L119.775 33.6426C123.535 33.6426 126.27 30.9082 126.27 27.1484C126.27 23.7793 123.975 21.7285 121.289 20.2148C113.672 16.2598 112.158 5.0293 120.215-2.29492C124.17-5.61523 126.172-8.83789 126.172-15.1855L126.172-82.5684C126.172-96.4844 118.701-104.053 104.883-104.053L37.4023-104.053C23.5352-104.053 16.0645-96.5332 16.0645-82.5684L16.0645 12.4512C16.0645 26.1719 23.5352 33.6426 37.207 33.6426ZM103.223-89.5996C108.984-89.5996 111.719-86.6699 111.719-81.1523L111.719-17.5293C111.719-14.502 110.01-12.8418 106.885-12.8418L47.168-12.8418L47.168-89.5996ZM30.5176-10.8398L30.5176-81.1523C30.5176-86.2793 32.9102-89.209 37.8906-89.5508L37.8906-12.793C35.0586-12.5977 32.6172-11.9141 30.5176-10.8398ZM58.6426-62.0605L100.146-62.0605C102.686-62.0605 104.785-64.1602 104.785-66.6992C104.785-69.2383 102.686-71.3379 100.146-71.3379L58.6426-71.3379C56.0547-71.3379 53.9551-69.2383 53.9551-66.6992C53.9551-64.1602 56.0547-62.0605 58.6426-62.0605ZM58.6426-44.3848L89.7949-44.3848C92.3828-44.3848 94.4824-46.4844 94.4824-49.0234C94.4824-51.5625 92.3828-53.6621 89.7949-53.6621L58.6426-53.6621C56.0547-53.6621 53.9551-51.5625 53.9551-49.0234C53.9551-46.4844 56.0547-44.3848 58.6426-44.3848ZM39.9902 20.6543C32.8125 20.6543 29.1504 16.4062 29.1504 10.3516C29.1504 4.54102 33.1543 0.146484 40.332 0.146484L101.758 0.146484C102.49 0.146484 103.174 0.0976562 103.809-0.0488281C100.439 6.88477 100.781 14.5996 104.443 20.6543Z"/>
  </g>
  <g id="Semibold-L" transform="matrix(1 0 0 1 1973.08 1556)">
   <path d="M36.2793 33.0566L118.604 33.0566C121.875 33.0566 124.316 30.6641 124.316 27.3926C124.316 24.5605 122.412 22.6562 120.068 21.4844C112.207 17.5293 110.596 6.64062 118.604-1.02539C122.021-4.05273 124.268-7.32422 124.268-13.5742L124.268-82.9102C124.268-96.3379 117.188-103.467 103.857-103.467L36.4746-103.467C23.0957-103.467 16.0645-96.3867 16.0645-82.9102L16.0645 12.8906C16.0645 26.0254 23.1445 33.0566 36.2793 33.0566ZM102.637-91.1133C108.838-91.1133 111.914-87.8906 111.914-81.9336L111.914-15.4785C111.914-11.9141 109.912-9.91211 106.25-9.91211L44.3848-9.91211L44.3848-91.1133ZM28.418-7.51953L28.418-81.9336C28.418-87.3047 30.8594-90.4297 35.8398-91.0156L35.8398-9.86328C32.9102-9.57031 30.5176-8.78906 28.418-7.51953ZM55.9082-62.5977L100.146-62.5977C102.49-62.5977 104.443-64.5508 104.443-66.8457C104.443-69.1895 102.49-71.1426 100.146-71.1426L55.9082-71.1426C53.5645-71.1426 51.6602-69.1895 51.6602-66.8457C51.6602-64.5508 53.5645-62.5977 55.9082-62.5977ZM55.9082-45.166L88.9648-45.166C91.3086-45.166 93.2129-47.0703 93.2129-49.4141C93.2129-51.7578 91.3086-53.6621 88.9648-53.6621L55.9082-53.6621C53.5645-53.6621 51.6602-51.7578 51.6602-49.4141C51.6602-47.0703 53.5645-45.166 55.9082-45.166ZM38.1836 21.6797C31.2012 21.6797 27.5391 17.627 27.5391 11.5234C27.5391 5.66406 31.5918 1.46484 38.5742 1.46484L101.514 1.46484C102.393 1.46484 103.223 1.41602 104.004 1.2207C100.586 8.20312 101.074 15.8203 104.932 21.6797Z"/>
  </g>
  <g id="Medium-L" transform="matrix(1 0 0 1 1677.1 1556)">
   <path d="M35.5469 32.666L117.773 32.666C120.654 32.666 122.852 30.4688 122.852 27.5391C122.852 25.1465 121.191 23.3398 119.189 22.4121C111.084 18.5059 109.424 7.8125 117.383-0.0976562C120.361-2.92969 122.803-6.15234 122.803-12.3535L122.803-83.1055C122.803-96.1914 116.064-103.027 103.076-103.027L35.791-103.027C22.8027-103.027 16.0645-96.2402 16.0645-83.1055L16.0645 13.2324C16.0645 25.9277 22.8027 32.666 35.5469 32.666ZM102.197-92.2852C108.74-92.2852 112.061-88.8672 112.061-82.5195L112.061-13.916C112.061-9.91211 109.814-7.71484 105.762-7.71484L42.2363-7.71484L42.2363-92.2852ZM26.8066-4.98047L26.8066-82.5195C26.8066-88.0371 29.2969-91.3574 34.2773-92.0898L34.2773-7.61719C31.3477-7.27539 28.9062-6.39648 26.8066-4.98047ZM53.8574-63.0371L100.195-63.0371C102.344-63.0371 104.15-64.7949 104.15-66.9922C104.15-69.1895 102.344-70.9473 100.195-70.9473L53.8574-70.9473C51.6602-70.9473 49.9023-69.1895 49.9023-66.9922C49.9023-64.7949 51.6602-63.0371 53.8574-63.0371ZM53.8574-45.752L88.2812-45.752C90.4785-45.752 92.2852-47.5098 92.2852-49.707C92.2852-51.9043 90.4785-53.6621 88.2812-53.6621L53.8574-53.6621C51.6602-53.6621 49.9023-51.9043 49.9023-49.707C49.9023-47.5098 51.6602-45.752 53.8574-45.752ZM36.8164 22.4121C29.9805 22.4121 26.3184 18.6035 26.3184 12.4023C26.3184 6.49414 30.4199 2.49023 37.207 2.49023L101.318 2.49023C102.344 2.49023 103.223 2.39258 104.102 2.19727C100.635 9.17969 101.27 16.6992 105.322 22.4121Z"/>
  </g>
  <g id="Regular-L" transform="matrix(1 0 0 1 1381.36 1556)">
   <path d="M34.5703 32.0801L116.602 32.0801C118.994 32.0801 120.898 30.1758 120.898 27.7344C120.898 25.9277 119.629 24.2676 117.969 23.6328C109.668 19.8242 107.861 9.375 115.82 1.12305C118.262-1.36719 120.898-4.6875 120.898-10.791L120.898-83.4473C120.898-96.0449 114.6-102.441 102.1-102.441L34.8633-102.441C22.3633-102.441 16.0645-96.0938 16.0645-83.4473L16.0645 13.623C16.0645 25.7812 22.4121 32.0801 34.5703 32.0801ZM101.611-93.7988C108.643-93.7988 112.256-90.0879 112.256-83.252L112.256-11.9141C112.256-7.32422 109.717-4.83398 105.078-4.83398L39.4531-4.83398L39.4531-93.7988ZM24.707-1.70898L24.707-83.252C24.707-89.0137 27.2949-92.5293 32.2754-93.5059L32.2754-4.63867C29.248-4.24805 26.8066-3.27148 24.707-1.70898ZM51.1719-63.5742L100.195-63.5742C102.148-63.5742 103.809-65.1855 103.809-67.1387C103.809-69.1406 102.148-70.752 100.195-70.752L51.1719-70.752C49.2188-70.752 47.6074-69.1406 47.6074-67.1387C47.6074-65.1855 49.2188-63.5742 51.1719-63.5742ZM51.1719-46.4844L87.4512-46.4844C89.4043-46.4844 91.0156-48.0957 91.0156-50.0977C91.0156-52.0508 89.4043-53.6621 87.4512-53.6621L51.1719-53.6621C49.2188-53.6621 47.6074-52.0508 47.6074-50.0977C47.6074-48.0957 49.2188-46.4844 51.1719-46.4844ZM35.0098 23.4375C28.3691 23.4375 24.707 19.8242 24.707 13.5254C24.707 7.56836 28.8574 3.80859 35.4492 3.80859L101.025 3.80859C102.246 3.80859 103.271 3.66211 104.248 3.41797C100.781 10.4492 101.514 17.8711 105.811 23.4375Z"/>
  </g>
  <g id="Light-L" transform="matrix(1 0 0 1 1085.43 1556)">
   <path d="M33.3984 31.7871L116.064 31.7871C117.969 31.7871 119.336 30.3711 119.336 28.4668C119.336 27.0996 118.457 25.8301 117.236 25.3418C108.398 20.6055 106.396 9.96094 114.551 1.17188C117.041-1.51367 119.336-5.07812 119.336-10.8887L119.336-84.082C119.336-95.9473 113.281-102.051 101.514-102.051L33.9355-102.051C22.1191-102.051 16.0645-95.9961 16.0645-84.082L16.0645 14.7461C16.0645 25.7812 22.168 31.7871 33.3984 31.7871ZM101.172-95.459C108.789-95.459 112.744-91.4551 112.744-83.9355L112.744-11.6699C112.744-5.51758 109.473-2.29492 103.32-2.29492L36.084-2.29492L36.084-95.459ZM22.7051 1.5625L22.7051-83.9355C22.7051-90.0879 25.293-93.8477 30.4199-95.0684L30.4199-2.05078C27.1973-1.5625 24.7559-0.341797 22.7051 1.5625ZM48.4375-65.1855L99.9023-65.1855C101.465-65.1855 102.783-66.5039 102.783-68.0664C102.783-69.6289 101.465-70.8984 99.9023-70.8984L48.4375-70.8984C46.875-70.8984 45.5566-69.6289 45.5566-68.0664C45.5566-66.5039 46.875-65.1855 48.4375-65.1855ZM48.4375-48.4863L85.3027-48.4863C86.8652-48.4863 88.1836-49.7559 88.1836-51.3184C88.1836-52.9297 86.8652-54.1992 85.3027-54.1992L48.4375-54.1992C46.875-54.1992 45.5566-52.9297 45.5566-51.3184C45.5566-49.7559 46.875-48.4863 48.4375-48.4863ZM33.7891 25.1465C26.6602 25.1465 22.7051 21.2891 22.7051 14.5996C22.7051 8.25195 27.002 4.29688 34.0332 4.29688L100.83 4.29688C102.539 4.29688 104.004 4.10156 105.371 3.71094C101.221 11.4258 102.393 19.5312 107.861 25.1465Z"/>
  </g>
  <g id="Thin-L" transform="matrix(1 0 0 1 789.747 1556)">
   <path d="M31.8848 31.3477L115.381 31.3477C116.553 31.3477 117.285 30.6152 117.285 29.3945C117.285 28.6621 116.846 27.9297 116.211 27.5879C106.738 21.7285 104.492 10.7422 112.842 1.2207C115.43-1.70898 117.285-5.56641 117.285-11.0352L117.285-84.9609C117.285-95.8496 111.572-101.562 100.732-101.562L32.666-101.562C21.7773-101.562 16.0645-95.8496 16.0645-84.9609L16.0645 16.2109C16.0645 25.7812 21.875 31.3477 31.8848 31.3477ZM32.8613-97.6562L100.537-97.6562C108.984-97.6562 113.379-93.2617 113.379-84.8145L113.379-11.3281C113.379-3.17383 109.131 1.07422 100.977 1.07422L31.6895 1.07422L31.6895-97.6074C32.0801-97.6562 32.4707-97.6562 32.8613-97.6562ZM19.9707 5.95703L19.9707-84.8145C19.9707-91.4551 22.7051-95.6055 27.9785-97.0703L27.9785 1.41602C24.4629 2.05078 22.0215 3.56445 19.9707 5.95703ZM44.7754-67.334L99.5605-67.334C100.586-67.334 101.416-68.2129 101.416-69.2383C101.416-70.2637 100.586-71.0938 99.5605-71.0938L44.7754-71.0938C43.75-71.0938 42.9199-70.2637 42.9199-69.2383C42.9199-68.2129 43.75-67.334 44.7754-67.334ZM44.7754-51.123L82.5195-51.123C83.5449-51.123 84.375-51.9531 84.375-53.0273C84.375-54.0527 83.5449-54.8828 82.5195-54.8828L44.7754-54.8828C43.75-54.8828 42.9199-54.0527 42.9199-53.0273C42.9199-51.9531 43.75-51.123 44.7754-51.123ZM32.1289 27.4414C24.4629 27.4414 19.9707 23.2422 19.9707 16.0645C19.9707 9.13086 24.5117 4.98047 32.1777 4.98047L100.586 4.98047C102.979 4.98047 104.98 4.6875 106.885 4.10156C101.807 12.6465 103.516 21.6797 110.547 27.4414Z"/>
  </g>
  <g id="Ultralight-L" transform="matrix(1 0 0 1 493.549 1556)">
   <path d="M31.1523 31.1523L115.039 31.1523C115.82 31.1523 116.26 30.7129 116.26 29.8828C116.26 29.4434 116.016 29.0039 115.674 28.7598C105.908 22.2656 103.467 11.1816 112.012 1.26953C114.6-1.75781 116.26-5.81055 116.26-11.084L116.26-85.4492C116.26-95.8008 110.693-101.318 100.293-101.318L31.9824-101.318C21.6309-101.318 16.0645-95.8008 16.0645-85.4492L16.0645 16.9434C16.0645 25.7812 21.6797 31.1523 31.1523 31.1523ZM32.1289-98.7793L100.195-98.7793C109.082-98.7793 113.672-94.1895 113.672-85.2539L113.672-11.1328C113.672-1.95312 108.936 2.7832 99.7559 2.7832L31.0059 2.7832C30.4688 2.7832 29.9805 2.83203 29.4434 2.83203L29.4434-98.6328C30.2734-98.7305 31.2012-98.7793 32.1289-98.7793ZM18.6035 8.20312L18.6035-85.2539C18.6035-92.1387 21.3867-96.4844 26.709-98.0469L26.709 3.17383C23.0957 3.90625 20.6543 5.56641 18.6035 8.20312ZM42.9199-68.457L99.3652-68.457C100.098-68.457 100.732-69.043 100.732-69.8242C100.732-70.5566 100.098-71.1914 99.3652-71.1914L42.9199-71.1914C42.1387-71.1914 41.5527-70.5566 41.5527-69.8242C41.5527-69.043 42.1387-68.457 42.9199-68.457ZM42.9199-52.4902L81.0547-52.4902C81.8359-52.4902 82.4219-53.125 82.4219-53.8574C82.4219-54.5898 81.8359-55.2246 81.0547-55.2246L42.9199-55.2246C42.1387-55.2246 41.5527-54.5898 41.5527-53.8574C41.5527-53.125 42.1387-52.4902 42.9199-52.4902ZM31.25 28.5645C23.291 28.5645 18.6035 24.2188 18.6035 16.7969C18.6035 9.57031 23.2422 5.37109 31.2012 5.37109L100.439 5.37109C103.174 5.37109 105.469 5.0293 107.617 4.29688C102.1 13.2812 104.102 22.7539 111.963 28.5645Z"/>
  </g>
  <g id="Black-M" transform="matrix(1 0 0 1 2874.88 1126)">
   <path d="M31.9824 20.2148L97.0215 20.2148C101.562 20.2148 104.59 17.1875 104.59 12.6465C104.59 8.10547 101.562 6.20117 98.291 3.85742C93.0664 0.0488281 92.1875-9.86328 98.6816-14.502C103.955-18.2617 104.395-20.8008 104.395-26.0254L104.395-71.0938C104.395-83.3496 97.1191-90.625 84.8633-90.625L31.9824-90.625C19.7266-90.625 12.4512-83.3496 12.4512-71.0938L12.4512 0.683594C12.4512 12.9395 19.7266 20.2148 31.9824 20.2148ZM30.7617-27.3438L30.7617-68.1641C30.7617-70.9961 31.8359-72.3145 34.9121-72.3145L36.3281-72.3145L36.3281-27.7832L35.4004-27.7832C33.8379-27.7832 32.2266-27.5879 30.7617-27.3438ZM81.9336-72.3145C85.0098-72.3145 86.1328-70.9961 86.1328-68.1641L86.1328-29.2969C86.1328-28.3203 85.5469-27.7832 84.4727-27.7832L45.752-27.7832L45.752-72.3145ZM54.4922-54.7363L77.3926-54.7363C79.9316-54.7363 82.0801-56.8848 82.0801-59.4727C82.0801-62.0117 79.9316-64.1602 77.3926-64.1602L54.4922-64.1602C51.9043-64.1602 49.7559-62.0117 49.7559-59.4727C49.7559-56.8848 51.9043-54.7363 54.4922-54.7363ZM54.4922-40.4297L71.8262-40.4297C74.3652-40.4297 76.5137-42.5293 76.5137-45.1172C76.5137-47.6562 74.3652-49.8047 71.8262-49.8047L54.4922-49.8047C51.9043-49.8047 49.7559-47.6562 49.7559-45.1172C49.7559-42.5293 51.9043-40.4297 54.4922-40.4297ZM37.3535 5.12695C30.8105 5.12695 27.7344 0.78125 27.7344-3.75977C27.7344-8.34961 30.8105-12.6953 37.3047-12.6953L80.4688-12.6953C77.6367-7.12891 77.5391-0.341797 80.0781 5.12695Z"/>
  </g>
  <g id="Heavy-M" transform="matrix(1 0 0 1 2579.34 1126)">
   <path d="M30.9082 19.4824L95.5566 19.4824C99.5117 19.4824 102.246 16.748 102.246 12.793C102.246 8.93555 99.6582 7.08008 96.7773 5.17578C91.3086 1.66016 90.3809-7.76367 96.7773-12.7441C101.221-16.0645 102.1-18.5547 102.1-23.7305L102.1-71.3379C102.1-83.1055 95.3125-89.8926 83.5938-89.8926L30.957-89.8926C19.1895-89.8926 12.4512-83.1055 12.4512-71.3379L12.4512 0.976562C12.4512 12.7441 19.1895 19.4824 30.9082 19.4824ZM28.2715-23.5352L28.2715-69.0918C28.2715-72.4121 29.7363-74.0723 33.252-74.0723L33.9355-74.0723L33.9355-24.3164L33.7402-24.3164C31.7383-24.3164 29.9316-24.0234 28.2715-23.5352ZM81.25-74.0723C84.8145-74.0723 86.2793-72.4121 86.2793-69.0918L86.2793-26.4648C86.2793-25.0977 85.4492-24.3164 83.9844-24.3164L42.627-24.3164L42.627-74.0723ZM51.3672-55.127L77.4902-55.127C79.834-55.127 81.8359-57.0801 81.8359-59.4727C81.8359-61.8164 79.834-63.8184 77.4902-63.8184L51.3672-63.8184C48.9746-63.8184 47.0215-61.8164 47.0215-59.4727C47.0215-57.0801 48.9746-55.127 51.3672-55.127ZM51.3672-40.9668L71.1426-40.9668C73.5352-40.9668 75.4883-42.9688 75.4883-45.3125C75.4883-47.7051 73.5352-49.6582 71.1426-49.6582L51.3672-49.6582C48.9746-49.6582 47.0215-47.7051 47.0215-45.3125C47.0215-42.9688 48.9746-40.9668 51.3672-40.9668ZM35.1074 6.10352C28.9551 6.10352 25.9766 2.14844 25.9766-2.44141C25.9766-6.93359 29.0527-10.9375 35.2051-10.9375L79.4434-10.9375C79.7363-10.9375 80.0781-10.9375 80.4199-10.9863C77.6855-5.51758 77.6855 0.927734 80.2734 6.10352Z"/>
  </g>
  <g id="Bold-M" transform="matrix(1 0 0 1 2283.95 1126)">
   <path d="M29.7363 18.6523L93.8477 18.6523C97.2168 18.6523 99.6094 16.2598 99.6094 12.9395C99.6094 9.81445 97.4609 8.05664 95.0684 6.64062C89.4043 3.51562 88.3301-5.41992 94.5801-10.791C98.1445-13.623 99.5117-16.0645 99.5117-21.0938L99.5117-71.6309C99.5117-82.8613 93.3105-89.0625 82.1777-89.0625L29.7852-89.0625C18.6035-89.0625 12.4512-82.8613 12.4512-71.6309L12.4512 1.36719C12.4512 12.5 18.6035 18.6523 29.7363 18.6523ZM80.4688-75.9766C84.5703-75.9766 86.4258-73.9746 86.4258-70.1172L86.4258-23.291C86.4258-21.4844 85.3516-20.459 83.4473-20.459L39.1113-20.459L39.1113-75.9766ZM25.5371-19.2383L25.5371-70.1172C25.5371-73.877 27.2949-75.9277 31.2012-75.9766L31.2012-20.459C29.0527-20.3613 27.1973-19.9707 25.5371-19.2383ZM47.8516-55.5176L77.5879-55.5176C79.7363-55.5176 81.543-57.2754 81.543-59.4727C81.543-61.6211 79.7363-63.4277 77.5879-63.4277L47.8516-63.4277C45.7031-63.4277 43.8965-61.6211 43.8965-59.4727C43.8965-57.2754 45.7031-55.5176 47.8516-55.5176ZM47.8516-41.6016L70.4102-41.6016C72.5586-41.6016 74.3652-43.4082 74.3652-45.5566C74.3652-47.7539 72.5586-49.5117 70.4102-49.5117L47.8516-49.5117C45.7031-49.5117 43.8965-47.7539 43.8965-45.5566C43.8965-43.4082 45.7031-41.6016 47.8516-41.6016ZM32.6172 7.17773C26.8555 7.17773 24.0234 3.66211 24.0234-0.927734C24.0234-5.37109 27.0996-8.98438 32.8125-8.98438L79.1016-8.98438C79.4922-8.98438 79.9316-8.98438 80.3223-9.08203C77.7344-3.71094 77.8809 2.34375 80.4688 7.17773Z"/>
  </g>
  <g id="Semibold-M" transform="matrix(1 0 0 1 1988.16 1126)">
   <path d="M28.9062 18.1152L92.6758 18.1152C95.6055 18.1152 97.7539 15.9668 97.7539 13.0371C97.7539 10.4004 95.9961 8.74023 93.8965 7.66602C88.0371 4.78516 86.9141-3.80859 93.1152-9.42383C96.0449-11.9141 97.7051-14.3555 97.7051-19.3359L97.7051-71.8262C97.7051-82.666 91.9434-88.5254 81.1523-88.5254L29.0039-88.5254C18.2129-88.5254 12.4512-82.7148 12.4512-71.8262L12.4512 1.61133C12.4512 12.3047 18.2129 18.1152 28.9062 18.1152ZM79.9805-77.3438C84.375-77.3438 86.5234-75.0488 86.5234-70.8496L86.5234-21.1426C86.5234-18.9941 85.3027-17.7734 83.1055-17.7734L36.6699-17.7734L36.6699-77.3438ZM23.6328-16.3086L23.6328-70.8496C23.6328-74.8047 25.4883-77.0508 29.3457-77.2949L29.3457-17.7734C27.1484-17.627 25.293-17.1387 23.6328-16.3086ZM45.459-55.8105L77.6855-55.8105C79.6875-55.8105 81.3477-57.4707 81.3477-59.4727C81.3477-61.4746 79.6875-63.1348 77.6855-63.1348L45.459-63.1348C43.4082-63.1348 41.748-61.4746 41.748-59.4727C41.748-57.4707 43.4082-55.8105 45.459-55.8105ZM45.459-42.041L69.873-42.041C71.875-42.041 73.5352-43.7012 73.5352-45.752C73.5352-47.7539 71.875-49.4141 69.873-49.4141L45.459-49.4141C43.4082-49.4141 41.748-47.7539 41.748-45.752C41.748-43.7012 43.4082-42.041 45.459-42.041ZM30.8594 7.95898C25.4395 7.95898 22.6562 4.73633 22.6562 0.0976562C22.6562-4.29688 25.7812-7.61719 31.1523-7.61719L78.8574-7.61719C79.3457-7.61719 79.834-7.66602 80.2734-7.76367C77.7832-2.49023 77.9785 3.32031 80.6152 7.95898Z"/>
  </g>
  <g id="Medium-M" transform="matrix(1 0 0 1 1692.14 1126)">
   <path d="M28.2715 17.6758L91.7969 17.6758C94.3848 17.6758 96.3867 15.6738 96.3867 13.0859C96.3867 10.8887 94.873 9.27734 93.0176 8.39844C87.0117 5.71289 85.8398-2.58789 91.9434-8.39844C94.4336-10.5957 96.3379-13.0371 96.3379-17.9688L96.3379-72.0215C96.3379-82.5684 90.918-88.0859 80.4199-88.0859L28.3691-88.0859C17.9199-88.0859 12.4512-82.6172 12.4512-72.0215L12.4512 1.75781C12.4512 12.207 17.9199 17.6758 28.2715 17.6758ZM79.541-78.3691C84.2773-78.3691 86.6211-75.8789 86.6211-71.3867L86.6211-19.4824C86.6211-17.0898 85.2539-15.7715 82.8125-15.7715L34.8633-15.7715L34.8633-78.3691ZM22.168-14.0625L22.168-71.3867C22.168-75.4395 24.0723-77.832 27.9297-78.2715L27.9297-15.7227C25.7324-15.5273 23.8281-14.9414 22.168-14.0625ZM43.6035-56.0059L77.7344-56.0059C79.6387-56.0059 81.2012-57.5684 81.2012-59.4727C81.2012-61.377 79.6387-62.9395 77.7344-62.9395L43.6035-62.9395C41.6992-62.9395 40.1367-61.377 40.1367-59.4727C40.1367-57.5684 41.6992-56.0059 43.6035-56.0059ZM43.6035-42.3828L69.4824-42.3828C71.3867-42.3828 72.9492-43.9453 72.9492-45.8496C72.9492-47.7539 71.3867-49.3164 69.4824-49.3164L43.6035-49.3164C41.6992-49.3164 40.1367-47.7539 40.1367-45.8496C40.1367-43.9453 41.6992-42.3828 43.6035-42.3828ZM29.5898 8.49609C24.3652 8.49609 21.6309 5.51758 21.6309 0.927734C21.6309-3.51562 24.7559-6.5918 29.9316-6.5918L78.6621-6.5918C79.1992-6.5918 79.7363-6.64062 80.2246-6.73828C77.7832-1.5625 78.0762 4.05273 80.7129 8.49609Z"/>
  </g>
  <g id="Regular-M" transform="matrix(1 0 0 1 1396.33 1126)">
   <path d="M27.4414 17.0898L90.6738 17.0898C92.8223 17.0898 94.5801 15.3809 94.5801 13.1836C94.5801 11.4746 93.4082 9.96094 91.8457 9.42383C85.6934 6.98242 84.4238-0.976562 90.4785-7.08008C92.334-8.93555 94.5801-11.3281 94.5801-16.2109L94.5801-72.2168C94.5801-82.373 89.5508-87.5488 79.4434-87.5488L27.5879-87.5488C17.4805-87.5488 12.4512-82.4219 12.4512-72.2168L12.4512 2.00195C12.4512 12.0605 17.5293 17.0898 27.4414 17.0898ZM79.0527-79.6875C84.1309-79.6875 86.7188-76.9531 86.7188-72.0703L86.7188-17.2852C86.7188-14.6484 85.2051-13.1348 82.4707-13.1348L32.4707-13.1348L32.4707-79.6875ZM20.3125-11.1328L20.3125-72.0703C20.3125-76.3184 22.2656-78.9062 26.0742-79.541L26.0742-13.0371C23.8281-12.793 21.9727-12.1582 20.3125-11.1328ZM41.2109-56.25L77.832-56.25C79.5898-56.25 81.0059-57.7148 81.0059-59.4727C81.0059-61.2305 79.5898-62.6465 77.832-62.6465L41.2109-62.6465C39.4531-62.6465 38.0371-61.2305 38.0371-59.4727C38.0371-57.7148 39.4531-56.25 41.2109-56.25ZM41.2109-42.8223L68.9941-42.8223C70.752-42.8223 72.168-44.2871 72.168-46.0449C72.168-47.8027 70.752-49.2188 68.9941-49.2188L41.2109-49.2188C39.4531-49.2188 38.0371-47.8027 38.0371-46.0449C38.0371-44.2871 39.4531-42.8223 41.2109-42.8223ZM27.8809 9.22852C22.9492 9.22852 20.3125 6.5918 20.3125 1.95312C20.3125-2.44141 23.4375-5.27344 28.3203-5.27344L78.418-5.27344C79.0527-5.27344 79.6387-5.32227 80.127-5.41992C77.832-0.341797 78.2227 5.0293 80.8105 9.22852Z"/>
  </g>
  <g id="Light-M" transform="matrix(1 0 0 1 1100.33 1126)">
   <path d="M26.416 16.8457L90.1855 16.8457C91.8945 16.8457 93.1641 15.5273 93.1641 13.8184C93.1641 12.5488 92.334 11.377 91.1621 10.9375C84.5703 7.71484 83.1055-0.439453 89.3555-7.03125C91.2598-9.0332 93.1641-11.6699 93.1641-16.3086L93.1641-72.8027C93.1641-82.3242 88.3789-87.207 78.9062-87.207L26.709-87.207C17.2852-87.207 12.4512-82.373 12.4512-72.8027L12.4512 3.02734C12.4512 12.0605 17.2852 16.8457 26.416 16.8457ZM78.6133-81.1523C84.2285-81.1523 87.1582-78.1738 87.1582-72.6562L87.1582-17.0898C87.1582-13.0371 84.9609-10.8398 80.8594-10.8398L29.4922-10.8398L29.4922-81.1523ZM18.5059-8.20312L18.5059-72.6562C18.5059-77.2461 20.5078-80.0781 24.4141-80.9082L24.4141-10.6934C22.0215-10.3516 20.1172-9.47266 18.5059-8.20312ZM38.7695-57.7148L77.5879-57.7148C78.9551-57.7148 80.0781-58.8867 80.0781-60.2539C80.0781-61.6699 78.9551-62.793 77.5879-62.793L38.7695-62.793C37.3535-62.793 36.2305-61.6699 36.2305-60.2539C36.2305-58.8867 37.3535-57.7148 38.7695-57.7148ZM38.7695-44.6289L67.0898-44.6289C68.457-44.6289 69.6289-45.752 69.6289-47.168C69.6289-48.5352 68.457-49.707 67.0898-49.707L38.7695-49.707C37.3535-49.707 36.2305-48.5352 36.2305-47.168C36.2305-45.752 37.3535-44.6289 38.7695-44.6289ZM26.7578 10.791C21.4355 10.791 18.5059 7.91016 18.5059 2.92969C18.5059-1.80664 21.7285-4.83398 27.002-4.83398L78.2227-4.83398C79.3457-4.83398 80.2734-4.93164 81.1523-5.17578C78.2227 0.488281 78.9551 6.44531 82.666 10.791Z"/>
  </g>
  <g id="Thin-M" transform="matrix(1 0 0 1 804.518 1126)">
   <path d="M25.0488 16.4551L89.5996 16.4551C90.625 16.4551 91.3574 15.7227 91.3574 14.6484C91.3574 13.916 90.918 13.2812 90.2832 12.9883C83.0566 8.64258 81.3965 0.244141 87.8418-6.98242C89.7949-9.17969 91.3574-12.1094 91.3574-16.4551L91.3574-73.584C91.3574-82.2266 86.8164-86.7676 78.2227-86.7676L25.5859-86.7676C16.9434-86.7676 12.4512-82.2266 12.4512-73.584L12.4512 4.29688C12.4512 12.0605 16.9922 16.4551 25.0488 16.4551ZM25.7324-83.1543L78.0273-83.1543C84.4238-83.1543 87.7441-79.7852 87.7441-73.4863L87.7441-16.748C87.7441-10.8887 84.6191-7.8125 78.7598-7.8125L25.5371-7.8125L25.5371-83.1543C25.7324-83.1543 25.7324-83.1543 25.7324-83.1543ZM16.0645-4.24805L16.0645-73.4863C16.0645-78.5156 18.1641-81.6406 22.2168-82.7148L22.2168-7.56836C19.5801-7.12891 17.6758-6.00586 16.0645-4.24805ZM35.498-59.668L77.2461-59.668C78.125-59.668 78.9062-60.4004 78.9062-61.3281C78.9062-62.207 78.125-62.9883 77.2461-62.9883L35.498-62.9883C34.5703-62.9883 33.8379-62.207 33.8379-61.3281C33.8379-60.4004 34.5703-59.668 35.498-59.668ZM35.498-46.9727L64.5508-46.9727C65.4785-46.9727 66.2109-47.7539 66.2109-48.6328C66.2109-49.5605 65.4785-50.293 64.5508-50.293L35.498-50.293C34.5703-50.293 33.8379-49.5605 33.8379-48.6328C33.8379-47.7539 34.5703-46.9727 35.498-46.9727ZM25.2441 12.8418C19.4336 12.8418 16.0645 9.66797 16.0645 4.19922C16.0645-1.02539 19.5312-4.19922 25.3418-4.19922L78.0273-4.19922C79.6875-4.19922 81.1523-4.39453 82.5195-4.83398C78.7598 1.61133 79.9805 8.39844 85.1074 12.8418Z"/>
  </g>
  <g id="Ultralight-M" transform="matrix(1 0 0 1 508.295 1126)">
   <path d="M24.3652 16.2598L89.2578 16.2598C89.9902 16.2598 90.3809 15.8691 90.3809 15.0879C90.3809 14.6484 90.1855 14.2578 89.8438 14.0137C82.3242 9.13086 80.5176 0.585938 87.0605-6.98242C89.0625-9.27734 90.3809-12.3535 90.3809-16.5039L90.3809-73.9746C90.3809-82.1777 86.0352-86.5234 77.8809-86.5234L25-86.5234C16.7969-86.5234 12.4512-82.1777 12.4512-73.9746L12.4512 4.98047C12.4512 12.0605 16.8457 16.2598 24.3652 16.2598ZM25.0977-84.1309L77.7344-84.1309C84.5215-84.1309 87.9883-80.6152 87.9883-73.877L87.9883-16.6016C87.9883-9.81445 84.4727-6.29883 77.6855-6.29883L24.3652-6.29883C24.0723-6.29883 23.7793-6.25 23.4863-6.25L23.4863-84.082C24.0234-84.1309 24.5605-84.1309 25.0977-84.1309ZM14.8438-2.24609L14.8438-73.877C14.8438-79.1504 16.9434-82.4219 21.0938-83.6426L21.0938-6.00586C18.3105-5.46875 16.4062-4.19922 14.8438-2.24609ZM33.8379-60.6445L77.0508-60.6445C77.7344-60.6445 78.2715-61.1816 78.2715-61.8652C78.2715-62.5 77.7344-63.0859 77.0508-63.0859L33.8379-63.0859C33.1543-63.0859 32.6172-62.5 32.6172-61.8652C32.6172-61.1816 33.1543-60.6445 33.8379-60.6445ZM33.8379-48.1934L63.2812-48.1934C63.916-48.1934 64.4531-48.7305 64.4531-49.4141C64.4531-50.0977 63.916-50.6348 63.2812-50.6348L33.8379-50.6348C33.1543-50.6348 32.6172-50.0977 32.6172-49.4141C32.6172-48.7305 33.1543-48.1934 33.8379-48.1934ZM24.4629 13.8672C18.4082 13.8672 14.8438 10.5469 14.8438 4.88281C14.8438-0.634766 18.4082-3.90625 24.4629-3.90625L77.8809-3.90625C79.8828-3.90625 81.5918-4.15039 83.2031-4.63867C79.0527 2.19727 80.4688 9.375 86.3281 13.8672Z"/>
  </g>
  <g id="Black-S" transform="matrix(1 0 0 1 2887.62 696)">
   <path d="M25 8.1543L75.9277 8.1543C79.4434 8.1543 81.7871 5.81055 81.7871 2.29492C81.7871-1.2207 79.4434-2.73438 76.9043-4.54102C72.8027-7.4707 72.1191-15.1855 77.1973-18.8477C81.25-21.7773 81.6406-23.7305 81.6406-27.832L81.6406-63.3301C81.6406-72.9004 75.9766-78.5645 66.4062-78.5645L25-78.5645C15.4297-78.5645 9.76562-72.9004 9.76562-63.3301L9.76562-7.08008C9.76562 2.49023 15.4297 8.1543 25 8.1543ZM23.9258-28.8086L23.9258-61.084C23.9258-63.3301 24.8047-64.4043 27.2461-64.4043L28.3203-64.4043L28.3203-29.1504L27.6367-29.1504C26.3672-29.1504 25.0977-29.0039 23.9258-28.8086ZM64.1602-64.4043C66.6016-64.4043 67.4805-63.3301 67.4805-61.084L67.4805-30.3711C67.4805-29.5898 67.041-29.1504 66.1621-29.1504L35.6445-29.1504L35.6445-64.4043ZM42.4805-50.5371L60.6445-50.5371C62.6465-50.5371 64.3066-52.1973 64.3066-54.1992C64.3066-56.2012 62.6465-57.8613 60.6445-57.8613L42.4805-57.8613C40.4785-57.8613 38.8184-56.2012 38.8184-54.1992C38.8184-52.1973 40.4785-50.5371 42.4805-50.5371ZM42.4805-39.3066L56.25-39.3066C58.252-39.3066 59.9121-40.9668 59.9121-42.9688C59.9121-44.9707 58.252-46.6309 56.25-46.6309L42.4805-46.6309C40.4785-46.6309 38.8184-44.9707 38.8184-42.9688C38.8184-40.9668 40.4785-39.3066 42.4805-39.3066ZM29.1016-3.56445C24.0234-3.56445 21.6309-6.93359 21.6309-10.498C21.6309-14.0625 24.0234-17.4316 29.1016-17.4316L63.0371-17.4316C60.8398-13.0859 60.7422-7.8125 62.7441-3.56445Z"/>
  </g>
  <g id="Heavy-S" transform="matrix(1 0 0 1 2591.74 696)">
   <path d="M24.3164 7.61719L74.8047 7.61719C77.9785 7.61719 80.127 5.46875 80.127 2.29492C80.127-0.732422 78.0762-2.19727 75.8301-3.71094C71.582-6.29883 70.8496-13.623 75.8301-17.5293C79.2969-20.0684 80.0293-21.9727 80.0293-26.0254L80.0293-63.4766C80.0293-72.7539 74.7559-78.0273 65.4785-78.0273L24.3164-78.0273C15.0391-78.0273 9.76562-72.7539 9.76562-63.4766L9.76562-6.93359C9.76562 2.34375 15.0391 7.61719 24.3164 7.61719ZM22.2656-26.2207L22.2656-61.7188C22.2656-64.2578 23.3887-65.5762 26.0742-65.5762L26.6602-65.5762L26.6602-26.7578L26.5137-26.7578C25-26.7578 23.5352-26.5625 22.2656-26.2207ZM63.6719-65.5762C66.4062-65.5762 67.5293-64.2578 67.5293-61.7188L67.5293-28.2227C67.5293-27.2949 66.9922-26.7578 65.9668-26.7578L33.5938-26.7578L33.5938-65.5762ZM40.3809-50.6348L60.7422-50.6348C62.6465-50.6348 64.209-52.1973 64.209-54.1016C64.209-56.0059 62.6465-57.5684 60.7422-57.5684L40.3809-57.5684C38.4766-57.5684 36.9141-56.0059 36.9141-54.1016C36.9141-52.1973 38.4766-50.6348 40.3809-50.6348ZM40.3809-39.5508L55.957-39.5508C57.8613-39.5508 59.4238-41.1133 59.4238-43.0176C59.4238-44.9219 57.8613-46.4844 55.957-46.4844L40.3809-46.4844C38.4766-46.4844 36.9141-44.9219 36.9141-43.0176C36.9141-41.1133 38.4766-39.5508 40.3809-39.5508ZM27.5391-2.97852C22.7539-2.97852 20.5078-6.05469 20.5078-9.57031C20.5078-13.0371 22.9004-16.1621 27.6367-16.1621L62.2559-16.1621C62.4512-16.1621 62.6465-16.1621 62.8906-16.1621C60.8398-11.9629 60.791-7.03125 62.6953-2.97852Z"/>
  </g>
  <g id="Bold-S" transform="matrix(1 0 0 1 2295.96 696)">
   <path d="M23.4863 7.03125L73.584 7.03125C76.3184 7.03125 78.2715 5.07812 78.2715 2.34375C78.2715-0.195312 76.5625-1.61133 74.6094-2.7832C70.2637-4.98047 69.4336-11.9141 74.3164-16.0156C77.0508-18.1641 78.2227-20.0684 78.2227-24.0723L78.2227-63.623C78.2227-72.5586 73.3398-77.4414 64.4531-77.4414L23.5352-77.4414C14.6484-77.4414 9.76562-72.5586 9.76562-63.623L9.76562-6.78711C9.76562 2.14844 14.6484 7.03125 23.4863 7.03125ZM63.1348-66.8457C66.2109-66.8457 67.627-65.332 67.627-62.4512L67.627-25.8301C67.627-24.707 66.9434-24.0723 65.7715-24.0723L31.25-24.0723L31.25-66.8457ZM20.3613-23.291L20.3613-62.4512C20.3613-65.332 21.7285-66.8457 24.7559-66.8457L24.7559-24.0723C23.1934-24.0234 21.6797-23.7793 20.3613-23.291ZM37.9883-50.7812L60.8887-50.7812C62.6465-50.7812 64.1113-52.2461 64.1113-54.0039C64.1113-55.8105 62.6465-57.2754 60.8887-57.2754L37.9883-57.2754C36.2305-57.2754 34.7656-55.8105 34.7656-54.0039C34.7656-52.2461 36.2305-50.7812 37.9883-50.7812ZM37.9883-39.7949L55.6152-39.7949C57.373-39.7949 58.8379-41.2598 58.8379-43.0664C58.8379-44.8242 57.373-46.2891 55.6152-46.2891L37.9883-46.2891C36.2305-46.2891 34.7656-44.8242 34.7656-43.0664C34.7656-41.2598 36.2305-39.7949 37.9883-39.7949ZM25.7324-2.34375C21.3867-2.34375 19.2383-5.0293 19.2383-8.54492C19.2383-11.9629 21.582-14.6973 25.9277-14.6973L62.0117-14.6973C62.207-14.6973 62.4512-14.6973 62.6953-14.7461C60.8398-10.6934 60.8398-6.10352 62.5977-2.34375Z"/>
  </g>
  <g id="Semibold-S" transform="matrix(1 0 0 1 1999.88 696)">
   <path d="M22.9492 6.64062L72.7539 6.64062C75.1953 6.64062 77.002 4.78516 77.002 2.34375C77.002 0.195312 75.5371-1.2207 73.7793-2.09961C69.3359-4.10156 68.5059-10.7422 73.291-14.9902C75.5371-16.8457 76.9531-18.7012 76.9531-22.7051L76.9531-63.7207C76.9531-72.4121 72.4121-77.0508 63.7695-77.0508L22.998-77.0508C14.3555-77.0508 9.76562-72.4609 9.76562-63.7207L9.76562-6.68945C9.76562 2.00195 14.3555 6.64062 22.9492 6.64062ZM62.793-67.7734C66.0645-67.7734 67.6758-66.0645 67.6758-62.9395L67.6758-24.1699C67.6758-22.9492 66.8945-22.2656 65.625-22.2656L29.6875-22.2656L29.6875-67.7734ZM19.0918-21.2891L19.0918-62.9395C19.0918-65.918 20.5078-67.5781 23.4863-67.7246L23.4863-22.2168C21.875-22.1191 20.3613-21.8262 19.0918-21.2891ZM36.377-50.8789L60.9375-50.8789C62.6465-50.8789 64.0625-52.2461 64.0625-53.9551C64.0625-55.6641 62.6465-57.0312 60.9375-57.0312L36.377-57.0312C34.668-57.0312 33.252-55.6641 33.252-53.9551C33.252-52.2461 34.668-50.8789 36.377-50.8789ZM36.377-39.9902L55.3711-39.9902C57.0801-39.9902 58.4961-41.4062 58.4961-43.0664C58.4961-44.7754 57.0801-46.1914 55.3711-46.1914L36.377-46.1914C34.668-46.1914 33.252-44.7754 33.252-43.0664C33.252-41.4062 34.668-39.9902 36.377-39.9902ZM24.5117-1.9043C20.4102-1.9043 18.3594-4.3457 18.3594-7.8125C18.3594-11.1816 20.7031-13.7207 24.8047-13.7207L61.8164-13.7207C62.0605-13.7207 62.3047-13.7207 62.5488-13.7207C60.791-9.81445 60.8398-5.51758 62.5488-1.9043Z"/>
  </g>
  <g id="Medium-S" transform="matrix(1 0 0 1 1703.66 696)">
   <path d="M22.5586 6.29883L72.1191 6.29883C74.3164 6.29883 76.0254 4.58984 76.0254 2.39258C76.0254 0.488281 74.7559-0.927734 73.1445-1.61133C68.6035-3.41797 67.7246-9.81445 72.5098-14.209C74.3652-15.8691 76.0254-17.6758 76.0254-21.6309L76.0254-63.8184C76.0254-72.3145 71.6797-76.7578 63.2324-76.7578L22.5586-76.7578C14.1113-76.7578 9.76562-72.3633 9.76562-63.8184L9.76562-6.64062C9.76562 1.95312 14.1113 6.29883 22.5586 6.29883ZM62.5-68.457C65.9668-68.457 67.6758-66.6016 67.6758-63.3301L67.6758-22.9492C67.6758-21.6309 66.8945-20.8496 65.5273-20.8496L28.4668-20.8496L28.4668-68.457ZM18.0664-19.7754L18.0664-63.3301C18.0664-66.3574 19.5801-68.1641 22.5098-68.4082L22.5098-20.8008C20.8984-20.7031 19.3848-20.3613 18.0664-19.7754ZM35.1074-50.9277L61.0352-50.9277C62.6465-50.9277 64.0137-52.2461 64.0137-53.9062C64.0137-55.5176 62.6465-56.8848 61.0352-56.8848L35.1074-56.8848C33.4961-56.8848 32.1289-55.5176 32.1289-53.9062C32.1289-52.2461 33.4961-50.9277 35.1074-50.9277ZM35.1074-40.1367L55.2246-40.1367C56.8359-40.1367 58.2031-41.4551 58.2031-43.1152C58.2031-44.7266 56.8359-46.0938 55.2246-46.0938L35.1074-46.0938C33.4961-46.0938 32.1289-44.7266 32.1289-43.1152C32.1289-41.4551 33.4961-40.1367 35.1074-40.1367ZM23.584-1.5625C19.6777-1.5625 17.6758-3.80859 17.6758-7.27539C17.6758-10.5957 20.0684-12.9883 23.9258-12.9883L61.7188-12.9883C61.9629-12.9883 62.207-12.9883 62.4512-12.9883C60.791-9.17969 60.8887-5.0293 62.5-1.5625Z"/>
  </g>
  <g id="Regular-S" transform="matrix(1 0 0 1 1407.56 696)">
   <path d="M22.0215 5.9082L71.2891 5.9082C73.1934 5.9082 74.8047 4.3457 74.8047 2.39258C74.8047 0.830078 73.7305-0.488281 72.3145-0.976562C67.6758-2.53906 66.7969-8.64258 71.4355-13.1836C72.9004-14.5508 74.8047-16.3574 74.8047-20.2637L74.8047-63.916C74.8047-72.2168 70.7031-76.3672 62.5-76.3672L22.0215-76.3672C13.8184-76.3672 9.76562-72.2656 9.76562-63.916L9.76562-6.54297C9.76562 1.80664 13.8184 5.9082 22.0215 5.9082ZM62.1582-69.3359C65.8203-69.3359 67.7246-67.334 67.7246-63.8184L67.7246-21.2891C67.7246-19.873 66.8457-19.043 65.3809-19.043L26.9043-19.043L26.9043-69.3359ZM16.7969-17.8223L16.7969-63.8184C16.7969-66.9434 18.3105-68.8477 21.2402-69.2383L21.2402-18.9453C19.5801-18.7988 18.1152-18.4082 16.7969-17.8223ZM33.4961-51.0254L61.084-51.0254C62.6465-51.0254 63.916-52.2949 63.916-53.8574C63.916-55.3711 62.6465-56.6406 61.084-56.6406L33.4961-56.6406C31.9336-56.6406 30.6641-55.3711 30.6641-53.8574C30.6641-52.2949 31.9336-51.0254 33.4961-51.0254ZM33.4961-40.332L54.9805-40.332C56.543-40.332 57.8125-41.6016 57.8125-43.1641C57.8125-44.6777 56.543-45.9473 54.9805-45.9473L33.4961-45.9473C31.9336-45.9473 30.6641-44.6777 30.6641-43.1641C30.6641-41.6016 31.9336-40.332 33.4961-40.332ZM22.3633-1.12305C18.7012-1.12305 16.7969-3.125 16.7969-6.5918C16.7969-9.81445 19.1895-12.0117 22.8027-12.0117L61.5234-12.0117C61.8164-12.0117 62.0605-12.0117 62.3047-12.0117C60.791-8.30078 60.8887-4.39453 62.4512-1.12305Z"/>
  </g>
  <g id="Light-S" transform="matrix(1 0 0 1 1111.48 696)">
   <path d="M21.0938 5.66406L70.8496 5.66406C72.3633 5.66406 73.5352 4.49219 73.5352 2.92969C73.5352 1.80664 72.7539 0.732422 71.7285 0.341797C66.6992-1.85547 65.625-8.20312 70.459-13.1348C71.9238-14.6484 73.5352-16.6504 73.5352-20.3613L73.5352-64.4531C73.5352-72.168 69.6777-76.0742 62.0605-76.0742L21.2891-76.0742C13.623-76.0742 9.76562-72.168 9.76562-64.4531L9.76562-5.66406C9.76562 1.80664 13.623 5.66406 21.0938 5.66406ZM61.7676-70.6543C65.9668-70.6543 68.1152-68.4082 68.1152-64.3555L68.1152-21.0938C68.1152-18.457 66.6504-16.9922 63.9648-16.9922L24.2188-16.9922L24.2188-70.6543ZM15.1855-15.1855L15.1855-64.3555C15.1855-67.7734 16.748-69.9219 19.7754-70.5078L19.7754-16.8945C17.9688-16.6504 16.4551-16.0645 15.1855-15.1855ZM31.2988-52.2949L60.8887-52.2949C62.1094-52.2949 63.1348-53.3203 63.1348-54.541C63.1348-55.7617 62.1094-56.7871 60.8887-56.7871L31.2988-56.7871C30.0781-56.7871 29.1016-55.7617 29.1016-54.541C29.1016-53.3203 30.0781-52.2949 31.2988-52.2949ZM31.2988-41.8945L53.2715-41.8945C54.541-41.8945 55.5176-42.9199 55.5176-44.1406C55.5176-45.3613 54.541-46.3867 53.2715-46.3867L31.2988-46.3867C30.0781-46.3867 29.1016-45.3613 29.1016-44.1406C29.1016-42.9199 30.0781-41.8945 31.2988-41.8945ZM21.3867 0.244141C17.3828 0.244141 15.1855-1.95312 15.1855-5.71289C15.1855-9.27734 17.6758-11.5723 21.6797-11.5723L61.377-11.5723C62.0605-11.5723 62.6465-11.6699 63.2324-11.7676C61.1328-7.56836 61.5723-3.125 64.0625 0.244141Z"/>
  </g>
  <g id="Thin-S" transform="matrix(1 0 0 1 815.578 696)">
   <path d="M19.9219 5.32227L70.3125 5.32227C71.2402 5.32227 71.9238 4.63867 71.9238 3.66211C71.9238 3.02734 71.4844 2.39258 70.8984 2.14844C65.3809-1.02539 64.1113-7.56836 69.0918-13.1348C70.6543-14.7949 71.9238-17.041 71.9238-20.459L71.9238-65.1367C71.9238-72.0703 68.3594-75.6836 61.4258-75.6836L20.2637-75.6836C13.3789-75.6836 9.76562-72.0703 9.76562-65.1367L9.76562-4.49219C9.76562 1.80664 13.3789 5.32227 19.9219 5.32227ZM61.2793-72.3633C66.1133-72.3633 68.6035-69.8242 68.6035-65.0391L68.6035-20.8496C68.6035-16.5527 66.4062-14.3555 62.1094-14.3555L20.752-14.3555L20.752-72.3633ZM13.0859-11.7188L13.0859-65.0391C13.0859-68.8965 14.6973-71.2891 17.8223-72.0703L17.8223-14.1602C15.8203-13.8184 14.3066-12.9883 13.0859-11.7188ZM28.418-54.0039L60.5957-54.0039C61.377-54.0039 62.0605-54.6387 62.0605-55.4688C62.0605-56.25 61.377-56.9336 60.5957-56.9336L28.418-56.9336C27.6367-56.9336 26.9531-56.25 26.9531-55.4688C26.9531-54.6387 27.6367-54.0039 28.418-54.0039ZM28.418-43.9941L51.0742-43.9941C51.8555-43.9941 52.5391-44.6289 52.5391-45.459C52.5391-46.2402 51.8555-46.9238 51.0742-46.9238L28.418-46.9238C27.6367-46.9238 26.9531-46.2402 26.9531-45.459C26.9531-44.6289 27.6367-43.9941 28.418-43.9941ZM20.0684 2.05078C15.625 2.05078 13.0859-0.390625 13.0859-4.58984C13.0859-8.59375 15.7227-11.0352 20.166-11.0352L61.1816-11.0352C62.4023-11.0352 63.4277-11.1816 64.4043-11.4746C61.6211-6.5918 62.4512-1.41602 66.2109 2.05078Z"/>
  </g>
  <g id="Ultralight-S" transform="matrix(1 0 0 1 519.281 696)">
   <path d="M19.2871 5.17578L70.0195 5.17578C70.7031 5.17578 71.0938 4.78516 71.0938 4.05273C71.0938 3.66211 70.8496 3.27148 70.5078 3.07617C64.6973-0.585938 63.3301-7.22656 68.4082-13.0859C69.9707-14.8926 71.0938-17.2363 71.0938-20.5566L71.0938-65.4785C71.0938-72.0215 67.627-75.4883 61.084-75.4883L19.7266-75.4883C13.2324-75.4883 9.76562-72.0215 9.76562-65.4785L9.76562-3.90625C9.76562 1.80664 13.2812 5.17578 19.2871 5.17578ZM19.873-73.291L60.9863-73.291C66.2109-73.291 68.8965-70.6055 68.8965-65.3809L68.8965-20.7031C68.8965-15.625 66.2598-12.9395 61.1328-12.9395L19.3359-12.9395C19.1895-12.9395 19.0918-12.9395 18.9453-12.9395L18.9453-73.2422C19.2383-73.291 19.5312-73.291 19.873-73.291ZM11.9629-9.91211L11.9629-65.3809C11.9629-69.4336 13.623-71.9727 16.8457-72.9004L16.8457-12.7441C14.6973-12.3535 13.1836-11.4258 11.9629-9.91211ZM26.9531-54.8828L60.4492-54.8828C61.0352-54.8828 61.5234-55.3711 61.5234-55.957C61.5234-56.543 61.0352-57.0312 60.4492-57.0312L26.9531-57.0312C26.3672-57.0312 25.8789-56.543 25.8789-55.957C25.8789-55.3711 26.3672-54.8828 26.9531-54.8828ZM26.9531-45.0684L49.9023-45.0684C50.4883-45.0684 50.9766-45.5566 50.9766-46.1426C50.9766-46.7285 50.4883-47.2168 49.9023-47.2168L26.9531-47.2168C26.3672-47.2168 25.8789-46.7285 25.8789-46.1426C25.8789-45.5566 26.3672-45.0684 26.9531-45.0684ZM19.3848 2.97852C14.6973 2.97852 11.9629 0.390625 11.9629-4.00391C11.9629-8.25195 14.7461-10.7422 19.4336-10.7422L61.084-10.7422C62.5488-10.7422 63.8184-10.9375 64.9902-11.3281C61.8652-6.05469 62.9395-0.537109 67.334 2.97852Z"/>
  </g>
 </g>
</svg>
