<?xml version="1.0" encoding="UTF-8"?>
<!--Generator: Apple Native CoreSVG 149-->
<!DOCTYPE svg
PUBLIC "-//W3C//DTD SVG 1.1//EN"
       "http://www.w3.org/Graphics/SVG/1.1/DTD/svg11.dtd">
<svg version="1.1" xmlns="http://www.w3.org/2000/svg" xmlns:xlink="http://www.w3.org/1999/xlink" width="3300" height="2200">
 <!--glyph: "uni100076.medium", point size: 100.000000, font version: "Version 16.0d12e3", template writer version: "8"-->
 <g id="Notes">
  <rect height="2200" id="artboard" style="fill:white;opacity:1" width="3300" x="0" y="0"/>
  <line id="" style="fill:none;stroke:black;opacity:1;stroke-width:0.5;" x1="263" x2="3036" y1="292" y2="292"/>
  <text style="stroke:none;fill:black;font-family:-apple-system,&quot;SF Pro Display&quot;,&quot;SF Pro Text&quot;,Helvetica,sans-serif;font-weight:bold;" transform="matrix(1 0 0 1 263 322)">Weight/Scale Variations</text>
  <text style="stroke:none;fill:black;font-family:-apple-system,&quot;SF Pro Display&quot;,&quot;SF Pro Text&quot;,Helvetica,sans-serif;text-anchor:middle;" transform="matrix(1 0 0 1 559.711 322)">Ultralight</text>
  <text style="stroke:none;fill:black;font-family:-apple-system,&quot;SF Pro Display&quot;,&quot;SF Pro Text&quot;,Helvetica,sans-serif;text-anchor:middle;" transform="matrix(1 0 0 1 856.422 322)">Thin</text>
  <text style="stroke:none;fill:black;font-family:-apple-system,&quot;SF Pro Display&quot;,&quot;SF Pro Text&quot;,Helvetica,sans-serif;text-anchor:middle;" transform="matrix(1 0 0 1 1153.13 322)">Light</text>
  <text style="stroke:none;fill:black;font-family:-apple-system,&quot;SF Pro Display&quot;,&quot;SF Pro Text&quot;,Helvetica,sans-serif;text-anchor:middle;" transform="matrix(1 0 0 1 1449.84 322)">Regular</text>
  <text style="stroke:none;fill:black;font-family:-apple-system,&quot;SF Pro Display&quot;,&quot;SF Pro Text&quot;,Helvetica,sans-serif;text-anchor:middle;" transform="matrix(1 0 0 1 1746.56 322)">Medium</text>
  <text style="stroke:none;fill:black;font-family:-apple-system,&quot;SF Pro Display&quot;,&quot;SF Pro Text&quot;,Helvetica,sans-serif;text-anchor:middle;" transform="matrix(1 0 0 1 2043.27 322)">Semibold</text>
  <text style="stroke:none;fill:black;font-family:-apple-system,&quot;SF Pro Display&quot;,&quot;SF Pro Text&quot;,Helvetica,sans-serif;text-anchor:middle;" transform="matrix(1 0 0 1 2339.98 322)">Bold</text>
  <text style="stroke:none;fill:black;font-family:-apple-system,&quot;SF Pro Display&quot;,&quot;SF Pro Text&quot;,Helvetica,sans-serif;text-anchor:middle;" transform="matrix(1 0 0 1 2636.69 322)">Heavy</text>
  <text style="stroke:none;fill:black;font-family:-apple-system,&quot;SF Pro Display&quot;,&quot;SF Pro Text&quot;,Helvetica,sans-serif;text-anchor:middle;" transform="matrix(1 0 0 1 2933.4 322)">Black</text>
  <line id="" style="fill:none;stroke:black;opacity:1;stroke-width:0.5;" x1="263" x2="3036" y1="1903" y2="1903"/>
  <g id="" transform="matrix(1 0 0 1 263 1933)">
   <path d="M9.24805 0.830078C13.5547 0.830078 17.1387-2.74414 17.1387-7.05078C17.1387-11.3574 13.5449-14.9316 9.23828-14.9316C4.94141-14.9316 1.36719-11.3574 1.36719-7.05078C1.36719-2.74414 4.95117 0.830078 9.24805 0.830078ZM9.24805-0.654297C5.70312-0.654297 2.87109-3.49609 2.87109-7.05078C2.87109-10.6055 5.69336-13.4473 9.23828-13.4473C12.793-13.4473 15.6348-10.6055 15.6445-7.05078C15.6543-3.49609 12.8027-0.654297 9.24805-0.654297ZM9.22852-3.62305C9.69727-3.62305 9.9707-3.93555 9.9707-4.45312L9.9707-6.31836L12.002-6.31836C12.5-6.31836 12.832-6.57227 12.832-7.04102C12.832-7.51953 12.5195-7.7832 12.002-7.7832L9.9707-7.7832L9.9707-9.81445C9.9707-10.332 9.69727-10.6543 9.22852-10.6543C8.75977-10.6543 8.50586-10.3125 8.50586-9.81445L8.50586-7.7832L6.49414-7.7832C5.97656-7.7832 5.64453-7.51953 5.64453-7.04102C5.64453-6.57227 5.99609-6.31836 6.49414-6.31836L8.50586-6.31836L8.50586-4.45312C8.50586-3.95508 8.75977-3.62305 9.22852-3.62305Z"/>
  </g>
  <g id="" transform="matrix(1 0 0 1 281.506 1933)">
   <path d="M11.709 2.91016C17.1582 2.91016 21.6699-1.61133 21.6699-7.05078C21.6699-12.5 17.1484-17.0117 11.6992-17.0117C6.25977-17.0117 1.74805-12.5 1.74805-7.05078C1.74805-1.61133 6.26953 2.91016 11.709 2.91016ZM11.709 1.25C7.09961 1.25 3.41797-2.44141 3.41797-7.05078C3.41797-11.6602 7.08984-15.3516 11.6992-15.3516C16.3086-15.3516 20-11.6602 20.0098-7.05078C20.0195-2.44141 16.3184 1.25 11.709 1.25ZM11.6797-2.66602C12.207-2.66602 12.5098-3.01758 12.5098-3.59375L12.5098-6.23047L15.3223-6.23047C15.8691-6.23047 16.25-6.51367 16.25-7.03125C16.25-7.55859 15.8887-7.86133 15.3223-7.86133L12.5098-7.86133L12.5098-10.6836C12.5098-11.25 12.207-11.6113 11.6797-11.6113C11.1621-11.6113 10.8789-11.2305 10.8789-10.6836L10.8789-7.86133L8.07617-7.86133C7.50977-7.86133 7.13867-7.55859 7.13867-7.03125C7.13867-6.51367 7.5293-6.23047 8.07617-6.23047L10.8789-6.23047L10.8789-3.59375C10.8789-3.03711 11.1621-2.66602 11.6797-2.66602Z"/>
  </g>
  <g id="" transform="matrix(1 0 0 1 304.924 1933)">
   <path d="M14.9707 5.66406C21.9336 5.66406 27.6953-0.0976562 27.6953-7.05078C27.6953-14.0137 21.9238-19.7754 14.9609-19.7754C8.00781-19.7754 2.25586-14.0137 2.25586-7.05078C2.25586-0.0976562 8.01758 5.66406 14.9707 5.66406ZM14.9707 3.84766C8.93555 3.84766 4.08203-1.01562 4.08203-7.05078C4.08203-13.0957 8.92578-17.9492 14.9609-17.9492C21.0059-17.9492 25.8594-13.0957 25.8691-7.05078C25.8789-1.01562 21.0156 3.84766 14.9707 3.84766ZM14.9414-1.38672C15.5176-1.38672 15.8594-1.77734 15.8594-2.38281L15.8594-6.13281L19.7754-6.13281C20.3711-6.13281 20.7812-6.46484 20.7812-7.02148C20.7812-7.59766 20.3906-7.93945 19.7754-7.93945L15.8594-7.93945L15.8594-11.8652C15.8594-12.4805 15.5176-12.8711 14.9414-12.8711C14.375-12.8711 14.0527-12.4609 14.0527-11.8652L14.0527-7.93945L10.1465-7.93945C9.53125-7.93945 9.13086-7.59766 9.13086-7.02148C9.13086-6.46484 9.55078-6.13281 10.1465-6.13281L14.0527-6.13281L14.0527-2.38281C14.0527-1.79688 14.375-1.38672 14.9414-1.38672Z"/>
  </g>
  <text style="stroke:none;fill:black;font-family:-apple-system,&quot;SF Pro Display&quot;,&quot;SF Pro Text&quot;,Helvetica,sans-serif;font-weight:bold;" transform="matrix(1 0 0 1 263 1953)">Design Variations</text>
  <text style="stroke:none;fill:black;font-family:-apple-system,&quot;SF Pro Display&quot;,&quot;SF Pro Text&quot;,Helvetica,sans-serif;" transform="matrix(1 0 0 1 263 1971)">Symbols are supported in up to nine weights and three scales.</text>
  <text style="stroke:none;fill:black;font-family:-apple-system,&quot;SF Pro Display&quot;,&quot;SF Pro Text&quot;,Helvetica,sans-serif;" transform="matrix(1 0 0 1 263 1989)">For optimal layout with text and other symbols, vertically align</text>
  <text style="stroke:none;fill:black;font-family:-apple-system,&quot;SF Pro Display&quot;,&quot;SF Pro Text&quot;,Helvetica,sans-serif;" transform="matrix(1 0 0 1 263 2007)">symbols with the adjacent text.</text>
  <line id="" style="fill:none;stroke:#00AEEF;stroke-width:0.5;opacity:1.0;" x1="776" x2="776" y1="1919" y2="1933"/>
  <g id="" transform="matrix(1 0 0 1 776 1933)">
   <path d="M3.31055 0.126953C3.82812 0.126953 4.08203-0.0683594 4.26758-0.605469L5.52734-4.0625L11.2891-4.0625L12.5488-0.605469C12.7344-0.0683594 12.9883 0.126953 13.4961 0.126953C14.0137 0.126953 14.3457-0.185547 14.3457-0.673828C14.3457-0.839844 14.3164-0.986328 14.2383-1.20117L9.6582-13.3887C9.43359-13.9941 9.0332-14.2871 8.4082-14.2871C7.80273-14.2871 7.39258-13.9941 7.17773-13.3984L2.59766-1.19141C2.51953-0.976562 2.49023-0.830078 2.49023-0.664062C2.49023-0.175781 2.80273 0.126953 3.31055 0.126953ZM6.00586-5.53711L8.37891-12.1094L8.42773-12.1094L10.8008-5.53711Z"/>
  </g>
  <line id="" style="fill:none;stroke:#00AEEF;stroke-width:0.5;opacity:1.0;" x1="792.836" x2="792.836" y1="1919" y2="1933"/>
  <text style="stroke:none;fill:black;font-family:-apple-system,&quot;SF Pro Display&quot;,&quot;SF Pro Text&quot;,Helvetica,sans-serif;font-weight:bold;" transform="matrix(1 0 0 1 776 1953)">Margins</text>
  <text style="stroke:none;fill:black;font-family:-apple-system,&quot;SF Pro Display&quot;,&quot;SF Pro Text&quot;,Helvetica,sans-serif;" transform="matrix(1 0 0 1 776 1971)">Leading and trailing margins on the left and right side of each symbol</text>
  <text style="stroke:none;fill:black;font-family:-apple-system,&quot;SF Pro Display&quot;,&quot;SF Pro Text&quot;,Helvetica,sans-serif;" transform="matrix(1 0 0 1 776 1989)">can be adjusted by modifying the x-location of the margin guidelines.</text>
  <text style="stroke:none;fill:black;font-family:-apple-system,&quot;SF Pro Display&quot;,&quot;SF Pro Text&quot;,Helvetica,sans-serif;" transform="matrix(1 0 0 1 776 2007)">Modifications are automatically applied proportionally to all</text>
  <text style="stroke:none;fill:black;font-family:-apple-system,&quot;SF Pro Display&quot;,&quot;SF Pro Text&quot;,Helvetica,sans-serif;" transform="matrix(1 0 0 1 776 2025)">scales and weights.</text>
  <g id="" transform="matrix(1 0 0 1 1289 1933)">
   <path d="M2.8418 1.86523L4.54102 3.57422C5.40039 4.44336 6.38672 4.38477 7.31445 3.35938L17.4902-7.85156C17.7539-7.76367 18.0273-7.7832 18.3398-7.8418L19.4043-8.03711L20.0684-7.36328L20.0293-6.80664C19.9902-6.30859 20.1172-5.92773 20.6055-5.44922L21.3672-4.70703C21.8457-4.22852 22.4609-4.19922 22.9297-4.66797L25.8398-7.58789C26.3086-8.05664 26.2891-8.65234 25.8105-9.13086L25.0391-9.89258C24.5605-10.3711 24.1895-10.5273 23.7109-10.4883L23.1348-10.4395L22.4902-11.0742L22.7344-12.1973C22.8613-12.7637 22.7051-13.2031 22.1191-13.7891L19.9219-15.9766C16.582-19.2969 12.1484-19.2188 9.25781-16.3281C8.83789-15.918 8.80859-15.3418 9.04297-14.9512C9.27734-14.5898 9.73633-14.3555 10.3809-14.5215C11.8457-14.8633 13.3691-14.9219 14.7949-13.9844L14.209-12.5293C14.0137-12.0508 13.9844-11.6504 14.1113-11.2891L3.04688-0.898438C2.06055 0.0195312 1.98242 0.996094 2.8418 1.86523ZM10.752-15.957C13.1836-17.7344 16.4746-17.4316 18.7012-15.2051L21.1328-12.793C21.3672-12.5586 21.4062-12.373 21.3379-12.0312L21.0156-10.5469L22.5195-9.0625L23.5059-9.12109C23.7598-9.13086 23.8379-9.11133 24.0332-8.91602L24.6094-8.33984L22.168-5.89844L21.5918-6.47461C21.3965-6.66992 21.3672-6.74805 21.377-7.01172L21.4453-7.98828L19.9512-9.47266L18.4277-9.21875C18.1055-9.15039 17.959-9.17969 17.7148-9.41406L15.7129-11.416C15.459-11.6504 15.4297-11.8164 15.5859-12.1875L16.4648-14.2773C14.9023-15.7324 12.8711-16.3574 10.8398-15.7617C10.6836-15.7227 10.625-15.8496 10.752-15.957ZM5.27344 2.30469L4.10156 1.14258C3.63281 0.683594 3.74023 0.341797 4.14062-0.0195312L14.9512-10.1953L16.416-8.71094L6.42578 2.27539C6.07422 2.67578 5.74219 2.77344 5.27344 2.30469Z"/>
  </g>
  <text style="stroke:none;fill:black;font-family:-apple-system,&quot;SF Pro Display&quot;,&quot;SF Pro Text&quot;,Helvetica,sans-serif;font-weight:bold;" transform="matrix(1 0 0 1 1289 1953)">Exporting</text>
  <text style="stroke:none;fill:black;font-family:-apple-system,&quot;SF Pro Display&quot;,&quot;SF Pro Text&quot;,Helvetica,sans-serif;" transform="matrix(1 0 0 1 1289 1971)">Symbols should be outlined when exporting to ensure the</text>
  <text style="stroke:none;fill:black;font-family:-apple-system,&quot;SF Pro Display&quot;,&quot;SF Pro Text&quot;,Helvetica,sans-serif;" transform="matrix(1 0 0 1 1289 1989)">design is preserved when submitting to Xcode.</text>
  <text id="template-version" style="stroke:none;fill:black;font-family:-apple-system,&quot;SF Pro Display&quot;,&quot;SF Pro Text&quot;,Helvetica,sans-serif;text-anchor:end;" transform="matrix(1 0 0 1 3036 1933)">Template v.2.0</text>
  <text style="stroke:none;fill:black;font-family:-apple-system,&quot;SF Pro Display&quot;,&quot;SF Pro Text&quot;,Helvetica,sans-serif;text-anchor:end;" transform="matrix(1 0 0 1 3036 1951)">Requires Xcode 12 or greater</text>
  <text style="stroke:none;fill:black;font-family:-apple-system,&quot;SF Pro Display&quot;,&quot;SF Pro Text&quot;,Helvetica,sans-serif;text-anchor:end;" transform="matrix(1 0 0 1 3036 1969)">Generated from arrow.up.circle</text>
  <text style="stroke:none;fill:black;font-family:-apple-system,&quot;SF Pro Display&quot;,&quot;SF Pro Text&quot;,Helvetica,sans-serif;text-anchor:end;" transform="matrix(1 0 0 1 3036 1987)">Typeset at 100 points</text>
  <text style="stroke:none;fill:black;font-family:-apple-system,&quot;SF Pro Display&quot;,&quot;SF Pro Text&quot;,Helvetica,sans-serif;" transform="matrix(1 0 0 1 263 726)">Small</text>
  <text style="stroke:none;fill:black;font-family:-apple-system,&quot;SF Pro Display&quot;,&quot;SF Pro Text&quot;,Helvetica,sans-serif;" transform="matrix(1 0 0 1 263 1156)">Medium</text>
  <text style="stroke:none;fill:black;font-family:-apple-system,&quot;SF Pro Display&quot;,&quot;SF Pro Text&quot;,Helvetica,sans-serif;" transform="matrix(1 0 0 1 263 1586)">Large</text>
 </g>
 <g id="Guides">
  <g id="H-reference" style="fill:#27AAE1;stroke:none;" transform="matrix(1 0 0 1 339 696)">
   <path d="M0.976562 0L3.66211 0L12.9883-24.4629L45.752-24.4629L55.127 0L57.7637 0L30.6152-70.459L28.125-70.459ZM29.3457-67.1387L29.4434-67.1387L44.873-26.709L13.8672-26.709Z"/>
  </g>
  <line id="Baseline-S" style="fill:none;stroke:#27AAE1;opacity:1;stroke-width:0.5;" x1="263" x2="3036" y1="696" y2="696"/>
  <line id="Capline-S" style="fill:none;stroke:#27AAE1;opacity:1;stroke-width:0.5;" x1="263" x2="3036" y1="625.541" y2="625.541"/>
  <g id="H-reference" style="fill:#27AAE1;stroke:none;" transform="matrix(1 0 0 1 339 1126)">
   <path d="M0.976562 0L3.66211 0L12.9883-24.4629L45.752-24.4629L55.127 0L57.7637 0L30.6152-70.459L28.125-70.459ZM29.3457-67.1387L29.4434-67.1387L44.873-26.709L13.8672-26.709Z"/>
  </g>
  <line id="Baseline-M" style="fill:none;stroke:#27AAE1;opacity:1;stroke-width:0.5;" x1="263" x2="3036" y1="1126" y2="1126"/>
  <line id="Capline-M" style="fill:none;stroke:#27AAE1;opacity:1;stroke-width:0.5;" x1="263" x2="3036" y1="1055.54" y2="1055.54"/>
  <g id="H-reference" style="fill:#27AAE1;stroke:none;" transform="matrix(1 0 0 1 339 1556)">
   <path d="M0.976562 0L3.66211 0L12.9883-24.4629L45.752-24.4629L55.127 0L57.7637 0L30.6152-70.459L28.125-70.459ZM29.3457-67.1387L29.4434-67.1387L44.873-26.709L13.8672-26.709Z"/>
  </g>
  <line id="Baseline-L" style="fill:none;stroke:#27AAE1;opacity:1;stroke-width:0.5;" x1="263" x2="3036" y1="1556" y2="1556"/>
  <line id="Capline-L" style="fill:none;stroke:#27AAE1;opacity:1;stroke-width:0.5;" x1="263" x2="3036" y1="1485.54" y2="1485.54"/>
  <line id="left-margin" style="fill:none;stroke:#00AEEF;stroke-width:0.5;opacity:1.0;" x1="1391.3" x2="1391.3" y1="1030.79" y2="1150.12"/>
  <line id="right-margin" style="fill:none;stroke:#00AEEF;stroke-width:0.5;opacity:1.0;" x1="1508.39" x2="1508.39" y1="1030.79" y2="1150.12"/>
 </g>
 <g id="Symbols">
  <g id="Black-L" transform="matrix(1 0 0 1 2854.05 1556)">
   <path d="M79.3457 32.8613C116.748 32.8613 147.412 2.19727 147.412-35.2051C147.412-72.6074 116.748-103.271 79.2969-103.271C41.8945-103.271 11.2793-72.6074 11.2793-35.2051C11.2793 2.19727 41.9434 32.8613 79.3457 32.8613ZM79.3457 12.4023C52.9785 12.4023 31.7383-8.83789 31.7383-35.2051C31.7383-61.5723 52.9297-82.8125 79.2969-82.8125C105.664-82.8125 126.953-61.5723 126.953-35.2051C127.002-8.83789 105.713 12.4023 79.3457 12.4023ZM79.3457-2.34375C84.1797-2.34375 87.9883-5.66406 87.9883-10.3516L87.9883-33.3984L87.1094-45.5078L90.7227-39.8438L96.0449-33.5938C97.3145-32.0801 99.4141-31.2012 101.465-31.2012C105.762-31.2012 108.74-34.0332 108.74-38.0859C108.74-40.3809 108.105-41.8945 106.445-43.75L86.5234-65.0391C84.5703-67.1387 82.2266-68.2129 79.3457-68.2129C76.4648-68.2129 74.1211-67.1387 72.168-65.0391L52.1973-43.75C50.5371-41.8945 49.9512-40.3809 49.9512-38.0859C49.9512-34.0332 52.9297-31.2012 57.1777-31.2012C59.3262-31.2012 61.377-32.1289 62.5977-33.5938L68.0176-40.0391L71.5332-45.459L70.7031-33.3984L70.7031-10.3516C70.7031-5.66406 74.4629-2.34375 79.3457-2.34375Z"/>
  </g>
  <g id="Heavy-L" transform="matrix(1 0 0 1 2558.39 1556)">
   <path d="M78.2715 31.7871C115.088 31.7871 145.312 1.5625 145.312-35.2051C145.312-72.0215 115.039-102.246 78.2715-102.246C41.4551-102.246 11.2793-72.0215 11.2793-35.2051C11.2793 1.5625 41.5039 31.7871 78.2715 31.7871ZM78.2715 14.0137C51.0254 14.0137 29.0527-7.95898 29.0527-35.2051C29.0527-62.5 50.9766-84.4727 78.2715-84.4727C105.518-84.4727 127.49-62.5 127.539-35.2051C127.539-7.95898 105.566 14.0137 78.2715 14.0137ZM78.2715-2.73438C82.5684-2.73438 85.8398-5.66406 85.8398-9.76562L85.8398-35.5957L85.1074-47.7051L89.4531-41.5527L95.5078-34.8145C96.6797-33.4473 98.4863-32.666 100.342-32.666C104.102-32.666 106.836-35.2539 106.836-38.8672C106.836-40.8691 106.25-42.2852 104.834-43.8477L84.5215-65.1367C82.8125-66.9922 80.8105-67.9199 78.2715-67.9199C75.7812-67.9199 73.8281-66.9922 72.0703-65.1367L51.7578-43.8477C50.293-42.2852 49.7559-40.8691 49.7559-38.8672C49.7559-35.2539 52.4414-32.666 56.25-32.666C58.1543-32.666 59.9609-33.4961 61.0352-34.8145L67.1875-41.748L71.4844-47.7051L70.7031-35.5957L70.7031-9.76562C70.7031-5.66406 74.0234-2.73438 78.2715-2.73438Z"/>
  </g>
  <g id="Bold-L" transform="matrix(1 0 0 1 2262.88 1556)">
   <path d="M77.0996 30.5664C113.232 30.5664 142.92 0.878906 142.92-35.2539C142.92-71.3379 113.184-101.074 77.0508-101.074C40.9668-101.074 11.2793-71.3379 11.2793-35.2539C11.2793 0.878906 41.0156 30.5664 77.0996 30.5664ZM77.0996 15.8203C48.8281 15.8203 26.0742-6.98242 26.0742-35.2539C26.0742-63.5254 48.7793-86.2793 77.0508-86.2793C105.371-86.2793 128.125-63.5254 128.174-35.2539C128.174-6.98242 105.371 15.8203 77.0996 15.8203ZM77.0996-3.125C80.7129-3.125 83.4473-5.61523 83.4473-9.13086L83.4473-38.0371L82.8125-50.1953L88.0371-43.5059L94.9219-36.1328C95.8984-34.9609 97.4121-34.3262 99.0723-34.3262C102.295-34.3262 104.688-36.5723 104.688-39.6973C104.688-41.4062 104.15-42.6758 102.979-43.9453L82.2754-65.2832C80.8105-66.8457 79.1504-67.627 77.0996-67.627C75.0977-67.627 73.4863-66.8457 71.9727-65.2832L51.2695-43.9453C50.0488-42.6758 49.5605-41.4062 49.5605-39.6973C49.5605-36.5723 51.9043-34.3262 55.1758-34.3262C56.7871-34.3262 58.3496-35.0098 59.2773-36.1328L66.2598-43.6035L71.3867-50.1465L70.752-38.0371L70.752-9.13086C70.752-5.61523 73.4863-3.125 77.0996-3.125Z"/>
  </g>
  <g id="Semibold-L" transform="matrix(1 0 0 1 1966.97 1556)">
   <path d="M76.2695 29.7363C111.914 29.7363 141.309 0.390625 141.309-35.2539C141.309-70.8984 111.865-100.244 76.2695-100.244C40.625-100.244 11.2793-70.8984 11.2793-35.2539C11.2793 0.390625 40.6738 29.7363 76.2695 29.7363ZM76.2695 17.041C47.3145 17.041 24.0234-6.25 24.0234-35.2539C24.0234-64.209 47.2656-87.5488 76.2695-87.5488C105.225-87.5488 128.564-64.209 128.613-35.2539C128.662-6.25 105.273 17.041 76.2695 17.041ZM76.2695-3.36914C79.4434-3.36914 81.7871-5.56641 81.7871-8.69141L81.7871-39.6973L81.25-51.9531L87.0117-44.8242L94.4824-37.0605C95.4102-36.0352 96.7285-35.4492 98.1934-35.4492C101.074-35.4492 103.174-37.5 103.174-40.2832C103.174-41.7969 102.686-42.9199 101.709-43.9941L80.7129-65.3809C79.3945-66.6992 78.0273-67.3828 76.2695-67.3828C74.5605-67.3828 73.2422-66.748 71.875-65.3809L50.8789-43.9941C49.9023-42.9199 49.4629-41.7969 49.4629-40.2832C49.4629-37.5 51.5625-35.4492 54.3945-35.4492C55.9082-35.4492 57.2266-36.0352 58.1055-37.0605L65.625-44.9219L71.3379-51.8555L70.752-39.6973L70.752-8.69141C70.752-5.56641 73.1445-3.36914 76.2695-3.36914Z"/>
  </g>
  <g id="Medium-L" transform="matrix(1 0 0 1 1670.87 1556)">
   <path d="M75.6836 29.1504C110.938 29.1504 140.088 0 140.088-35.2539C140.088-70.5078 110.889-99.6582 75.6348-99.6582C40.3809-99.6582 11.2793-70.5078 11.2793-35.2539C11.2793 0 40.3809 29.1504 75.6836 29.1504ZM75.6836 18.0176C46.1426 18.0176 22.4609-5.76172 22.4609-35.2539C22.4609-64.7461 46.1426-88.5254 75.6348-88.5254C105.127-88.5254 128.906-64.7461 128.906-35.2539C128.955-5.76172 105.176 18.0176 75.6836 18.0176ZM75.6836-3.61328C78.5156-3.61328 80.5664-5.56641 80.5664-8.34961L80.5664-40.9668L80.0781-53.2227L86.2793-45.8496L94.1895-37.7441C95.0195-36.8164 96.1914-36.3281 97.5098-36.3281C100.098-36.3281 102.051-38.1836 102.051-40.7227C102.051-42.041 101.611-43.1152 100.732-44.043L79.541-65.4297C78.3691-66.6504 77.1484-67.2363 75.6836-67.2363C74.2188-67.2363 73.0469-66.6992 71.8262-65.4297L50.6348-44.043C49.7559-43.1152 49.3652-42.041 49.3652-40.7227C49.3652-38.1836 51.2695-36.3281 53.8574-36.3281C55.1758-36.3281 56.3477-36.8652 57.1777-37.7441L65.1367-45.8984L71.2891-53.1738L70.8008-40.9668L70.8008-8.34961C70.8008-5.56641 72.8516-3.61328 75.6836-3.61328Z"/>
  </g>
  <g id="Regular-L" transform="matrix(1 0 0 1 1374.97 1556)">
   <path d="M74.8535 28.3203C109.668 28.3203 138.477-0.488281 138.477-35.2539C138.477-70.0684 109.619-98.877 74.8047-98.877C40.0391-98.877 11.2793-70.0684 11.2793-35.2539C11.2793-0.488281 40.0879 28.3203 74.8535 28.3203ZM74.8535 19.2383C44.6777 19.2383 20.4102-5.07812 20.4102-35.2539C20.4102-65.4785 44.6289-89.7461 74.8047-89.7461C105.029-89.7461 129.297-65.4785 129.346-35.2539C129.395-5.07812 105.078 19.2383 74.8535 19.2383ZM74.8535-3.85742C77.2461-3.85742 78.9062-5.56641 78.9062-7.91016L78.9062-42.627L78.5156-54.9316L85.3027-47.168L93.75-38.623C94.4824-37.8418 95.459-37.4512 96.6309-37.4512C98.877-37.4512 100.586-39.1113 100.586-41.3086C100.586-42.4316 100.195-43.4082 99.4629-44.0918L78.0273-65.5273C77.002-66.5039 76.0742-67.041 74.8535-67.041C73.7305-67.041 72.8027-66.5527 71.7773-65.5273L50.293-44.0918C49.5605-43.4082 49.2188-42.4316 49.2188-41.3086C49.2188-39.1113 50.8789-37.4512 53.125-37.4512C54.2969-37.4512 55.2734-37.8906 56.0059-38.623L64.502-47.168L71.1914-54.834L70.8008-42.627L70.8008-7.91016C70.8008-5.56641 72.5098-3.85742 74.8535-3.85742Z"/>
  </g>
  <g id="Light-L" transform="matrix(1 0 0 1 1079.18 1556)">
   <path d="M73.9258 27.3926C108.301 27.3926 136.621-0.927734 136.621-35.2539C136.621-69.6289 108.252-97.9492 73.9258-97.9492C39.5508-97.9492 11.2793-69.6289 11.2793-35.2539C11.2793-0.927734 39.5996 27.3926 73.9258 27.3926ZM73.9258 20.5078C43.1152 20.5078 18.2129-4.44336 18.2129-35.2539C18.2129-66.1133 43.0664-91.0156 73.9258-91.0156C104.736-91.0156 129.688-66.1133 129.736-35.2539C129.736-4.44336 104.785 20.5078 73.9258 20.5078ZM73.9258-4.05273C75.8301-4.05273 77.0996-5.32227 77.0996-7.22656L77.0996-46.2402L76.8066-57.1289L84.1309-49.1699L93.9941-39.3066C94.5801-38.6719 95.3125-38.3301 96.2402-38.3301C97.9492-38.3301 99.2676-39.6484 99.2676-41.3086C99.2676-42.1875 98.9746-42.9199 98.3887-43.457L76.3184-65.5273C75.5859-66.2598 74.8535-66.6504 73.9258-66.6504C73.0957-66.6504 72.3633-66.3086 71.582-65.5273L49.5117-43.457C48.9746-42.9199 48.6816-42.1875 48.6816-41.3086C48.6816-39.6484 49.9512-38.3301 51.709-38.3301C52.5879-38.3301 53.3203-38.6719 53.9551-39.3066L63.8184-49.1699L71.0938-57.0312L70.752-46.2402L70.752-7.22656C70.752-5.32227 72.1191-4.05273 73.9258-4.05273Z"/>
  </g>
  <g id="Thin-L" transform="matrix(1 0 0 1 783.693 1556)">
   <path d="M72.7051 26.1719C106.494 26.1719 134.18-1.51367 134.18-35.2539C134.18-69.043 106.494-96.7285 72.7051-96.7285C38.9648-96.7285 11.2793-69.043 11.2793-35.2539C11.2793-1.51367 38.9648 26.1719 72.7051 26.1719ZM72.7051 22.168C41.0156 22.168 15.2832-3.56445 15.2832-35.2539C15.2832-66.9922 41.0156-92.7246 72.7051-92.7246C104.395-92.7246 130.176-66.9922 130.176-35.2539C130.176-3.56445 104.443 22.168 72.7051 22.168ZM72.7051-4.24805C73.9258-4.24805 74.707-5.0293 74.707-6.25L74.707-51.0254L74.5117-60.0098L82.6172-51.8555L94.2871-40.1855C94.7266-39.7461 95.1172-39.5508 95.7031-39.5508C96.7773-39.5508 97.5586-40.332 97.5586-41.3086C97.5586-41.8457 97.3633-42.2852 96.9727-42.627L74.1211-65.5273C73.6816-65.918 73.2422-66.1133 72.7051-66.1133C72.2168-66.1133 71.7285-65.918 71.3379-65.5273L48.5352-42.627C48.1445-42.2852 47.9492-41.8457 47.9492-41.3086C47.9492-40.332 48.7305-39.5508 49.8047-39.5508C50.3906-39.5508 50.7812-39.7461 51.2207-40.1855L62.8906-51.8555L70.8984-59.9121L70.7031-51.0254L70.7031-6.25C70.7031-5.0293 71.582-4.24805 72.7051-4.24805Z"/>
  </g>
  <g id="Ultralight-L" transform="matrix(1 0 0 1 487.616 1556)">
   <path d="M72.1191 25.5371C105.566 25.5371 132.91-1.80664 132.91-35.2539C132.91-68.75 105.566-96.0938 72.1191-96.0938C38.623-96.0938 11.2793-68.75 11.2793-35.2539C11.2793-1.80664 38.623 25.5371 72.1191 25.5371ZM72.1191 23.0469C39.9414 23.0469 13.7695-3.125 13.7695-35.2539C13.7695-67.4316 39.9414-93.6035 72.1191-93.6035C104.248-93.6035 130.42-67.4316 130.42-35.2539C130.42-3.125 104.248 23.0469 72.1191 23.0469ZM72.0703-4.3457C72.9492-4.3457 73.4863-4.88281 73.4863-5.76172L73.4863-53.5156L73.3398-61.4746L81.8359-53.2227L94.4336-40.625C94.7754-40.2832 95.0195-40.1367 95.4102-40.1367C96.1426-40.1367 96.6309-40.6738 96.6309-41.3086C96.6309-41.6992 96.5332-41.9434 96.2402-42.2363L72.9492-65.5273C72.7539-65.7227 72.4121-65.8691 72.0703-65.8691C71.7773-65.8691 71.4355-65.7227 71.1914-65.5273L47.998-42.2363C47.7539-41.9434 47.6074-41.6992 47.6074-41.3086C47.6074-40.6738 48.1445-40.1367 48.8281-40.1367C49.2676-40.1367 49.5117-40.2832 49.8535-40.625L62.4512-53.2227L70.8008-61.377L70.7031-53.5156L70.7031-5.76172C70.7031-4.88281 71.2891-4.3457 72.0703-4.3457Z"/>
  </g>
  <g id="Black-M" transform="matrix(1 0 0 1 2870.97 1126)">
   <path d="M62.4023 18.457C91.9922 18.457 116.113-5.61523 116.113-35.2051C116.113-64.7949 91.9922-88.8672 62.4023-88.8672C32.8125-88.8672 8.74023-64.7949 8.74023-35.2051C8.74023-5.61523 32.8125 18.457 62.4023 18.457ZM62.4023 0.195312C42.8711 0.195312 27.002-15.625 27.002-35.2051C27.002-54.7363 42.8711-70.6055 62.4023-70.6055C81.9824-70.6055 97.8027-54.7363 97.8027-35.2051C97.8027-15.625 81.9824 0.195312 62.4023 0.195312ZM62.4023-9.375C66.6992-9.375 70.1172-12.2559 70.1172-16.3574L70.1172-32.8125L69.3359-41.3574L71.3867-37.5488L75.293-32.7148C76.3672-31.3965 78.2227-30.5664 79.9805-30.5664C83.6914-30.5664 86.1816-32.959 86.1816-36.4258C86.1816-38.4277 85.6934-39.6973 84.1797-41.4062L68.8477-58.2031C67.2363-60.0098 65.0879-60.9375 62.4023-60.9375C59.7656-60.9375 57.6172-60.0098 56.0059-58.2031L40.6738-41.4062C39.1602-39.6973 38.6719-38.4277 38.6719-36.4258C38.6719-32.959 41.1621-30.5664 44.873-30.5664C46.6797-30.5664 48.5352-31.3965 49.5117-32.7148L53.5156-37.793L55.4688-41.3574L54.7363-32.8125L54.7363-16.3574C54.7363-12.2559 58.1543-9.375 62.4023-9.375Z"/>
  </g>
  <g id="Heavy-M" transform="matrix(1 0 0 1 2575.19 1126)">
   <path d="M61.5234 17.5293C90.5273 17.5293 114.258-6.20117 114.258-35.2051C114.258-64.2578 90.5273-87.9883 61.4746-87.9883C32.4707-87.9883 8.74023-64.2578 8.74023-35.2051C8.74023-6.20117 32.4707 17.5293 61.5234 17.5293ZM61.5234 1.61133C41.1133 1.61133 24.6582-14.8438 24.6582-35.2051C24.6582-55.6152 41.1133-72.0703 61.4746-72.0703C81.8848-72.0703 98.3398-55.6152 98.3398-35.2051C98.3398-14.8438 81.8848 1.61133 61.5234 1.61133ZM61.5234-9.7168C65.2832-9.7168 68.2617-12.2559 68.2617-15.918L68.2617-34.2285L67.5781-43.2129L70.3125-38.916L74.6582-33.8379C75.6348-32.666 77.2461-31.9824 78.8086-31.9824C82.1289-31.9824 84.4238-34.1309 84.4238-37.2559C84.4238-39.0137 83.9355-40.1855 82.6172-41.6504L67.0898-58.3008C65.625-59.9121 63.7695-60.7422 61.5234-60.7422C59.2285-60.7422 57.4219-59.9121 55.9082-58.3008L40.3809-41.6504C39.0625-40.1855 38.623-39.0137 38.623-37.2559C38.623-34.1309 40.8691-31.9824 44.1895-31.9824C45.8496-31.9824 47.4121-32.666 48.3398-33.8379L52.7344-39.1113L55.4199-43.2129L54.7852-34.2285L54.7852-15.918C54.7852-12.2559 57.7148-9.7168 61.5234-9.7168Z"/>
  </g>
  <g id="Bold-M" transform="matrix(1 0 0 1 2279.5 1126)">
   <path d="M60.498 16.5039C88.8672 16.5039 112.207-6.83594 112.207-35.2051C112.207-63.623 88.8672-86.9629 60.4492-86.9629C32.0312-86.9629 8.74023-63.623 8.74023-35.2051C8.74023-6.83594 32.0801 16.5039 60.498 16.5039ZM60.498 3.22266C39.1602 3.22266 22.0703-13.916 22.0703-35.2051C22.0703-56.543 39.1602-73.6816 60.4492-73.6816C81.7383-73.6816 98.9258-56.543 98.9258-35.2051C98.9746-13.916 81.7871 3.22266 60.498 3.22266ZM60.498-10.1074C63.6719-10.1074 66.1621-12.3047 66.1621-15.4297L66.1621-35.8398L65.5762-45.3125L69.0918-40.4297L73.9258-35.1074C74.8047-34.082 76.123-33.4961 77.5391-33.4961C80.4199-33.4961 82.4219-35.4492 82.4219-38.1836C82.4219-39.6973 82.0312-40.7715 80.957-41.9434L65.1367-58.4473C63.8672-59.8145 62.3535-60.5469 60.498-60.5469C58.6426-60.5469 57.1777-59.8633 55.8594-58.4473L40.0391-41.9434C38.9648-40.7715 38.5742-39.6973 38.5742-38.1836C38.5742-35.4492 40.5762-33.4961 43.4082-33.4961C44.873-33.4961 46.2402-34.1309 47.0703-35.1074L51.9531-40.5762L55.3711-45.2637L54.834-35.8398L54.834-15.4297C54.834-12.3047 57.2754-10.1074 60.498-10.1074Z"/>
  </g>
  <g id="Semibold-M" transform="matrix(1 0 0 1 1983.5 1126)">
   <path d="M59.7656 15.8203C87.7441 15.8203 110.791-7.27539 110.791-35.2539C110.791-63.2324 87.6953-86.2793 59.7656-86.2793C31.7871-86.2793 8.74023-63.2324 8.74023-35.2539C8.74023-7.27539 31.7871 15.8203 59.7656 15.8203ZM59.7656 4.3457C37.8418 4.3457 20.2637-13.3301 20.2637-35.2539C20.2637-57.1777 37.793-74.8047 59.7656-74.8047C81.6895-74.8047 99.3164-57.1777 99.3652-35.2539C99.3652-13.3301 81.6895 4.3457 59.7656 4.3457ZM59.7656-10.3516C62.5977-10.3516 64.6973-12.3047 64.6973-15.0879L64.6973-36.9629L64.209-46.7285L68.2617-41.5039L73.4375-35.9863C74.2188-35.0586 75.3906-34.5703 76.6602-34.5703C79.1992-34.5703 81.1035-36.377 81.1035-38.8184C81.1035-40.1367 80.6641-41.1621 79.7363-42.1387L63.7695-58.5449C62.6465-59.7656 61.377-60.3516 59.7656-60.3516C58.2031-60.3516 56.9824-59.7656 55.8105-58.5449L39.7949-42.1387C38.916-41.1621 38.5254-40.1367 38.5254-38.8184C38.5254-36.377 40.332-34.5703 42.9199-34.5703C44.1895-34.5703 45.3613-35.1074 46.1426-35.9863L51.3672-41.5527L55.3223-46.6797L54.834-36.9629L54.834-15.0879C54.834-12.3047 56.9824-10.3516 59.7656-10.3516Z"/>
  </g>
  <g id="Medium-M" transform="matrix(1 0 0 1 1687.3 1126)">
   <path d="M59.2285 15.2344C86.9141 15.2344 109.766-7.61719 109.766-35.2539C109.766-62.8906 86.8652-85.7422 59.1797-85.7422C31.543-85.7422 8.74023-62.8906 8.74023-35.2539C8.74023-7.61719 31.5918 15.2344 59.2285 15.2344ZM59.2285 5.17578C36.8164 5.17578 18.8965-12.8418 18.8965-35.2539C18.8965-57.666 36.8164-75.6348 59.1797-75.6348C81.5918-75.6348 99.6094-57.666 99.6582-35.2539C99.707-12.8418 81.6406 5.17578 59.2285 5.17578ZM59.2285-10.5469C61.7676-10.5469 63.623-12.3535 63.623-14.7949L63.623-37.793L63.1836-47.8516L67.627-42.2852L73.0469-36.6211C73.7793-35.8398 74.8047-35.3516 76.0254-35.3516C78.3203-35.3516 80.0293-37.0605 80.0293-39.3066C80.0293-40.4785 79.6387-41.4551 78.8574-42.2852L62.7441-58.5938C61.7188-59.7168 60.5957-60.2539 59.2285-60.2539C57.9102-60.2539 56.8848-59.7168 55.7617-58.5938L39.6484-42.2852C38.8184-41.4551 38.4766-40.4785 38.4766-39.3066C38.4766-37.0605 40.1855-35.3516 42.4805-35.3516C43.7012-35.3516 44.7266-35.8398 45.459-36.6211L50.9277-42.334L55.3223-47.8027L54.8828-37.793L54.8828-14.7949C54.8828-12.3535 56.7383-10.5469 59.2285-10.5469Z"/>
  </g>
  <g id="Regular-M" transform="matrix(1 0 0 1 1391.3 1126)">
   <path d="M58.5449 14.5508C85.791 14.5508 108.35-8.05664 108.35-35.2539C108.35-62.5 85.7422-85.0586 58.4961-85.0586C31.2988-85.0586 8.74023-62.5 8.74023-35.2539C8.74023-8.05664 31.3477 14.5508 58.5449 14.5508ZM58.5449 6.25C35.498 6.25 17.0898-12.207 17.0898-35.2539C17.0898-58.3008 35.4492-76.7578 58.4961-76.7578C81.543-76.7578 100-58.3008 100.049-35.2539C100.098-12.207 81.5918 6.25 58.5449 6.25ZM58.5449-10.8398C60.6934-10.8398 62.207-12.3535 62.207-14.502L62.207-38.916L61.8164-49.2676L66.7969-43.3594L72.5586-37.5C73.1934-36.7676 74.0723-36.4258 75.1465-36.4258C77.1484-36.4258 78.7109-37.9395 78.7109-39.9414C78.7109-40.9668 78.3203-41.8457 77.6855-42.4805L61.4258-58.6914C60.498-59.6191 59.6191-60.1074 58.5449-60.1074C57.5195-60.1074 56.6895-59.668 55.7129-58.6914L39.4043-42.4805C38.7695-41.8457 38.4766-40.9668 38.4766-39.9414C38.4766-37.9395 39.9902-36.4258 41.9922-36.4258C43.0176-36.4258 43.8965-36.8164 44.5801-37.5L50.3906-43.3594L55.2734-49.2188L54.8828-38.916L54.8828-14.502C54.8828-12.3535 56.4453-10.8398 58.5449-10.8398Z"/>
  </g>
  <g id="Light-M" transform="matrix(1 0 0 1 1095.42 1126)">
   <path d="M57.7148 13.7207C84.5215 13.7207 106.689-8.44727 106.689-35.2539C106.689-62.1094 84.5215-84.2285 57.666-84.2285C30.8594-84.2285 8.74023-62.1094 8.74023-35.2539C8.74023-8.44727 30.9082 13.7207 57.7148 13.7207ZM57.7148 7.37305C34.082 7.37305 15.0879-11.6699 15.0879-35.2539C15.0879-58.8867 34.082-77.9297 57.666-77.9297C81.2988-77.9297 100.342-58.8867 100.391-35.2539C100.391-11.6699 81.3477 7.37305 57.7148 7.37305ZM57.7148-10.9863C59.4238-10.9863 60.5957-12.1582 60.5957-13.8184L60.5957-42.1387L60.3027-51.2207L65.7227-45.166L72.7539-38.0859C73.291-37.5 73.9258-37.2559 74.7559-37.2559C76.3184-37.2559 77.5391-38.4277 77.5391-39.9414C77.5391-40.7227 77.2461-41.4062 76.7578-41.8945L59.9121-58.6914C59.2285-59.375 58.5449-59.7656 57.7148-59.7656C56.9336-59.7656 56.2988-59.4238 55.5664-58.6914L38.7207-41.8945C38.2324-41.4062 37.9883-40.7227 37.9883-39.9414C37.9883-38.4277 39.1602-37.2559 40.7227-37.2559C41.5527-37.2559 42.1875-37.5488 42.7246-38.0859L49.7559-45.166L55.127-51.1719L54.8828-42.1387L54.8828-13.8184C54.8828-12.1582 56.0547-10.9863 57.7148-10.9863Z"/>
  </g>
  <g id="Thin-M" transform="matrix(1 0 0 1 799.806 1126)">
   <path d="M56.6406 12.5977C82.9102 12.5977 104.492-8.98438 104.492-35.2539C104.492-61.5723 82.9102-83.1543 56.5918-83.1543C30.3223-83.1543 8.74023-61.5723 8.74023-35.2539C8.74023-8.98438 30.3223 12.5977 56.6406 12.5977ZM56.6406 8.88672C32.2266 8.88672 12.4512-10.8887 12.4512-35.2539C12.4512-59.6191 32.2266-79.4434 56.5918-79.4434C81.0059-79.4434 100.781-59.6191 100.781-35.2539C100.781-10.8887 81.0059 8.88672 56.6406 8.88672ZM56.6406-11.1816C57.7148-11.1816 58.4473-11.8652 58.4473-12.9883L58.4473-46.4355L58.252-53.8086L64.3555-47.5586L72.998-38.8672C73.3887-38.4766 73.7793-38.3301 74.2676-38.3301C75.2441-38.3301 75.9766-39.0137 75.9766-39.9414C75.9766-40.4297 75.7812-40.8203 75.4883-41.1621L57.9102-58.6914C57.5195-59.082 57.0801-59.2773 56.6406-59.2773C56.1523-59.2773 55.7617-59.082 55.3223-58.6914L37.8418-41.1621C37.5-40.8203 37.3535-40.4297 37.3535-39.9414C37.3535-39.0137 38.0371-38.3301 39.0137-38.3301C39.5508-38.3301 39.9414-38.4766 40.2832-38.8672L48.9258-47.5586L54.9805-53.7598L54.834-46.4355L54.834-12.9883C54.834-11.8652 55.5664-11.1816 56.6406-11.1816Z"/>
  </g>
  <g id="Ultralight-M" transform="matrix(1 0 0 1 503.656 1126)">
   <path d="M56.0547 12.0605C82.0801 12.0605 103.369-9.22852 103.369-35.2539C103.369-61.2793 82.0801-82.5684 56.0547-82.5684C30.0293-82.5684 8.74023-61.2793 8.74023-35.2539C8.74023-9.22852 30.0293 12.0605 56.0547 12.0605ZM56.0547 9.66797C31.2988 9.66797 11.1328-10.498 11.1328-35.2539C11.1328-60.0586 31.2988-80.1758 56.0547-80.1758C80.8594-80.1758 100.977-60.0586 100.977-35.2539C100.977-10.498 80.8594 9.66797 56.0547 9.66797ZM56.0547-11.2793C56.8359-11.2793 57.3242-11.7676 57.3242-12.5488L57.3242-48.6328L57.2266-55.127L63.6719-48.7793L73.1445-39.3066C73.4375-38.9648 73.6816-38.8672 74.0234-38.8672C74.707-38.8672 75.1953-39.3555 75.1953-39.9414C75.1953-40.2832 75.0488-40.5273 74.8047-40.7715L56.8848-58.6914C56.6406-58.9355 56.3477-59.0332 56.0547-59.0332C55.7617-59.0332 55.4688-58.9355 55.2246-58.6914L37.3535-40.7715C37.1094-40.5273 37.0117-40.2832 37.0117-39.9414C37.0117-39.3555 37.5-38.8672 38.1348-38.8672C38.5254-38.8672 38.7695-38.9648 39.0625-39.3066L48.5352-48.7793L54.9316-55.0781L54.7852-48.6328L54.7852-12.5488C54.7852-11.7676 55.3223-11.2793 56.0547-11.2793Z"/>
  </g>
  <g id="Black-S" transform="matrix(1 0 0 1 2884.57 696)">
   <path d="M48.8281 6.78711C71.9727 6.78711 90.8203-12.0605 90.8203-35.2051C90.8203-58.3496 71.9727-77.1973 48.8281-77.1973C25.6836-77.1973 6.83594-58.3496 6.83594-35.2051C6.83594-12.0605 25.6836 6.78711 48.8281 6.78711ZM48.8281-7.37305C33.4473-7.37305 20.9961-19.8242 20.9961-35.2051C20.9961-50.5859 33.4473-63.0371 48.8281-63.0371C64.209-63.0371 76.6602-50.5859 76.6602-35.2051C76.6602-19.8242 64.209-7.37305 48.8281-7.37305ZM48.8281-14.9902C52.1484-14.9902 54.7852-17.2363 54.7852-20.4102L54.7852-33.3984L54.1992-40.1367L55.8594-37.1094L58.9355-33.3496C59.7656-32.3242 61.1816-31.6895 62.5488-31.6895C65.4297-31.6895 67.3828-33.5449 67.3828-36.2305C67.3828-37.793 66.9922-38.7695 65.8203-40.0879L53.8086-53.2227C52.5391-54.6387 50.8789-55.3711 48.8281-55.3711C46.7773-55.3711 45.1172-54.6387 43.8477-53.2227L31.8359-40.0879C30.6641-38.7695 30.2734-37.793 30.2734-36.2305C30.2734-33.5449 32.2266-31.6895 35.1074-31.6895C36.5234-31.6895 37.9395-32.3242 38.7207-33.3496L41.8457-37.3047L43.457-40.1367L42.8711-33.3984L42.8711-20.4102C42.8711-17.2363 45.5078-14.9902 48.8281-14.9902Z"/>
  </g>
  <g id="Heavy-S" transform="matrix(1 0 0 1 2588.47 696)">
   <path d="M48.2422 6.15234C70.9961 6.15234 89.5996-12.4512 89.5996-35.2051C89.5996-57.959 70.9961-76.6113 48.1934-76.6113C25.4395-76.6113 6.83594-57.959 6.83594-35.2051C6.83594-12.4512 25.4395 6.15234 48.2422 6.15234ZM48.2422-6.39648C32.2754-6.39648 19.4336-19.2871 19.4336-35.2051C19.4336-51.1719 32.2754-64.0137 48.1934-64.0137C64.1602-64.0137 77.002-51.1719 77.0508-35.2051C77.0508-19.2871 64.1602-6.39648 48.2422-6.39648ZM48.2422-15.2344C51.2207-15.2344 53.5156-17.2852 53.5156-20.166L53.5156-34.1309L53.0273-41.3574L55.127-37.9395L58.3984-34.1309C59.1797-33.2031 60.4492-32.666 61.7188-32.666C64.3555-32.666 66.1621-34.375 66.1621-36.8652C66.1621-38.2812 65.7715-39.209 64.7461-40.332L52.6367-53.3203C51.4648-54.5898 50-55.2734 48.2422-55.2734C46.4355-55.2734 45.0195-54.5898 43.7988-53.3203L31.6895-40.332C30.6641-39.209 30.2734-38.2812 30.2734-36.8652C30.2734-34.375 32.0801-32.666 34.7168-32.666C36.0352-32.666 37.3047-33.2031 38.0371-34.1309L41.3574-38.0859L43.4082-41.3574L42.9199-34.1309L42.9199-20.166C42.9199-17.2852 45.2637-15.2344 48.2422-15.2344Z"/>
  </g>
  <g id="Bold-S" transform="matrix(1 0 0 1 2292.44 696)">
   <path d="M47.5586 5.46875C69.873 5.46875 88.2324-12.8906 88.2324-35.2539C88.2324-57.5684 69.873-75.9277 47.5098-75.9277C25.1953-75.9277 6.83594-57.5684 6.83594-35.2539C6.83594-12.8906 25.1953 5.46875 47.5586 5.46875ZM47.5586-5.32227C30.957-5.32227 17.6758-18.6523 17.6758-35.2539C17.6758-51.8066 30.957-65.1367 47.5098-65.1367C64.1113-65.1367 77.4414-51.8066 77.4414-35.2539C77.4414-18.6523 64.1113-5.32227 47.5586-5.32227ZM47.5586-15.5273C50.1465-15.5273 52.1484-17.334 52.1484-19.8242L52.1484-34.9609L51.709-42.7246L54.3457-38.916L57.8125-35.0098C58.5449-34.2285 59.6191-33.7402 60.791-33.7402C63.1348-33.7402 64.7949-35.3516 64.7949-37.5977C64.7949-38.8184 64.4531-39.6973 63.5742-40.625L51.3184-53.418C50.2441-54.541 49.0723-55.127 47.5586-55.127C46.0449-55.127 44.873-54.5898 43.7988-53.418L31.4941-40.625C30.6641-39.6973 30.3223-38.8184 30.3223-37.5977C30.3223-35.3516 31.9824-33.7402 34.2773-33.7402C35.498-33.7402 36.5723-34.2285 37.2559-35.0098L40.8203-39.0137L43.4082-42.6758L42.9199-34.9609L42.9199-19.8242C42.9199-17.334 44.9219-15.5273 47.5586-15.5273Z"/>
  </g>
  <g id="Semibold-S" transform="matrix(1 0 0 1 1996.2 696)">
   <path d="M47.0703 4.98047C69.0918 4.98047 87.3047-13.1836 87.3047-35.2539C87.3047-57.2754 69.0918-75.4883 47.0215-75.4883C25-75.4883 6.83594-57.2754 6.83594-35.2539C6.83594-13.1836 25.0488 4.98047 47.0703 4.98047ZM47.0703-4.58984C30.0781-4.58984 16.4551-18.2129 16.4551-35.2539C16.4551-52.2461 30.0293-65.8691 47.0215-65.8691C64.0625-65.8691 77.6855-52.2461 77.7344-35.2539C77.7344-18.2129 64.0625-4.58984 47.0703-4.58984ZM47.0703-15.7227C49.4141-15.7227 51.1719-17.334 51.1719-19.6289L51.1719-35.5469L50.7812-43.6523L53.8086-39.5508L57.4219-35.6445C58.0566-34.9121 59.082-34.4727 60.1562-34.4727C62.2559-34.4727 63.8672-35.9863 63.8672-38.0859C63.8672-39.1602 63.5254-40.0391 62.7441-40.8203L50.4395-53.4668C49.4629-54.4922 48.3887-55.0293 47.0703-55.0293C45.8008-55.0293 44.7754-54.541 43.75-53.4668L31.3965-40.8203C30.6152-40.0391 30.3223-39.1602 30.3223-38.0859C30.3223-35.9863 31.8848-34.4727 33.9844-34.4727C35.1074-34.4727 36.084-34.9121 36.7188-35.6445L40.4297-39.6484L43.3594-43.6035L42.9688-35.5469L42.9688-19.6289C42.9688-17.334 44.7266-15.7227 47.0703-15.7227Z"/>
  </g>
  <g id="Medium-S" transform="matrix(1 0 0 1 1699.83 696)">
   <path d="M46.7285 4.63867C68.5547 4.63867 86.6211-13.4277 86.6211-35.2539C86.6211-57.0801 68.5059-75.1465 46.6797-75.1465C24.8535-75.1465 6.83594-57.0801 6.83594-35.2539C6.83594-13.4277 24.9023 4.63867 46.7285 4.63867ZM46.7285-4.00391C29.3945-4.00391 15.5273-17.9199 15.5273-35.2539C15.5273-52.5879 29.3457-66.4551 46.6797-66.4551C64.0137-66.4551 77.8809-52.5879 77.9297-35.2539C77.9785-17.9199 64.0625-4.00391 46.7285-4.00391ZM46.7285-15.8691C48.877-15.8691 50.4395-17.3828 50.4395-19.4824L50.4395-35.9863L50.0977-44.3359L53.3691-40.0391L57.1289-36.084C57.7148-35.4004 58.6426-35.0586 59.668-35.0586C61.6211-35.0586 63.1348-36.4746 63.1348-38.4277C63.1348-39.4531 62.793-40.2832 62.1582-40.9668L49.7559-53.5645C48.8281-54.4922 47.9004-54.9805 46.7285-54.9805C45.6055-54.9805 44.7266-54.541 43.75-53.5645L31.2988-40.9668C30.6152-40.2832 30.3223-39.4531 30.3223-38.4277C30.3223-36.4746 31.7871-35.0586 33.7891-35.0586C34.8145-35.0586 35.7422-35.4492 36.3281-36.084L40.1367-40.0879L43.3594-44.2871L42.9688-35.9863L42.9688-19.4824C42.9688-17.3828 44.5801-15.8691 46.7285-15.8691Z"/>
  </g>
  <g id="Regular-S" transform="matrix(1 0 0 1 1403.58 696)">
   <path d="M46.2402 4.15039C67.7734 4.15039 85.6934-13.7207 85.6934-35.2539C85.6934-56.7871 67.7246-74.6582 46.1914-74.6582C24.707-74.6582 6.83594-56.7871 6.83594-35.2539C6.83594-13.7207 24.7559 4.15039 46.2402 4.15039ZM46.2402-3.27148C28.5156-3.27148 14.3555-17.4805 14.3555-35.2539C14.3555-53.0273 28.4668-67.2363 46.1914-67.2363C63.9648-67.2363 78.1738-53.0273 78.2227-35.2539C78.2715-17.4805 64.0137-3.27148 46.2402-3.27148ZM46.2402-16.0156C48.1445-16.0156 49.5117-17.3828 49.5117-19.2871L49.5117-36.5234L49.1699-45.2637L52.832-40.7227L56.7383-36.7188C57.2754-36.084 58.1055-35.791 59.0332-35.791C60.791-35.791 62.207-37.1094 62.207-38.916C62.207-39.7949 61.9141-40.625 61.3281-41.1621L48.8281-53.6133C47.998-54.4434 47.2656-54.8828 46.2402-54.8828C45.3125-54.8828 44.6289-54.4922 43.7012-53.6133L31.2012-41.1621C30.6152-40.625 30.3223-39.7949 30.3223-38.916C30.3223-37.1094 31.6895-35.791 33.4961-35.791C34.4238-35.791 35.2539-36.1328 35.791-36.7188L39.7461-40.7227L43.3594-45.2148L43.0176-36.5234L43.0176-19.2871C43.0176-17.3828 44.3848-16.0156 46.2402-16.0156Z"/>
  </g>
  <g id="Light-S" transform="matrix(1 0 0 1 1107.6 696)">
   <path d="M45.5078 3.41797C66.6992 3.41797 84.2285-14.0625 84.2285-35.2539C84.2285-56.4453 66.6504-73.9258 45.5078-73.9258C24.3164-73.9258 6.83594-56.4453 6.83594-35.2539C6.83594-14.0625 24.3652 3.41797 45.5078 3.41797ZM45.5078-2.29492C27.2461-2.29492 12.5977-16.9922 12.5977-35.2539C12.5977-53.5156 27.1973-68.2129 45.5078-68.2129C63.7695-68.2129 78.4668-53.5156 78.5156-35.2539C78.5156-16.9922 63.8184-2.29492 45.5078-2.29492ZM45.5078-16.1621C47.0215-16.1621 48.0469-17.2363 48.0469-18.7012L48.0469-39.4043L47.8027-47.0215L51.9043-42.2852L56.8848-37.2559C57.373-36.7676 57.959-36.4746 58.6914-36.4746C60.1074-36.4746 61.1816-37.5488 61.1816-38.916C61.1816-39.5996 60.9375-40.2344 60.498-40.6738L47.5098-53.6133C46.875-54.248 46.2891-54.5898 45.5078-54.5898C44.8242-54.5898 44.2383-54.2969 43.5547-53.6133L30.6152-40.6738C30.127-40.2344 29.9316-39.5996 29.9316-38.916C29.9316-37.5488 30.957-36.4746 32.373-36.4746C33.1055-36.4746 33.6914-36.7676 34.1797-37.2559L39.209-42.2852L43.2617-46.9727L42.9688-39.4043L42.9688-18.7012C42.9688-17.2363 44.043-16.1621 45.5078-16.1621Z"/>
  </g>
  <g id="Thin-S" transform="matrix(1 0 0 1 811.867 696)">
   <path d="M44.5801 2.49023C65.2832 2.49023 82.2754-14.5508 82.2754-35.2539C82.2754-55.957 65.2344-72.998 44.5312-72.998C23.8281-72.998 6.83594-55.957 6.83594-35.2539C6.83594-14.5508 23.877 2.49023 44.5801 2.49023ZM44.5801-0.927734C25.5859-0.927734 10.2539-16.3086 10.2539-35.2539C10.2539-54.1992 25.5859-69.5801 44.5312-69.5801C63.5254-69.5801 78.8574-54.1992 78.8574-35.2539C78.8574-16.3086 63.5254-0.927734 44.5801-0.927734ZM44.5801-16.3574C45.5078-16.3574 46.1914-16.9922 46.1914-17.9688L46.1914-43.2129L45.9961-49.2676L50.6836-44.4336L57.1289-37.9395C57.4707-37.5977 57.8125-37.4512 58.3008-37.4512C59.1309-37.4512 59.8145-38.0859 59.8145-38.916C59.8145-39.3555 59.668-39.7461 59.375-40.0391L45.752-53.6133C45.3613-54.0039 45.0195-54.1504 44.5801-54.1504C44.1406-54.1504 43.75-54.0039 43.4082-53.6133L29.7852-40.0391C29.4922-39.7461 29.3457-39.3555 29.3457-38.916C29.3457-38.0859 30.0293-37.4512 30.8594-37.4512C31.3477-37.4512 31.6895-37.5977 32.0312-37.9395L38.4766-44.4336L43.1152-49.2188L42.9688-43.2129L42.9688-17.9688C42.9688-16.9922 43.6523-16.3574 44.5801-16.3574Z"/>
  </g>
  <g id="Ultralight-S" transform="matrix(1 0 0 1 515.644 696)">
   <path d="M44.043 1.95312C64.502 1.95312 81.2988-14.7949 81.2988-35.2539C81.2988-55.7129 64.502-72.4609 44.043-72.4609C23.584-72.4609 6.83594-55.7129 6.83594-35.2539C6.83594-14.7949 23.584 1.95312 44.043 1.95312ZM44.043-0.244141C24.7559-0.244141 9.08203-15.9668 9.08203-35.2539C9.08203-54.541 24.7559-70.2637 44.043-70.2637C63.3789-70.2637 79.0527-54.541 79.0527-35.2539C79.0527-15.9668 63.3789-0.244141 44.043-0.244141ZM44.043-16.4551C44.7754-16.4551 45.2148-16.8945 45.2148-17.5781L45.2148-45.166L45.0684-50.4395L50.0488-45.5078L57.2266-38.2812C57.5195-38.0371 57.7148-37.9395 58.0566-37.9395C58.6426-37.9395 59.082-38.3789 59.082-38.916C59.082-39.2578 58.9844-39.4531 58.7891-39.6973L44.8242-53.6133C44.6289-53.8574 44.3359-53.9551 44.043-53.9551C43.7988-53.9551 43.5059-53.8574 43.2617-53.6133L29.3945-39.6973C29.1992-39.4531 29.0527-39.2578 29.0527-38.916C29.0527-38.3789 29.4922-37.9395 30.127-37.9395C30.4199-37.9395 30.6641-38.0371 30.9082-38.2812L38.1348-45.5078L43.0176-50.3906L42.9199-45.166L42.9199-17.5781C42.9199-16.8945 43.4082-16.4551 44.043-16.4551Z"/>
  </g>
 </g>
</svg>
